{
.appVersion = "3135";
.formatVersion = 3;
axes = (
{
name = Weight;
tag = wght;
}
);
customParameters = (
{
name = fsType;
value = (
);
},
{
name = "Write lastChange";
value = 0;
},
{
name = "Use Line Breaks";
value = 1;
},
{
name = "Use Typo Metrics";
value = 1;
},
{
name = "Family Alignment Zones";
value = (
{
pos = 940;
size = 0;
},
{
pos = 686;
size = 10;
},
{
pos = 511;
size = 10;
},
{
pos = 0;
size = "-10";
},
{
pos = "-250";
size = 0;
}
);
},
{
name = "Variable Font Origin";
value = "4BBFD287-7A5F-4332-B846-65FFBCBF0D57";
},
{
name = blueScale;
value = 0.09996;
},
{
disabled = 1;
name = "Axis Mappings";
value = {
wght = {
100 = 100;
200 = 200;
300 = 300;
400 = 400;
500 = 500;
600 = 600;
700 = 700;
800 = 800;
900 = 900;
};
};
}
);
date = "2022-04-05 15:35:56 +0000";
familyName = Chivo;
featurePrefixes = (
{
automatic = 1;
code = "languagesystem DFLT dflt;

languagesystem latn dflt;
languagesystem latn AZE;
languagesystem latn CRT;
languagesystem latn KAZ;
languagesystem latn TAT;
languagesystem latn TRK;
languagesystem latn ROM;
languagesystem latn MOL;
languagesystem latn PLK;
languagesystem latn CAT;
";
name = Languagesystems;
}
);
features = (
{
automatic = 1;
code = "feature locl;
feature subs;
feature sinf;
feature sups;
feature numr;
feature dnom;
feature frac;
feature ordn;
feature lnum;
feature pnum;
feature tnum;
feature onum;
feature case;
feature zero;
";
tag = aalt;
},
{
automatic = 1;
code = "lookup ccmp_Other_1 {
	@CombiningTopAccents = [acutecomb brevecomb breveinvertedcomb caroncomb circumflexcomb commaabovecomb commaturnedabovecomb dblgravecomb dieresiscomb dotaccentcomb gravecomb hookabovecomb hungarumlautcomb macroncomb ringcomb tildecomb];
	@CombiningNonTopAccents = [brevebelowcomb cedillacomb dieresisbelowcomb dotbelowcomb macronbelowcomb ogonekcomb tildebelowcomb horncomb slashlongcomb slashshortcomb strokelongcomb strokeshortcomb];
	sub [i j]' @CombiningTopAccents by [idotless jdotless];

glyphs = (
{
color = 4;
glyphname = A;
kernLeft = A;
kernRight = A;
layers = (
{
anchors = (
{
name = bottom;
pos = (289,0);
},
{
name = ogonek;
pos = (551,0);
},
{
name = top;
pos = (385,686);
}
);
background = {
anchors = (
{
name = bottom;
pos = (289,0);
},
{
name = ogonek;
pos = (551,0);
},
{
name = top;
pos = (385,686);
}
);
shapes = (
{
closed = 1;
nodes = (
(37,0,l),
(131,170,l),
(493,170,l),
(540,0,l),
(598,0,l),
(411,686,l),
(361,686,l),
(-19,0,l)
);
},
{
closed = 1;
nodes = (
(372,612,l),
(376,612,l),
(480,219,l),
(158,219,l)
);
}
);
};
layerId = "4BBFD287-7A5F-4332-B846-65FFBCBF0D57";
shapes = (
{
closed = 1;
nodes = (
(37,0,l),
(131,170,l),
(493,170,l),
(540,0,l),
(598,0,l),
(411,686,l),
(361,686,l),
(-19,0,l)
);
},
{
closed = 1;
nodes = (
(372,612,l),
(376,612,l),
(480,219,l),
(158,219,l)
);
}
);
width = 650;
},
{
anchors = (
{
name = bottom;
pos = (313,0);
},
{
name = ogonek;
pos = (502,0);
},
{
name = top;
pos = (401,686);
}
);
background = {
anchors = (
{
name = bottom;
pos = (313,0);
},
{
name = ogonek;
pos = (502,0);
},
{
name = top;
pos = (401,686);
}
);
shapes = (
{
closed = 1;
nodes = (
(157,0,l),
(214,122,l),
(432,122,l),
(456,0,l),
(674,0,l),
(542,686,l),
(281,686,l),
(-44,0,l)
);
},
{
closed = 1;
nodes = (
(371,475,l),
(376,475,l),
(405,267,l),
(283,267,l)
);
}
);
};
layerId = "4FDE33F5-0064-4818-A7C2-FB87252213B5";
shapes = (
{
closed = 1;
nodes = (
(157,0,l),
(214,122,l),
(432,122,l),
(456,0,l),
(674,0,l),
(542,686,l),
(281,686,l),
(-44,0,l)
);
},
{
closed = 1;
nodes = (
(371,475,l),
(376,475,l),
(405,267,l),
(283,267,l)
);
}
);
width = 709;
},
{
anchors = (
{
name = bottom;
pos = (289,0);
},
{
name = ogonek;
pos = (506,0);
},
{
name = top;
pos = (386,686);
}
);
background = {
anchors = (
{
name = bottom;
pos = (289,0);
},
{
name = ogonek;
pos = (506,0);
},
{
name = top;
pos = (386,686);
}
);
shapes = (
{
closed = 1;
nodes = (
(79,0,l),
(152,143,l),
(455,143,l),
(489,0,l),
(620,0,l),
(458,686,l),
(315,686,l),
(-41,0,l)
);
},
{
closed = 1;
nodes = (
(359,546,l),
(364,546,l),
(432,244,l),
(205,244,l)
);
}
);
};
layerId = "EDCD8328-1E0F-4D00-9253-D58387328EFF";
shapes = (
{
closed = 1;
nodes = (
(79,0,l),
(152,143,l),
(455,143,l),
(489,0,l),
(620,0,l),
(458,686,l),
(315,686,l),
(-41,0,l)
);
},
{
closed = 1;
nodes = (
(359,546,l),
(364,546,l),
(432,244,l),
(205,244,l)
);
}
);
width = 667;
}
);
note = A;
unicode = 65;
},
{
color = 4;
glyphname = AE;
kernLeft = A;
kernRight = E;
layers = (
{
anchors = (
{
name = top;
pos = (447,686);
}
);
layerId = "4BBFD287-7A5F-4332-B846-65FFBCBF0D57";
shapes = (
{
closed = 1;
nodes = (
(43,0,l),
(137,170,l),
(495,170,l),
(541,0,l),
(887,0,l),
(878,48,l),
(582,48,l),
(506,326,l),
(826,326,l),
(826,374,l),
(493,374,l),
(421,638,l),
(865,638,l),
(877,686,l),
(362,686,l),
(-19,0,l)
);
},
{
closed = 1;
nodes = (
(372,607,l),
(375,608,l),
(481,219,l),
(164,219,l)
);
}
);
width = 978;
},
{
anchors = (
{
name = top;
pos = (510,686);
}
);
layerId = "4FDE33F5-0064-4818-A7C2-FB87252213B5";
shapes = (
{
closed = 1;
nodes = (
(146,0,l),
(221,122,l),
(439,122,l),
(439,0,l),
(942,0,l),
(942,164,l),
(656,164,l),
(656,275,l),
(950,275,l),
(971,428,l),
(642,428,l),
(642,528,l),
(997,528,l),
(1039,686,l),
(368,686,l),
(-53,0,l)
);
},
{
closed = 1;
nodes = (
(428,475,l),
(433,475,l),
(433,267,l),
(311,267,l)
);
}
);
width = 1011;
},
{
anchors = (
{
name = top;
pos = (514,686);
}
);
layerId = "EDCD8328-1E0F-4D00-9253-D58387328EFF";
shapes = (
{
closed = 1;
nodes = (
(77,0,l),
(170,143,l),
(473,143,l),
(487,0,l),
(905,0,l),
(905,105,l),
(609,105,l),
(589,299,l),
(900,299,l),
(915,402,l),
(580,402,l),
(562,581,l),
(967,581,l),
(997,686,l),
(410,686,l),
(-40,0,l)
);
},
{
closed = 1;
nodes = (
(434,546,l),
(439,546,l),
(466,244,l),
(238,244,l)
);
}
);
width = 992;
}
);
note = AE;
unicode = 198;
},
{
color = 4;
glyphname = B;
kernLeft = H;
kernRight = B;
layers = (
{
layerId = "4BBFD287-7A5F-4332-B846-65FFBCBF0D57";
shapes = (
{
closed = 1;
nodes = (
(349,0,ls),
(468,0,o),
(569,91,o),
(569,207,cs),
(569,313,o),
(489,343,o),
(457,348,c),
(458,354,l),
(513,367,o),
(599,423,o),
(599,540,cs),
(599,622,o),
(535,686,o),
(440,686,cs),
(168,686,l),
(71,0,l)
);
},
{
closed = 1;
nodes = (
(171,326,l),
(392,326,ls),
(463,326,o),
(515,274,o),
(515,206,cs),
(515,118,o),
(437,48,o),
(353,48,cs),
(132,48,l)
);
},
{
closed = 1;
nodes = (
(215,638,l),
(433,638,ls),
(504,638,o),
(544,598,o),
(544,533,cs),
(544,442,o),
(471,374,o),
(390,374,cs),
(178,374,l)
);
}
);
width = 652;
},
{
layerId = "4FDE33F5-0064-4818-A7C2-FB87252213B5";
shapes = (
{
closed = 1;
nodes = (
(383,0,ls),
(518,0,o),
(616,97,o),
(616,213,cs),
(616,297,o),
(567,338,o),
(507,354,c),
(508,358,l),
(572,377,o),
(646,424,o),
(646,540,cs),
(646,622,o),
(581,686,o),
(489,686,cs),
(113,686,l),
(16,0,l)
);
},
{
closed = 1;
nodes = (
(248,277,l),
(368,277,ls),
(397,277,o),
(418,260,o),
(418,226,cs),
(418,180,o),
(394,154,o),
(352,154,cs),
(230,154,l)
);
},
{
closed = 1;
nodes = (
(285,540,l),
(400,540,ls),
(425,540,o),
(443,522,o),
(443,497,cs),
(440,452,o),
(425,423,o),
(384,423,cs),
(268,423,l)
);
}
);
width = 656;
},
{
layerId = "EDCD8328-1E0F-4D00-9253-D58387328EFF";
shapes = (
{
closed = 1;
nodes = (
(366,0,ls),
(487,0,o),
(583,82,o),
(583,210,cs),
(583,302,o),
(516,344,o),
(470,353,c),
(471,358,l),
(531,374,o),
(613,423,o),
(613,540,cs),
(613,629,o),
(543,686,o),
(448,686,cs),
(135,686,l),
(38,0,l)
);
},
{
closed = 1;
nodes = (
(201,302,l),
(379,302,ls),
(428,302,o),
(461,262,o),
(461,216,cs),
(461,142,o),
(410,94,o),
(352,94,cs),
(172,94,l)
);
},
{
closed = 1;
nodes = (
(241,592,l),
(415,592,ls),
(460,592,o),
(493,568,o),
(493,513,cs),
(493,457,o),
(444,396,o),
(390,396,cs),
(215,396,l)
);
}
);
width = 649;
}
);
note = B;
unicode = 66;
},
{
color = 4;
glyphname = C;
kernLeft = O;
kernRight = C;
layers = (
{
anchors = (
{
name = bottom;
pos = (305,0);
},
{
name = top;
pos = (398,686);
}
);
background = {
anchors = (
{
name = bottom;
pos = (305,0);
},
{
name = top;
pos = (398,686);
}
);
shapes = (
{
closed = 1;
nodes = (
(307,-10,ls),
(435,-10,o),
(561,51,o),
(590,251,c),
(537,251,l),
(513,81,o),
(411,38,o),
(306,38,cs),
(206,38,o),
(134,76,o),
(134,227,cs),
(134,254,o),
(135,284,o),
(147,368,cs),
(179,595,o),
(274,648,o),
(391,648,cs),
(489,648,o),
(566,615,o),
(566,486,cs),
(566,470,o),
(565,453,o),
(562,434,c),
(615,434,l),
(618,456,o),
(620,477,o),
(620,496,cs),
(620,651,o),
(512,696,o),
(400,696,cs),
(396,696,ls),
(251,696,o),
(128,631,o),
(92,356,cs),
(83,289,o),
(81,254,o),
(81,223,cs),
(81,37,o),
(176,-10,o),
(302,-10,cs)
);
}
);
};
layerId = "4BBFD287-7A5F-4332-B846-65FFBCBF0D57";
shapes = (
{
closed = 1;
nodes = (
(307,-10,ls),
(435,-10,o),
(561,51,o),
(590,251,c),
(537,251,l),
(513,81,o),
(411,38,o),
(306,38,cs),
(206,38,o),
(134,76,o),
(134,227,cs),
(134,254,o),
(135,284,o),
(147,368,cs),
(179,595,o),
(274,648,o),
(391,648,cs),
(489,648,o),
(566,615,o),
(566,486,cs),
(566,470,o),
(565,453,o),
(562,434,c),
(615,434,l),
(618,456,o),
(620,477,o),
(620,496,cs),
(620,651,o),
(512,696,o),
(400,696,cs),
(396,696,ls),
(251,696,o),
(128,631,o),
(92,356,cs),
(83,289,o),
(81,254,o),
(81,223,cs),
(81,37,o),
(176,-10,o),
(302,-10,cs)
);
}
);
width = 661;
},
{
anchors = (
{
name = bottom;
pos = (308,0);
},
{
name = top;
pos = (393,686);
}
);
background = {
anchors = (
{
name = bottom;
pos = (308,0);
},
{
name = top;
pos = (393,686);
}
);
shapes = (
{
closed = 1;
nodes = (
(336,-10,ls),
(516,-10,o),
(631,100,o),
(658,280,c),
(470,280,l),
(454,182,o),
(421,146,o),
(337,146,cs),
(281,146,o),
(250,181,o),
(250,230,cs),
(250,249,o),
(254,275,o),
(277,438,cs),
(286,502,o),
(329,538,o),
(391,538,cs),
(449,538,o),
(484,509,o),
(484,457,cs),
(484,445,o),
(483,433,o),
(478,405,c),
(675,405,l),
(678,424,o),
(679,441,o),
(679,460,cs),
(679,616,o),
(560,694,o),
(413,694,cs),
(385,694,ls),
(186,694,o),
(71,559,o),
(46,394,cs),
(36,329,o),
(29,272,o),
(29,248,cs),
(29,87,o),
(146,-10,o),
(307,-10,cs)
);
}
);
};
layerId = "4FDE33F5-0064-4818-A7C2-FB87252213B5";
shapes = (
{
closed = 1;
nodes = (
(336,-10,ls),
(516,-10,o),
(631,100,o),
(658,280,c),
(470,280,l),
(454,182,o),
(421,146,o),
(337,146,cs),
(281,146,o),
(250,181,o),
(250,230,cs),
(250,249,o),
(254,275,o),
(277,438,cs),
(286,502,o),
(329,538,o),
(391,538,cs),
(449,538,o),
(484,509,o),
(484,457,cs),
(484,445,o),
(483,433,o),
(478,405,c),
(675,405,l),
(678,424,o),
(679,441,o),
(679,460,cs),
(679,616,o),
(560,694,o),
(413,694,cs),
(385,694,ls),
(186,694,o),
(71,559,o),
(46,394,cs),
(36,329,o),
(29,272,o),
(29,248,cs),
(29,87,o),
(146,-10,o),
(307,-10,cs)
);
}
);
width = 684;
},
{
anchors = (
{
name = bottom;
pos = (299,0);
},
{
name = top;
pos = (382,686);
}
);
background = {
anchors = (
{
name = bottom;
pos = (299,0);
},
{
name = top;
pos = (382,686);
}
);
shapes = (
{
closed = 1;
nodes = (
(306,-10,ls),
(467,-10,o),
(587,82,o),
(613,265,c),
(498,265,l),
(481,148,o),
(413,95,o),
(318,95,cs),
(232,95,o),
(174,142,o),
(174,241,cs),
(174,265,o),
(177,290,o),
(191,389,cs),
(210,526,o),
(281,591,o),
(386,591,cs),
(464,591,o),
(518,549,o),
(518,462,cs),
(517,446,o),
(516,434,o),
(514,419,c),
(635,419,l),
(638,438,o),
(639,456,o),
(639,473,cs),
(639,621,o),
(536,696,o),
(401,696,cs),
(391,696,ls),
(219,696,o),
(93,592,o),
(65,389,cs),
(57,331,o),
(47,264,o),
(47,236,cs),
(47,78,o),
(160,-10,o),
(300,-10,cs)
);
}
);
};
layerId = "EDCD8328-1E0F-4D00-9253-D58387328EFF";
shapes = (
{
closed = 1;
nodes = (
(306,-10,ls),
(467,-10,o),
(587,82,o),
(613,265,c),
(498,265,l),
(481,148,o),
(413,95,o),
(318,95,cs),
(232,95,o),
(174,142,o),
(174,241,cs),
(174,265,o),
(177,290,o),
(191,389,cs),
(210,526,o),
(281,591,o),
(386,591,cs),
(464,591,o),
(518,549,o),
(518,462,cs),
(517,446,o),
(516,434,o),
(514,419,c),
(635,419,l),
(638,438,o),
(639,456,o),
(639,473,cs),
(639,621,o),
(536,696,o),
(401,696,cs),
(391,696,ls),
(219,696,o),
(93,592,o),
(65,389,cs),
(57,331,o),
(47,264,o),
(47,236,cs),
(47,78,o),
(160,-10,o),
(300,-10,cs)
);
}
);
width = 672;
}
);
note = C;
unicode = 67;
},
{
color = 4;
glyphname = D;
kernLeft = H;
kernRight = O;
layers = (
{
anchors = (
{
name = center;
pos = (188,348);
},
{
name = top;
pos = (381,686);
}
);
background = {
shapes = (
{
closed = 1;
nodes = (
(291,0,ls),
(445,0,o),
(571,74,o),
(604,331,cs),
(612,391,o),
(614,421,o),
(614,450,cs),
(614,632,o),
(515,686,o),
(388,686,cs),
(168,686,l),
(71,0,l)
);
},
{
closed = 1;
nodes = (
(215,638,l),
(381,638,ls),
(488,638,o),
(561,592,o),
(561,441,cs),
(561,418,o),
(559,393,o),
(549,322,cs),
(518,104,o),
(415,48,o),
(298,48,cs),
(132,48,l)
);
}
);
};
layerId = "4BBFD287-7A5F-4332-B846-65FFBCBF0D57";
shapes = (
{
closed = 1;
nodes = (
(291,0,ls),
(445,0,o),
(571,71,o),
(604,328,cs),
(612,388,o),
(614,421,o),
(614,450,cs),
(614,632,o),
(514,686,o),
(387,686,cs),
(168,686,l),
(71,0,l)
);
},
{
closed = 1;
nodes = (
(215,638,l),
(381,638,ls),
(488,638,o),
(561,592,o),
(561,441,cs),
(561,418,o),
(560,393,o),
(551,322,cs),
(525,106,o),
(415,48,o),
(298,48,cs),
(132,48,l)
);
}
);
width = 671;
},
{
anchors = (
{
name = center;
pos = (201,348);
},
{
name = top;
pos = (383,686);
}
);
background = {
shapes = (
{
pos = (-21,0);
ref = O;
}
);
};
layerId = "4FDE33F5-0064-4818-A7C2-FB87252213B5";
shapes = (
{
closed = 1;
nodes = (
(325,0,ls),
(520,0,o),
(642,127,o),
(667,293,cs),
(680,378,o),
(683,414,o),
(683,438,cs),
(683,584,o),
(574,686,o),
(422,686,cs),
(113,686,l),
(16,0,l)
);
},
{
closed = 1;
nodes = (
(302,530,l),
(380,530,ls),
(431,530,o),
(460,497,o),
(460,448,cs),
(460,413,o),
(447,320,o),
(437,259,cs),
(428,203,o),
(396,159,o),
(328,159,cs),
(250,159,l)
);
}
);
width = 697;
},
{
anchors = (
{
name = center;
pos = (184,348);
},
{
name = top;
pos = (384,686);
}
);
layerId = "EDCD8328-1E0F-4D00-9253-D58387328EFF";
shapes = (
{
closed = 1;
nodes = (
(279,0,ls),
(474,0,o),
(597,99,o),
(624,302,cs),
(637,405,o),
(639,419,o),
(639,442,cs),
(639,601,o),
(533,686,o),
(390,686,cs),
(135,686,l),
(38,0,l)
);
},
{
closed = 1;
nodes = (
(244,581,l),
(368,581,ls),
(453,581,o),
(512,535,o),
(512,440,cs),
(512,411,o),
(507,382,o),
(495,291,cs),
(476,162,o),
(399,105,o),
(302,105,cs),
(178,105,l)
);
}
);
width = 681;
}
);
note = D;
unicode = 68;
},
{
color = 4;
glyphname = E;
kernLeft = H;
kernRight = E;
layers = (
{
anchors = (
{
name = bottom;
pos = (297,0);
},
{
name = ogonek;
pos = (436,0);
},
{
name = top;
pos = (373,686);
}
);
background = {
anchors = (
{
name = bottom;
pos = (297,0);
},
{
name = ogonek;
pos = (436,0);
},
{
name = top;
pos = (378,686);
}
);
shapes = (
{
closed = 1;
nodes = (
(501,0,l),
(501,48,l),
(132,48,l),
(171,326,l),
(490,326,l),
(497,374,l),
(178,374,l),
(215,638,l),
(579,638,l),
(592,686,l),
(168,686,l),
(71,0,l)
);
}
);
};
layerId = "4BBFD287-7A5F-4332-B846-65FFBCBF0D57";
shapes = (
{
closed = 1;
nodes = (
(501,0,l),
(501,48,l),
(132,48,l),
(171,326,l),
(490,326,l),
(497,374,l),
(178,374,l),
(215,638,l),
(579,638,l),
(592,686,l),
(168,686,l),
(71,0,l)
);
}
);
width = 592;
},
{
anchors = (
{
name = bottom;
pos = (277,0);
},
{
name = ogonek;
pos = (453,0);
},
{
name = top;
pos = (363,686);
}
);
background = {
anchors = (
{
name = bottom;
pos = (277,0);
},
{
name = ogonek;
pos = (453,0);
},
{
name = top;
pos = (363,686);
}
);
shapes = (
{
closed = 1;
nodes = (
(531,0,l),
(530,160,l),
(245,160,l),
(261,275,l),
(539,275,l),
(560,428,l),
(283,428,l),
(297,526,l),
(586,526,l),
(628,686,l),
(113,686,l),
(16,0,l)
);
}
);
};
layerId = "4FDE33F5-0064-4818-A7C2-FB87252213B5";
shapes = (
{
closed = 1;
nodes = (
(531,0,l),
(530,160,l),
(245,160,l),
(261,275,l),
(539,275,l),
(560,428,l),
(283,428,l),
(297,526,l),
(586,526,l),
(628,686,l),
(113,686,l),
(16,0,l)
);
}
);
width = 600;
},
{
anchors = (
{
name = bottom;
pos = (285,0);
},
{
name = ogonek;
pos = (455,0);
},
{
name = top;
pos = (369,686);
}
);
background = {
anchors = (
{
name = bottom;
pos = (285,0);
},
{
name = ogonek;
pos = (455,0);
},
{
name = top;
pos = (369,686);
}
);
shapes = (
{
closed = 1;
nodes = (
(508,0,l),
(507,96,l),
(175,96,l),
(204,303,l),
(504,303,l),
(518,399,l),
(218,399,l),
(245,590,l),
(572,590,l),
(600,686,l),
(135,686,l),
(38,0,l)
);
}
);
};
layerId = "EDCD8328-1E0F-4D00-9253-D58387328EFF";
shapes = (
{
closed = 1;
nodes = (
(508,0,l),
(507,96,l),
(175,96,l),
(204,303,l),
(504,303,l),
(518,399,l),
(218,399,l),
(245,590,l),
(572,590,l),
(600,686,l),
(135,686,l),
(38,0,l)
);
}
);
width = 595;
}
);
note = E;
unicode = 69;
},
{
color = 1;
glyphname = Eogonek;
kernLeft = H;
kernRight = E;
layers = (
{
background = {
shapes = (
{
closed = 1;
nodes = (
(559,638,l),
(572,686,l),
(148,686,l),
(51,0,l),
(404,0,l),
(372,-19,o),
(339,-44,o),
(339,-83,cs),
(339,-129,o),
(383,-143,o),
(426,-143,cs),
(455,-143,o),
(486,-135,o),
(514,-119,c),
(505,-86,l),
(483,-93,o),
(460,-100,o),
(436,-100,cs),
(417,-100,o),
(397,-93,o),
(397,-67,cs),
(397,-36,o),
(426,-17,o),
(450,-2,c),
(454,0,l),
(481,0,l),
(481,48,l),
(112,48,l),
(151,326,l),
(470,326,l),
(477,374,l),
(158,374,l),
(195,638,l)
);
}
);
};
layerId = "4BBFD287-7A5F-4332-B846-65FFBCBF0D57";
shapes = (
{
ref = E;
},
{
pos = (209,0);
ref = ogonekcomb;
}
);
width = 592;
},
{
background = {
shapes = (
{
closed = 1;
nodes = (
(586,528,l),
(628,686,l),
(113,686,l),
(16,0,l),
(440,0,l),
(408,-19,o),
(375,-44,o),
(375,-83,cs),
(375,-128,o),
(419,-143,o),
(462,-143,cs),
(498,-143,o),
(535,-135,o),
(570,-119,c),
(563,-76,l),
(540,-84,o),
(517,-90,o),
(494,-90,cs),
(475,-90,o),
(454,-83,o),
(454,-62,cs),
(454,-31,o),
(487,-13,o),
(510,0,c),
(531,0,l),
(531,164,l),
(245,164,l),
(261,275,l),
(539,275,l),
(560,428,l),
(282,428,l),
(297,528,l)
);
}
);
};
layerId = "4FDE33F5-0064-4818-A7C2-FB87252213B5";
shapes = (
{
ref = E;
},
{
pos = (206,0);
ref = ogonekcomb;
}
);
width = 600;
},
{
layerId = "EDCD8328-1E0F-4D00-9253-D58387328EFF";
shapes = (
{
ref = E;
},
{
pos = (223,0);
ref = ogonekcomb;
}
);
width = 595;
}
);
note = Eogonek;
unicode = 280;
},
{
color = 4;
glyphname = Schwa;
kernLeft = Schwa;
kernRight = O;
layers = (
{
layerId = "4BBFD287-7A5F-4332-B846-65FFBCBF0D57";
shapes = (
{
closed = 1;
nodes = (
(327,-10,ls),
(472,-10,o),
(591,50,o),
(630,322,cs),
(639,385,o),
(642,417,o),
(642,454,cs),
(642,640,o),
(535,696,o),
(408,696,cs),
(401,696,ls),
(257,696,o),
(153,616,o),
(133,472,cs),
(131,460,l),
(181,460,l),
(183,469,ls),
(199,588,o),
(284,648,o),
(401,648,cs),
(505,648,o),
(589,608,o),
(589,455,cs),
(589,415,o),
(586,388,o),
(574,310,cs),
(539,84,o),
(445,38,o),
(328,38,cs),
(231,38,o),
(153,74,o),
(153,226,cs),
(153,252,o),
(156,282,o),
(163,335,c),
(109,335,l),
(102,284,o),
(99,253,o),
(99,221,cs),
(99,37,o),
(203,-10,o),
(324,-10,cs)
);
},
{
closed = 1;
nodes = (
(592,287,l),
(599,335,l),
(123,335,l),
(116,287,l)
);
}
);
width = 699;
},
{
background = {
shapes = (
{
closed = 1;
nodes = (
(345,-10,ls),
(532,-10,o),
(662,125,o),
(687,290,cs),
(697,355,o),
(704,411,o),
(704,436,cs),
(704,582,o),
(596,694,o),
(444,694,cs),
(388,694,ls),
(202,694,o),
(71,559,o),
(46,394,cs),
(36,329,o),
(29,272,o),
(29,248,cs),
(29,102,o),
(137,-10,o),
(289,-10,cs)
);
},
{
closed = 1;
nodes = (
(286,146,o),
(250,180,o),
(250,230,cs),
(250,249,o),
(254,275,o),
(277,438,cs),
(286,502,o),
(329,538,o),
(391,538,cs),
(447,538,o),
(483,504,o),
(483,454,cs),
(483,435,o),
(479,409,o),
(456,246,cs),
(447,182,o),
(404,146,o),
(342,146,cs)
);
}
);
};
layerId = "4FDE33F5-0064-4818-A7C2-FB87252213B5";
shapes = (
{
closed = 1;
nodes = (
(345,-10,ls),
(532,-10,o),
(662,125,o),
(687,290,cs),
(697,355,o),
(704,412,o),
(704,436,cs),
(704,582,o),
(596,694,o),
(438,694,cs),
(380,694,ls),
(245,694,o),
(89,602,o),
(64,460,cs),
(60,437,l),
(276,437,l),
(278,451,ls),
(287,515,o),
(335,538,o),
(391,538,cs),
(449,538,o),
(483,499,o),
(483,454,cs),
(483,447,o),
(481,441,o),
(452,218,cs),
(444,157,o),
(396,130,o),
(335,130,cs),
(283,130,o),
(250,156,o),
(250,204,cs),
(250,214,o),
(254,241,o),
(271,365,c),
(45,365,l),
(32,275,o),
(29,251,o),
(29,230,cs),
(29,87,o),
(147,-10,o),
(289,-10,cs)
);
},
{
closed = 1;
nodes = (
(635,220,l),
(655,365,l),
(99,365,l),
(79,220,l)
);
}
);
width = 719;
},
{
layerId = "EDCD8328-1E0F-4D00-9253-D58387328EFF";
shapes = (
{
closed = 1;
nodes = (
(318,-10,ls),
(483,-10,o),
(615,95,o),
(643,297,cs),
(651,355,o),
(661,422,o),
(661,450,cs),
(661,608,o),
(550,696,o),
(404,696,cs),
(396,696,ls),
(253,696,o),
(110,609,o),
(90,450,cs),
(88,434,l),
(210,434,l),
(211,444,ls),
(221,544,o),
(301,591,o),
(390,591,cs),
(476,591,o),
(534,544,o),
(534,445,cs),
(534,421,o),
(531,396,o),
(517,297,cs),
(498,160,o),
(427,95,o),
(322,95,cs),
(229,95,o),
(182,138,o),
(182,232,cs),
(182,249,o),
(185,273,o),
(195,341,c),
(70,341,l),
(61,279,o),
(58,254,o),
(58,229,cs),
(58,71,o),
(160,-10,o),
(308,-10,cs)
);
},
{
closed = 1;
nodes = (
(611,236,l),
(626,341,l),
(91,341,l),
(76,236,l)
);
}
);
width = 702;
}
);
metricRight = O;
unicode = 399;
},
{
color = 4;
glyphname = F;
kernLeft = H;
kernRight = F;
layers = (
{
layerId = "4BBFD287-7A5F-4332-B846-65FFBCBF0D57";
shapes = (
{
closed = 1;
nodes = (
(125,0,l),
(171,326,l),
(464,326,l),
(471,374,l),
(178,374,l),
(215,638,l),
(561,638,l),
(574,686,l),
(168,686,l),
(71,0,l)
);
}
);
width = 552;
},
{
layerId = "4FDE33F5-0064-4818-A7C2-FB87252213B5";
shapes = (
{
closed = 1;
nodes = (
(221,0,l),
(258,257,l),
(509,257,l),
(530,410,l),
(279,410,l),
(296,526,l),
(567,526,l),
(609,686,l),
(113,686,l),
(16,0,l)
);
}
);
width = 563;
},
{
layerId = "EDCD8328-1E0F-4D00-9253-D58387328EFF";
shapes = (
{
closed = 1;
nodes = (
(161,0,l),
(202,292,l),
(475,292,l),
(490,388,l),
(216,388,l),
(244,590,l),
(553,590,l),
(582,686,l),
(135,686,l),
(38,0,l)
);
}
);
width = 557;
}
);
note = F;
unicode = 70;
},
{
color = 4;
glyphname = Fhook;
kernLeft = j;
kernRight = F;
layers = (
{
layerId = "4BBFD287-7A5F-4332-B846-65FFBCBF0D57";
shapes = (
{
closed = 1;
nodes = (
(49,-186,o),
(98,-152,o),
(109,-75,cs),
(166,326,l),
(459,326,l),
(466,374,l),
(173,374,l),
(210,638,l),
(556,638,l),
(569,686,l),
(163,686,l),
(56,-73,ls),
(48,-132,o),
(16,-140,o),
(-10,-140,cs),
(-25,-140,o),
(-54,-131,o),
(-69,-124,c),
(-76,-169,l),
(-60,-179,o),
(-35,-186,o),
(-10,-186,cs)
);
}
);
width = 547;
},
{
layerId = "4FDE33F5-0064-4818-A7C2-FB87252213B5";
shapes = (
{
closed = 1;
nodes = (
(115,-187,o),
(201,-134,o),
(217,-26,cs),
(258,257,l),
(509,257,l),
(530,410,l),
(279,410,l),
(296,526,l),
(567,526,l),
(609,686,l),
(113,686,l),
(16,0,ls),
(8,-55,o),
(-21,-65,o),
(-48,-65,cs),
(-63,-65,o),
(-93,-60,o),
(-108,-53,c),
(-124,-165,l),
(-92,-178,o),
(-29,-187,o),
(6,-187,cs)
);
}
);
width = 563;
},
{
layerId = "EDCD8328-1E0F-4D00-9253-D58387328EFF";
shapes = (
{
closed = 1;
nodes = (
(88,-186,o),
(143,-134,o),
(159,-17,cs),
(202,292,l),
(475,292,l),
(490,388,l),
(216,388,l),
(244,590,l),
(553,590,l),
(582,686,l),
(135,686,l),
(33,-32,ls),
(25,-91,o),
(-4,-100,o),
(-31,-100,cs),
(-46,-100,o),
(-75,-93,o),
(-90,-86,c),
(-100,-167,l),
(-79,-179,o),
(-37,-186,o),
(-7,-186,cs)
);
}
);
width = 557;
}
);
unicode = 401;
},
{
color = 4;
glyphname = G;
kernLeft = O;
kernRight = G;
layers = (
{
anchors = (
{
name = bottom;
pos = (319,0);
},
{
name = top;
pos = (399,686);
}
);
background = {
anchors = (
{
name = bottom;
pos = (319,0);
},
{
name = top;
pos = (404,686);
}
);
shapes = (
{
closed = 1;
nodes = (
(314,-10,ls),
(390,-10,o),
(470,18,o),
(520,92,c),
(523,0,l),
(560,0,l),
(560,0,o),
(561,48,o),
(571,119,cs),
(603,350,l),
(321,350,l),
(315,303,l),
(547,303,l),
(540,251,ls),
(517,79,o),
(408,38,o),
(316,38,cs),
(210,38,o),
(134,76,o),
(134,227,cs),
(134,254,o),
(135,284,o),
(147,368,cs),
(179,595,o),
(274,648,o),
(391,648,cs),
(485,648,o),
(567,616,o),
(567,494,cs),
(567,480,o),
(566,465,o),
(564,449,c),
(617,449,l),
(620,469,o),
(621,487,o),
(621,504,cs),
(621,649,o),
(514,696,o),
(402,696,cs),
(396,696,ls),
(251,696,o),
(128,631,o),
(92,356,cs),
(83,289,o),
(81,254,o),
(81,223,cs),
(81,39,o),
(179,-10,o),
(309,-10,cs)
);
}
);
};
layerId = "4BBFD287-7A5F-4332-B846-65FFBCBF0D57";
shapes = (
{
closed = 1;
nodes = (
(314,-10,ls),
(390,-10,o),
(470,18,o),
(520,92,c),
(523,0,l),
(560,0,l),
(560,0,o),
(561,48,o),
(571,119,cs),
(603,350,l),
(321,350,l),
(315,303,l),
(547,303,l),
(540,251,ls),
(517,79,o),
(408,38,o),
(316,38,cs),
(210,38,o),
(134,76,o),
(134,227,cs),
(134,254,o),
(135,284,o),
(147,368,cs),
(179,595,o),
(274,648,o),
(391,648,cs),
(485,648,o),
(567,616,o),
(567,494,cs),
(567,480,o),
(566,465,o),
(564,449,c),
(617,449,l),
(620,469,o),
(621,487,o),
(621,504,cs),
(621,649,o),
(514,696,o),
(402,696,cs),
(396,696,ls),
(251,696,o),
(128,631,o),
(92,356,cs),
(83,289,o),
(81,254,o),
(81,223,cs),
(81,39,o),
(179,-10,o),
(309,-10,cs)
);
}
);
width = 674;
},
{
anchors = (
{
name = bottom;
pos = (309,0);
},
{
name = top;
pos = (393,686);
}
);
background = {
anchors = (
{
name = bottom;
pos = (309,0);
},
{
name = top;
pos = (393,686);
}
);
shapes = (
{
closed = 1;
nodes = (
(282,-10,ls),
(382,-10,o),
(443,25,o),
(493,73,c),
(510,0,l),
(622,0,l),
(622,29,o),
(626,74,o),
(636,144,cs),
(669,384,l),
(359,384,l),
(340,248,l),
(456,248,l),
(454,236,ls),
(443,171,o),
(405,146,o),
(337,146,cs),
(281,146,o),
(250,181,o),
(250,230,cs),
(250,249,o),
(254,275,o),
(277,438,cs),
(286,502,o),
(329,538,o),
(391,538,cs),
(449,538,o),
(484,509,o),
(484,459,cs),
(484,446,o),
(484,442,o),
(483,439,c),
(677,439,l),
(679,457,o),
(679,466,o),
(679,479,cs),
(679,607,o),
(560,694,o),
(413,694,cs),
(385,694,ls),
(186,694,o),
(71,558,o),
(46,394,cs),
(36,329,o),
(29,272,o),
(29,248,cs),
(29,87,o),
(122,-10,o),
(272,-10,cs)
);
}
);
};
layerId = "4FDE33F5-0064-4818-A7C2-FB87252213B5";
shapes = (
{
closed = 1;
nodes = (
(282,-10,ls),
(382,-10,o),
(443,25,o),
(493,73,c),
(510,0,l),
(622,0,l),
(622,29,o),
(626,74,o),
(636,144,cs),
(669,384,l),
(359,384,l),
(340,248,l),
(456,248,l),
(454,236,ls),
(443,171,o),
(405,146,o),
(337,146,cs),
(281,146,o),
(250,181,o),
(250,230,cs),
(250,249,o),
(254,275,o),
(277,438,cs),
(286,502,o),
(329,538,o),
(391,538,cs),
(449,538,o),
(484,509,o),
(484,459,cs),
(484,446,o),
(484,442,o),
(483,439,c),
(677,439,l),
(679,457,o),
(679,466,o),
(679,479,cs),
(679,607,o),
(560,694,o),
(413,694,cs),
(385,694,ls),
(186,694,o),
(71,558,o),
(46,394,cs),
(36,329,o),
(29,272,o),
(29,248,cs),
(29,87,o),
(122,-10,o),
(272,-10,cs)
);
}
);
width = 699;
},
{
anchors = (
{
name = bottom;
pos = (307,0);
},
{
name = top;
pos = (395,686);
}
);
background = {
anchors = (
{
name = bottom;
pos = (307,0);
},
{
name = top;
pos = (395,686);
}
);
shapes = (
{
closed = 1;
nodes = (
(297,-10,ls),
(382,-10,o),
(447,22,o),
(499,80,c),
(509,0,l),
(580,0,l),
(580,35,o),
(584,78,o),
(592,132,c),
(625,367,l),
(331,367,l),
(317,268,l),
(493,268,l),
(491,250,ls),
(479,139,o),
(411,95,o),
(318,95,cs),
(232,95,o),
(174,142,o),
(174,241,cs),
(174,265,o),
(177,290,o),
(191,389,cs),
(210,526,o),
(281,591,o),
(386,591,cs),
(460,591,o),
(518,557,o),
(518,473,cs),
(518,464,o),
(517,454,o),
(516,444,c),
(636,444,l),
(638,457,o),
(639,472,o),
(639,487,cs),
(639,621,o),
(536,696,o),
(408,696,cs),
(398,696,ls),
(219,696,o),
(92,588,o),
(65,389,cs),
(57,331,o),
(47,264,o),
(47,236,cs),
(47,79,o),
(148,-10,o),
(291,-10,cs)
);
}
);
};
layerId = "EDCD8328-1E0F-4D00-9253-D58387328EFF";
shapes = (
{
closed = 1;
nodes = (
(297,-10,ls),
(382,-10,o),
(447,22,o),
(499,80,c),
(509,0,l),
(580,0,l),
(580,35,o),
(584,78,o),
(592,132,c),
(625,367,l),
(331,367,l),
(317,268,l),
(493,268,l),
(491,250,ls),
(479,139,o),
(411,95,o),
(318,95,cs),
(232,95,o),
(174,142,o),
(174,241,cs),
(174,265,o),
(177,290,o),
(191,389,cs),
(210,526,o),
(281,591,o),
(386,591,cs),
(460,591,o),
(518,557,o),
(518,473,cs),
(518,464,o),
(517,454,o),
(516,444,c),
(636,444,l),
(638,457,o),
(639,472,o),
(639,487,cs),
(639,621,o),
(536,696,o),
(408,696,cs),
(398,696,ls),
(219,696,o),
(92,588,o),
(65,389,cs),
(57,331,o),
(47,264,o),
(47,236,cs),
(47,79,o),
(148,-10,o),
(291,-10,cs)
);
}
);
width = 686;
}
);
note = G;
unicode = 71;
},
{
color = 4;
glyphname = Gstroke;
layers = (
{
background = {
shapes = (
{
closed = 1;
nodes = (
(301,-10,ls),
(384,-10,o),
(468,20,o),
(519,92,c),
(522,0,l),
(559,0,l),
(559,0,o),
(560,48,o),
(570,119,cs),
(602,350,l),
(320,350,l),
(313,303,l),
(545,303,l),
(538,251,ls),
(514,79,o),
(409,38,o),
(304,38,cs),
(187,38,o),
(108,91,o),
(139,318,cs),
(147,368,ls),
(178,595,o),
(273,648,o),
(390,648,cs),
(492,648,o),
(585,608,o),
(563,449,c),
(616,449,l),
(643,642,o),
(532,696,o),
(405,696,cs),
(400,696,ls),
(254,696,o),
(129,631,o),
(91,356,cs),
(87,330,ls),
(49,55,o),
(150,-10,o),
(296,-10,cs)
);
},
{
closed = 1;
nodes = (
(637,170,l),
(643,212,l),
(353,212,l),
(347,170,l)
);
}
);
};
layerId = "4BBFD287-7A5F-4332-B846-65FFBCBF0D57";
shapes = (
{
closed = 1;
nodes = (
(314,-10,ls),
(390,-10,o),
(470,18,o),
(520,92,c),
(523,0,l),
(560,0,l),
(560,0,o),
(561,48,o),
(571,119,cs),
(603,350,l),
(321,350,l),
(315,303,l),
(547,303,l),
(540,251,ls),
(517,79,o),
(408,38,o),
(316,38,cs),
(210,38,o),
(134,76,o),
(134,227,cs),
(134,254,o),
(135,284,o),
(147,368,cs),
(179,595,o),
(274,648,o),
(391,648,cs),
(485,648,o),
(567,616,o),
(567,494,cs),
(567,480,o),
(566,465,o),
(564,449,c),
(617,449,l),
(620,469,o),
(621,487,o),
(621,504,cs),
(621,649,o),
(514,696,o),
(402,696,cs),
(396,696,ls),
(251,696,o),
(128,631,o),
(92,356,cs),
(83,289,o),
(81,254,o),
(81,223,cs),
(81,39,o),
(179,-10,o),
(309,-10,cs)
);
},
{
closed = 1;
nodes = (
(637,170,l),
(643,212,l),
(353,212,l),
(347,170,l)
);
}
);
width = 674;
},
{
background = {
shapes = (
{
closed = 1;
nodes = (
(285,-10,ls),
(364,-10,o),
(448,22,o),
(499,84,c),
(508,0,l),
(578,0,l),
(579,23,o),
(581,63,o),
(590,130,cs),
(623,365,l),
(328,365,l),
(316,279,l),
(497,279,l),
(492,244,ls),
(475,121,o),
(398,86,o),
(310,86,cs),
(218,86,o),
(159,135,o),
(180,286,cs),
(196,400,ls),
(217,551,o),
(290,600,o),
(382,600,cs),
(469,600,o),
(535,562,o),
(518,445,c),
(634,445,l),
(659,618,o),
(548,696,o),
(407,696,cs),
(392,696,ls),
(228,696,o),
(94,600,o),
(62,374,cs),
(54,312,ls),
(22,86,o),
(123,-10,o),
(278,-10,cs)
);
},
{
closed = 1;
nodes = (
(654,157,l),
(663,225,l),
(346,225,l),
(337,157,l)
);
}
);
};
layerId = "EDCD8328-1E0F-4D00-9253-D58387328EFF";
shapes = (
{
closed = 1;
nodes = (
(297,-10,ls),
(382,-10,o),
(447,22,o),
(499,80,c),
(509,0,l),
(580,0,l),
(580,35,o),
(584,78,o),
(592,132,c),
(625,367,l),
(331,367,l),
(317,268,l),
(493,268,l),
(491,250,ls),
(479,139,o),
(411,95,o),
(318,95,cs),
(232,95,o),
(174,142,o),
(174,241,cs),
(174,265,o),
(177,290,o),
(191,389,cs),
(210,526,o),
(281,591,o),
(386,591,cs),
(460,591,o),
(518,557,o),
(518,473,cs),
(518,464,o),
(517,454,o),
(516,444,c),
(636,444,l),
(638,457,o),
(639,472,o),
(639,487,cs),
(639,621,o),
(536,696,o),
(408,696,cs),
(398,696,ls),
(219,696,o),
(92,588,o),
(65,389,cs),
(57,331,o),
(47,264,o),
(47,236,cs),
(47,79,o),
(148,-10,o),
(291,-10,cs)
);
},
{
closed = 1;
nodes = (
(654,157,l),
(663,225,l),
(346,225,l),
(337,157,l)
);
}
);
width = 686;
},
{
background = {
shapes = (
{
closed = 1;
nodes = (
(285,-10,ls),
(359,-10,o),
(444,25,o),
(493,73,c),
(511,0,l),
(623,0,l),
(625,51,o),
(627,82,o),
(636,144,cs),
(670,384,l),
(360,384,l),
(345,278,l),
(461,278,l),
(452,215,ls),
(443,152,o),
(403,126,o),
(335,126,cs),
(274,126,o),
(240,170,o),
(248,226,cs),
(278,440,ls),
(286,496,o),
(332,540,o),
(393,540,cs),
(461,540,o),
(493,504,o),
(483,439,c),
(677,439,l),
(699,589,o),
(593,696,o),
(436,696,cs),
(408,696,ls),
(220,696,o),
(70,562,o),
(46,396,cs),
(32,290,ls),
(8,124,o),
(110,-10,o),
(275,-10,cs)
);
},
{
closed = 1;
nodes = (
(681,176,l),
(690,244,l),
(368,244,l),
(359,176,l)
);
}
);
};
layerId = "4FDE33F5-0064-4818-A7C2-FB87252213B5";
shapes = (
{
closed = 1;
nodes = (
(282,-10,ls),
(382,-10,o),
(443,25,o),
(493,73,c),
(510,0,l),
(622,0,l),
(622,29,o),
(626,74,o),
(636,144,cs),
(669,384,l),
(359,384,l),
(345,278,l),
(461,278,l),
(452,216,ls),
(442,150,o),
(403,126,o),
(335,126,cs),
(279,126,o),
(248,161,o),
(248,210,cs),
(248,229,o),
(254,275,o),
(277,438,cs),
(286,502,o),
(329,538,o),
(391,538,cs),
(449,538,o),
(484,509,o),
(484,459,cs),
(484,446,o),
(484,442,o),
(483,439,c),
(677,439,l),
(679,457,o),
(679,466,o),
(679,479,cs),
(679,607,o),
(560,694,o),
(413,694,cs),
(385,694,ls),
(186,694,o),
(71,558,o),
(46,394,cs),
(36,329,o),
(29,272,o),
(29,248,cs),
(29,87,o),
(122,-10,o),
(272,-10,cs)
);
},
{
closed = 1;
nodes = (
(681,176,l),
(690,244,l),
(368,244,l),
(359,176,l)
);
}
);
width = 699;
}
);
unicode = 484;
},
{
color = 4;
glyphname = H;
kernLeft = H;
kernRight = H;
layers = (
{
anchors = (
{
name = bottom;
pos = (314,0);
},
{
name = center;
pos = (386,538);
},
{
name = top;
pos = (397,686);
}
);
background = {
anchors = (
{
name = bottom;
pos = (314,0);
},
{
name = center;
pos = (386,538);
},
{
name = top;
pos = (410,686);
}
);
shapes = (
{
closed = 1;
nodes = (
(125,0,l),
(171,326,l),
(542,326,l),
(496,0,l),
(550,0,l),
(647,686,l),
(593,686,l),
(549,374,l),
(178,374,l),
(222,686,l),
(168,686,l),
(71,0,l)
);
}
);
};
layerId = "4BBFD287-7A5F-4332-B846-65FFBCBF0D57";
shapes = (
{
closed = 1;
nodes = (
(125,0,l),
(171,326,l),
(542,326,l),
(496,0,l),
(550,0,l),
(647,686,l),
(593,686,l),
(549,374,l),
(178,374,l),
(222,686,l),
(168,686,l),
(71,0,l)
);
}
);
width = 693;
},
{
anchors = (
{
name = bottom;
pos = (307,0);
},
{
name = center;
pos = (384,547);
},
{
name = top;
pos = (401,686);
}
);
background = {
anchors = (
{
name = bottom;
pos = (307,0);
},
{
name = center;
pos = (384,547);
},
{
name = top;
pos = (401,686);
}
);
shapes = (
{
closed = 1;
nodes = (
(227,0,l),
(265,267,l),
(428,267,l),
(391,0,l),
(600,0,l),
(697,686,l),
(488,686,l),
(452,433,l),
(288,433,l),
(324,686,l),
(113,686,l),
(16,0,l)
);
}
);
};
layerId = "4FDE33F5-0064-4818-A7C2-FB87252213B5";
shapes = (
{
closed = 1;
nodes = (
(227,0,l),
(265,267,l),
(428,267,l),
(391,0,l),
(600,0,l),
(697,686,l),
(488,686,l),
(452,433,l),
(288,433,l),
(324,686,l),
(113,686,l),
(16,0,l)
);
}
);
width = 698;
},
{
anchors = (
{
name = bottom;
pos = (305,0);
},
{
name = center;
pos = (375,538);
},
{
name = top;
pos = (394,686);
}
);
background = {
anchors = (
{
name = bottom;
pos = (305,0);
},
{
name = center;
pos = (375,538);
},
{
name = top;
pos = (394,686);
}
);
shapes = (
{
closed = 1;
nodes = (
(162,0,l),
(204,297,l),
(482,297,l),
(440,0,l),
(564,0,l),
(661,686,l),
(537,686,l),
(497,404,l),
(219,404,l),
(259,686,l),
(135,686,l),
(38,0,l)
);
}
);
};
layerId = "EDCD8328-1E0F-4D00-9253-D58387328EFF";
shapes = (
{
closed = 1;
nodes = (
(162,0,l),
(204,297,l),
(482,297,l),
(440,0,l),
(564,0,l),
(661,686,l),
(537,686,l),
(497,404,l),
(219,404,l),
(259,686,l),
(135,686,l),
(38,0,l)
);
}
);
width = 692;
}
);
note = H;
unicode = 72;
},
{
color = 4;
glyphname = I;
kernLeft = H;
kernRight = H;
layers = (
{
anchors = (
{
name = bottom;
pos = (144,0);
},
{
name = center;
pos = (195,343);
},
{
name = ogonek;
pos = (203,0);
},
{
name = top;
pos = (241,686);
}
);
background = {
anchors = (
{
name = bottom;
pos = (144,0);
},
{
name = center;
pos = (195,343);
},
{
name = ogonek;
pos = (203,0);
},
{
name = top;
pos = (241,686);
}
);
shapes = (
{
closed = 1;
nodes = (
(252,0,l),
(259,49,l),
(180,49,l),
(263,637,l),
(342,637,l),
(349,686,l),
(137,686,l),
(130,637,l),
(209,637,l),
(126,49,l),
(47,49,l),
(40,0,l)
);
}
);
};
layerId = "4BBFD287-7A5F-4332-B846-65FFBCBF0D57";
shapes = (
{
closed = 1;
nodes = (
(252,0,l),
(259,49,l),
(180,49,l),
(263,637,l),
(342,637,l),
(349,686,l),
(137,686,l),
(130,637,l),
(209,637,l),
(126,49,l),
(47,49,l),
(40,0,l)
);
}
);
width = 364;
},
{
anchors = (
{
name = bottom;
pos = (173,0);
},
{
name = center;
pos = (230,343);
},
{
name = ogonek;
pos = (291,0);
},
{
name = top;
pos = (270,686);
}
);
background = {
anchors = (
{
name = bottom;
pos = (173,0);
},
{
name = center;
pos = (230,343);
},
{
name = ogonek;
pos = (291,0);
},
{
name = top;
pos = (270,686);
}
);
shapes = (
{
closed = 1;
nodes = (
(369,0,l),
(390,148,l),
(307,148,l),
(362,539,l),
(445,539,l),
(466,686,l),
(92,686,l),
(71,539,l),
(153,539,l),
(98,148,l),
(16,148,l),
(-5,0,l)
);
}
);
};
layerId = "4FDE33F5-0064-4818-A7C2-FB87252213B5";
shapes = (
{
closed = 1;
nodes = (
(369,0,l),
(390,148,l),
(307,148,l),
(362,539,l),
(445,539,l),
(466,686,l),
(92,686,l),
(71,539,l),
(153,539,l),
(98,148,l),
(16,148,l),
(-5,0,l)
);
}
);
width = 446;
},
{
anchors = (
{
name = bottom;
pos = (155,0);
},
{
name = center;
pos = (209,343);
},
{
name = ogonek;
pos = (240,0);
},
{
name = top;
pos = (252,686);
}
);
background = {
anchors = (
{
name = bottom;
pos = (155,0);
},
{
name = center;
pos = (209,343);
},
{
name = ogonek;
pos = (240,0);
},
{
name = top;
pos = (252,686);
}
);
shapes = (
{
closed = 1;
nodes = (
(302,0,l),
(317,105,l),
(237,105,l),
(304,581,l),
(384,581,l),
(399,686,l),
(114,686,l),
(99,581,l),
(179,581,l),
(113,105,l),
(32,105,l),
(17,0,l)
);
}
);
};
layerId = "EDCD8328-1E0F-4D00-9253-D58387328EFF";
shapes = (
{
closed = 1;
nodes = (
(302,0,l),
(317,105,l),
(237,105,l),
(304,581,l),
(384,581,l),
(399,686,l),
(114,686,l),
(99,581,l),
(179,581,l),
(113,105,l),
(32,105,l),
(17,0,l)
);
}
);
width = 409;
}
);
note = I;
unicode = 73;
},
{
color = 3;
glyphname = Istroke;
layers = (
{
layerId = "4BBFD287-7A5F-4332-B846-65FFBCBF0D57";
shapes = (
{
ref = I;
},
{
closed = 1;
nodes = (
(98,320,l),
(284,320,l),
(290,366,l),
(104,366,l)
);
}
);
width = 364;
},
{
layerId = "EDCD8328-1E0F-4D00-9253-D58387328EFF";
shapes = (
{
ref = I;
},
{
closed = 1;
nodes = (
(64,294,l),
(337,294,l),
(351,393,l),
(78,393,l)
);
}
);
width = 409;
},
{
layerId = "4FDE33F5-0064-4818-A7C2-FB87252213B5";
shapes = (
{
ref = I;
},
{
closed = 1;
nodes = (
(44,276,l),
(396,276,l),
(414,410,l),
(62,410,l)
);
}
);
width = 446;
}
);
unicode = 407;
},
{
color = 4;
glyphname = J;
kernLeft = J;
kernRight = J;
layers = (
{
anchors = (
{
name = top;
pos = (458,686);
}
);
layerId = "4BBFD287-7A5F-4332-B846-65FFBCBF0D57";
shapes = (
{
closed = 1;
nodes = (
(198,-10,ls),
(312,-10,o),
(398,50,o),
(414,166,cs),
(487,686,l),
(433,686,l),
(361,172,ls),
(348,78,o),
(280,38,o),
(203,38,cs),
(133,38,o),
(81,70,o),
(81,146,cs),
(81,154,o),
(81,163,o),
(85,185,c),
(35,185,l),
(30,155,o),
(30,145,o),
(30,135,cs),
(30,41,o),
(100,-10,o),
(193,-10,cs)
);
}
);
width = 525;
},
{
anchors = (
{
name = top;
pos = (435,686);
}
);
layerId = "4FDE33F5-0064-4818-A7C2-FB87252213B5";
shapes = (
{
closed = 1;
nodes = (
(217,-10,ls),
(350,-10,o),
(454,55,o),
(473,180,cs),
(544,686,l),
(339,686,l),
(269,186,ls),
(265,158,o),
(244,140,o),
(221,140,cs),
(201,140,o),
(185,155,o),
(185,178,cs),
(185,182,o),
(189,210,o),
(195,248,c),
(3,248,l),
(-7,189,o),
(-9,170,o),
(-9,158,cs),
(-9,46,o),
(58,-10,o),
(186,-10,cs)
);
}
);
width = 543;
},
{
anchors = (
{
name = top;
pos = (433,686);
}
);
layerId = "EDCD8328-1E0F-4D00-9253-D58387328EFF";
shapes = (
{
closed = 1;
nodes = (
(195,-10,ls),
(319,-10,o),
(409,55,o),
(427,185,cs),
(497,686,l),
(375,686,l),
(304,184,ls),
(296,129,o),
(255,95,o),
(199,95,cs),
(151,95,o),
(119,127,o),
(119,172,cs),
(119,183,o),
(122,205,o),
(125,217,c),
(6,217,l),
(-2,177,o),
(-1,160,o),
(-1,148,cs),
(-1,43,o),
(86,-10,o),
(181,-10,cs)
);
}
);
width = 526;
}
);
note = J;
unicode = 74;
},
{
color = 4;
glyphname = K;
kernLeft = H;
kernRight = K;
layers = (
{
anchors = (
{
name = bottom;
pos = (301,0);
}
);
layerId = "4BBFD287-7A5F-4332-B846-65FFBCBF0D57";
shapes = (
{
closed = 1;
nodes = (
(125,0,l),
(155,208,l),
(297,346,l),
(492,0,l),
(560,0,l),
(340,387,l),
(649,686,l),
(585,686,l),
(165,279,l),
(222,686,l),
(168,686,l),
(71,0,l)
);
}
);
width = 621;
},
{
anchors = (
{
name = bottom;
pos = (316,0);
}
);
layerId = "4FDE33F5-0064-4818-A7C2-FB87252213B5";
shapes = (
{
closed = 1;
nodes = (
(220,0,l),
(242,152,l),
(335,248,l),
(419,0,l),
(654,0,l),
(497,411,l),
(745,686,l),
(513,686,l),
(279,415,l),
(317,686,l),
(113,686,l),
(16,0,l)
);
}
);
width = 684;
},
{
anchors = (
{
name = bottom;
pos = (301,0);
}
);
layerId = "EDCD8328-1E0F-4D00-9253-D58387328EFF";
shapes = (
{
closed = 1;
nodes = (
(161,0,l),
(188,194,l),
(296,294,l),
(441,0,l),
(583,0,l),
(388,389,l),
(673,686,l),
(532,686,l),
(210,349,l),
(258,686,l),
(135,686,l),
(38,0,l)
);
}
);
width = 639;
}
);
note = K;
unicode = 75;
},
{
color = 4;
glyphname = L;
kernLeft = H;
kernRight = L;
layers = (
{
anchors = (
{
name = bottom;
pos = (274,0);
},
{
name = center;
pos = (152,355);
},
{
name = top;
pos = (193,686);
},
{
name = topright;
pos = (253,471);
}
);
background = {
anchors = (
{
name = bottom;
pos = (274,0);
},
{
name = center;
pos = (152,355);
},
{
name = top;
pos = (193,686);
},
{
name = topright;
pos = (253,471);
}
);
shapes = (
{
closed = 1;
nodes = (
(474,0,l),
(474,48,l),
(132,48,l),
(222,686,l),
(168,686,l),
(71,0,l)
);
}
);
};
layerId = "4BBFD287-7A5F-4332-B846-65FFBCBF0D57";
shapes = (
{
closed = 1;
nodes = (
(474,0,l),
(474,48,l),
(132,48,l),
(222,686,l),
(168,686,l),
(71,0,l)
);
}
);
width = 532;
},
{
anchors = (
{
name = bottom;
pos = (265,0);
},
{
name = center;
pos = (177,395);
},
{
name = top;
pos = (213,686);
},
{
name = topright;
pos = (111,290);
}
);
background = {
anchors = (
{
name = bottom;
pos = (265,0);
},
{
name = center;
pos = (177,395);
},
{
name = top;
pos = (213,686);
},
{
name = topright;
pos = (111,290);
}
);
shapes = (
{
closed = 1;
nodes = (
(497,0,l),
(497,168,l),
(252,168,l),
(325,686,l),
(113,686,l),
(16,0,l)
);
}
);
};
layerId = "4FDE33F5-0064-4818-A7C2-FB87252213B5";
shapes = (
{
closed = 1;
nodes = (
(497,0,l),
(497,168,l),
(252,168,l),
(325,686,l),
(113,686,l),
(16,0,l)
);
}
);
width = 540;
},
{
anchors = (
{
name = bottom;
pos = (266,0);
},
{
name = center;
pos = (154,375);
},
{
name = top;
pos = (193,686);
},
{
name = topright;
pos = (191,368);
}
);
background = {
anchors = (
{
name = bottom;
pos = (266,0);
},
{
name = center;
pos = (154,375);
},
{
name = top;
pos = (193,686);
},
{
name = topright;
pos = (191,368);
}
);
shapes = (
{
closed = 1;
nodes = (
(477,0,l),
(477,107,l),
(178,107,l),
(259,686,l),
(135,686,l),
(38,0,l)
);
}
);
};
layerId = "EDCD8328-1E0F-4D00-9253-D58387328EFF";
shapes = (
{
closed = 1;
nodes = (
(477,0,l),
(477,107,l),
(178,107,l),
(259,686,l),
(135,686,l),
(38,0,l)
);
}
);
width = 532;
}
);
note = L;
unicode = 76;
},
{
color = 4;
glyphname = M;
kernLeft = H;
kernRight = H;
layers = (
{
layerId = "4BBFD287-7A5F-4332-B846-65FFBCBF0D57";
shapes = (
{
closed = 1;
nodes = (
(119,0,l),
(207,625,l),
(212,625,l),
(397,0,l),
(448,0,l),
(811,625,l),
(816,625,l),
(728,0,l),
(782,0,l),
(879,686,l),
(794,686,l),
(438,70,l),
(434,70,l),
(254,686,l),
(168,686,l),
(71,0,l)
);
}
);
width = 925;
},
{
layerId = "4FDE33F5-0064-4818-A7C2-FB87252213B5";
shapes = (
{
closed = 1;
nodes = (
(207,0,l),
(269,440,l),
(274,440,l),
(331,0,l),
(572,0,l),
(754,440,l),
(758,440,l),
(696,0,l),
(906,0,l),
(1003,686,l),
(657,686,l),
(508,320,l),
(504,320,l),
(457,686,l),
(113,686,l),
(16,0,l)
);
}
);
width = 1004;
},
{
layerId = "EDCD8328-1E0F-4D00-9253-D58387328EFF";
shapes = (
{
closed = 1;
nodes = (
(151,0,l),
(227,541,l),
(232,541,l),
(365,0,l),
(484,0,l),
(770,541,l),
(776,541,l),
(700,0,l),
(823,0,l),
(920,686,l),
(723,686,l),
(459,186,l),
(455,186,l),
(333,686,l),
(135,686,l),
(38,0,l)
);
}
);
width = 951;
}
);
note = M;
unicode = 77;
},
{
color = 4;
glyphname = N;
kernLeft = H;
kernRight = H;
layers = (
{
anchors = (
{
name = bottom;
pos = (304,0);
},
{
name = top;
pos = (401,686);
}
);
background = {
anchors = (
{
name = bottom;
pos = (304,0);
},
{
name = top;
pos = (403,686);
}
);
shapes = (
{
closed = 1;
nodes = (
(119,0,l),
(201,585,l),
(205,585,l),
(228,537,l),
(502,0,l),
(550,0,l),
(647,686,l),
(599,686,l),
(517,101,l),
(513,101,l),
(493,143,l),
(214,686,l),
(168,686,l),
(71,0,l)
);
}
);
};
layerId = "4BBFD287-7A5F-4332-B846-65FFBCBF0D57";
shapes = (
{
closed = 1;
nodes = (
(119,0,l),
(201,585,l),
(205,585,l),
(228,537,l),
(502,0,l),
(550,0,l),
(647,686,l),
(599,686,l),
(517,101,l),
(513,101,l),
(493,143,l),
(214,686,l),
(168,686,l),
(71,0,l)
);
}
);
width = 693;
},
{
anchors = (
{
name = bottom;
pos = (293,0);
},
{
name = top;
pos = (392,686);
}
);
background = {
anchors = (
{
name = bottom;
pos = (293,0);
},
{
name = top;
pos = (392,686);
}
);
shapes = (
{
closed = 1;
nodes = (
(209,0,l),
(251,304,l),
(255,304,l),
(282,246,l),
(418,0,l),
(598,0,l),
(695,686,l),
(501,686,l),
(458,376,l),
(455,375,l),
(429,431,l),
(289,686,l),
(113,686,l),
(16,0,l)
);
}
);
};
layerId = "4FDE33F5-0064-4818-A7C2-FB87252213B5";
shapes = (
{
closed = 1;
nodes = (
(209,0,l),
(251,304,l),
(255,304,l),
(282,246,l),
(418,0,l),
(598,0,l),
(695,686,l),
(501,686,l),
(458,376,l),
(455,375,l),
(429,431,l),
(289,686,l),
(113,686,l),
(16,0,l)
);
}
);
width = 696;
},
{
anchors = (
{
name = bottom;
pos = (315,0);
},
{
name = top;
pos = (386,686);
}
);
background = {
anchors = (
{
name = bottom;
pos = (315,0);
},
{
name = top;
pos = (386,686);
}
);
shapes = (
{
closed = 1;
nodes = (
(151,0,l),
(216,457,l),
(219,459,l),
(253,390,l),
(460,0,l),
(565,0,l),
(662,686,l),
(549,686,l),
(485,232,l),
(482,230,l),
(448,297,l),
(242,686,l),
(135,686,l),
(38,0,l)
);
}
);
};
layerId = "EDCD8328-1E0F-4D00-9253-D58387328EFF";
shapes = (
{
closed = 1;
nodes = (
(151,0,l),
(216,457,l),
(219,459,l),
(253,390,l),
(460,0,l),
(565,0,l),
(662,686,l),
(549,686,l),
(485,232,l),
(482,230,l),
(448,297,l),
(242,686,l),
(135,686,l),
(38,0,l)
);
}
);
width = 693;
}
);
note = N;
unicode = 78;
},
{
color = 4;
glyphname = Nhookleft;
kernLeft = j;
kernRight = H;
layers = (
{
layerId = "4BBFD287-7A5F-4332-B846-65FFBCBF0D57";
shapes = (
{
closed = 1;
nodes = (
(49,-186,o),
(92,-152,o),
(103,-75,c),
(196,585,l),
(200,585,l),
(223,537,l),
(497,0,l),
(545,0,l),
(642,686,l),
(594,686,l),
(512,101,l),
(508,101,l),
(488,143,l),
(209,686,l),
(163,686,l),
(56,-73,l),
(48,-132,o),
(16,-140,o),
(-10,-140,cs),
(-25,-140,o),
(-54,-131,o),
(-69,-124,c),
(-76,-169,l),
(-60,-179,o),
(-35,-186,o),
(-10,-186,cs)
);
}
);
width = 688;
},
{
layerId = "4FDE33F5-0064-4818-A7C2-FB87252213B5";
shapes = (
{
closed = 1;
nodes = (
(115,-187,o),
(190,-134,o),
(205,-26,cs),
(252,304,l),
(255,304,l),
(282,246,l),
(418,0,l),
(598,0,l),
(695,686,l),
(501,686,l),
(458,376,l),
(455,375,l),
(429,431,l),
(289,686,l),
(113,686,l),
(16,0,ls),
(8,-55,o),
(-21,-65,o),
(-48,-65,cs),
(-63,-65,o),
(-93,-60,o),
(-108,-53,c),
(-124,-165,l),
(-92,-178,o),
(-29,-187,o),
(6,-187,cs)
);
}
);
width = 696;
},
{
layerId = "EDCD8328-1E0F-4D00-9253-D58387328EFF";
shapes = (
{
closed = 1;
nodes = (
(88,-186,o),
(132,-134,o),
(149,-17,cs),
(216,457,l),
(219,459,l),
(253,390,l),
(460,0,l),
(565,0,l),
(662,686,l),
(549,686,l),
(485,232,l),
(482,230,l),
(448,297,l),
(242,686,l),
(135,686,l),
(33,-32,ls),
(25,-91,o),
(-4,-100,o),
(-31,-100,cs),
(-46,-100,o),
(-75,-93,o),
(-90,-86,c),
(-100,-167,l),
(-79,-179,o),
(-37,-186,o),
(-7,-186,cs)
);
}
);
width = 693;
}
);
unicode = 413;
},
{
color = 4;
glyphname = Eng;
kernLeft = H;
kernRight = H;
layers = (
{
layerId = "4BBFD287-7A5F-4332-B846-65FFBCBF0D57";
shapes = (
{
closed = 1;
nodes = (
(482,-186,o),
(528,-152,o),
(539,-75,cs),
(647,686,l),
(599,686,l),
(517,101,l),
(513,101,l),
(493,143,l),
(214,686,l),
(168,686,l),
(71,0,l),
(119,0,l),
(201,585,l),
(205,585,l),
(228,537,l),
(500,4,l),
(489,-73,ls),
(481,-132,o),
(449,-140,o),
(423,-140,cs),
(408,-140,o),
(379,-131,o),
(364,-124,c),
(357,-169,l),
(373,-179,o),
(398,-186,o),
(423,-186,cs)
);
}
);
width = 693;
},
{
layerId = "4FDE33F5-0064-4818-A7C2-FB87252213B5";
shapes = (
{
closed = 1;
nodes = (
(498,-187,o),
(579,-134,o),
(594,-26,cs),
(695,686,l),
(501,686,l),
(458,376,l),
(455,375,l),
(429,431,l),
(289,686,l),
(113,686,l),
(16,0,l),
(209,0,l),
(251,304,l),
(255,304,l),
(282,246,l),
(403,27,l),
(400,4,ls),
(392,-55,o),
(363,-65,o),
(335,-65,cs),
(320,-65,o),
(290,-60,o),
(275,-53,c),
(259,-165,l),
(291,-178,o),
(354,-187,o),
(389,-187,cs)
);
}
);
width = 696;
},
{
layerId = "EDCD8328-1E0F-4D00-9253-D58387328EFF";
shapes = (
{
closed = 1;
nodes = (
(497,-186,o),
(546,-134,o),
(562,-17,cs),
(662,686,l),
(549,686,l),
(485,232,l),
(482,230,l),
(448,297,l),
(242,686,l),
(135,686,l),
(38,0,l),
(151,0,l),
(216,457,l),
(219,459,l),
(253,390,l),
(449,19,l),
(442,-32,ls),
(434,-91,o),
(404,-100,o),
(378,-100,cs),
(363,-100,o),
(334,-93,o),
(319,-86,c),
(308,-167,l),
(330,-179,o),
(372,-186,o),
(401,-186,cs)
);
}
);
width = 693;
}
);
unicode = 330;
},
{
color = 4;
glyphname = O;
kernLeft = O;
kernRight = O;
layers = (
{
anchors = (
{
name = bottom;
pos = (317,0);
},
{
name = center;
pos = (350,336);
},
{
name = ogonek;
pos = (360,0);
},
{
name = top;
pos = (393,686);
},
{
name = topright;
pos = (431,686);
}
);
background = {
anchors = (
{
name = bottom;
pos = (317,0);
},
{
name = center;
pos = (350,336);
},
{
name = ogonek;
pos = (360,0);
},
{
name = top;
pos = (399,686);
},
{
name = topright;
pos = (431,686);
}
);
shapes = (
{
closed = 1;
nodes = (
(314,-10,ls),
(458,-10,o),
(585,58,o),
(621,330,cs),
(630,395,o),
(632,428,o),
(632,458,cs),
(632,648,o),
(530,696,o),
(404,696,cs),
(399,696,ls),
(255,696,o),
(128,628,o),
(92,356,cs),
(83,291,o),
(81,258,o),
(81,228,cs),
(81,38,o),
(183,-10,o),
(309,-10,cs)
);
},
{
closed = 1;
nodes = (
(213,38,o),
(134,77,o),
(134,232,cs),
(134,257,o),
(135,286,o),
(147,368,cs),
(180,595,o),
(282,648,o),
(399,648,cs),
(500,648,o),
(579,609,o),
(579,454,cs),
(579,429,o),
(578,400,o),
(566,318,cs),
(533,91,o),
(431,38,o),
(314,38,cs)
);
}
);
};
layerId = "4BBFD287-7A5F-4332-B846-65FFBCBF0D57";
shapes = (
{
closed = 1;
nodes = (
(314,-10,ls),
(458,-10,o),
(585,58,o),
(621,330,cs),
(630,395,o),
(632,428,o),
(632,458,cs),
(632,648,o),
(530,696,o),
(404,696,cs),
(399,696,ls),
(255,696,o),
(128,628,o),
(92,356,cs),
(83,291,o),
(81,258,o),
(81,228,cs),
(81,38,o),
(183,-10,o),
(309,-10,cs)
);
},
{
closed = 1;
nodes = (
(213,38,o),
(134,77,o),
(134,232,cs),
(134,257,o),
(135,286,o),
(147,368,cs),
(180,595,o),
(282,648,o),
(399,648,cs),
(500,648,o),
(579,609,o),
(579,454,cs),
(579,429,o),
(578,400,o),
(566,318,cs),
(533,91,o),
(431,38,o),
(314,38,cs)
);
}
);
width = 689;
},
{
anchors = (
{
name = bottom;
pos = (320,0);
},
{
name = center;
pos = (364,336);
},
{
name = ogonek;
pos = (357,0);
},
{
name = top;
pos = (405,686);
},
{
name = topright;
pos = (445,686);
}
);
background = {
anchors = (
{
name = bottom;
pos = (320,0);
},
{
name = center;
pos = (364,336);
},
{
name = ogonek;
pos = (372,0);
},
{
name = top;
pos = (405,686);
},
{
name = topright;
pos = (445,686);
}
);
shapes = (
{
closed = 1;
nodes = (
(345,-10,ls),
(532,-10,o),
(662,125,o),
(687,290,cs),
(697,355,o),
(704,411,o),
(704,436,cs),
(704,582,o),
(596,694,o),
(444,694,cs),
(388,694,ls),
(202,694,o),
(71,559,o),
(46,394,cs),
(36,329,o),
(29,272,o),
(29,248,cs),
(29,102,o),
(137,-10,o),
(289,-10,cs)
);
},
{
closed = 1;
nodes = (
(286,146,o),
(250,180,o),
(250,230,cs),
(250,249,o),
(254,275,o),
(277,438,cs),
(286,502,o),
(329,538,o),
(391,538,cs),
(447,538,o),
(483,504,o),
(483,454,cs),
(483,435,o),
(479,409,o),
(456,246,cs),
(447,182,o),
(404,146,o),
(342,146,cs)
);
}
);
};
layerId = "4FDE33F5-0064-4818-A7C2-FB87252213B5";
shapes = (
{
closed = 1;
nodes = (
(345,-10,ls),
(532,-10,o),
(662,125,o),
(687,290,cs),
(697,355,o),
(704,411,o),
(704,436,cs),
(704,582,o),
(596,694,o),
(444,694,cs),
(388,694,ls),
(202,694,o),
(71,559,o),
(46,394,cs),
(36,329,o),
(29,272,o),
(29,248,cs),
(29,102,o),
(137,-10,o),
(289,-10,cs)
);
},
{
closed = 1;
nodes = (
(286,146,o),
(250,180,o),
(250,230,cs),
(250,249,o),
(254,275,o),
(277,438,cs),
(286,502,o),
(329,538,o),
(391,538,cs),
(447,538,o),
(483,504,o),
(483,454,cs),
(483,435,o),
(479,409,o),
(456,246,cs),
(447,182,o),
(404,146,o),
(342,146,cs)
);
}
);
width = 719;
},
{
anchors = (
{
name = bottom;
pos = (304,0);
},
{
name = center;
pos = (348,336);
},
{
name = ogonek;
pos = (346,0);
},
{
name = top;
pos = (397,686);
},
{
name = topright;
pos = (429,686);
}
);
background = {
anchors = (
{
name = bottom;
pos = (304,0);
},
{
name = center;
pos = (348,336);
},
{
name = ogonek;
pos = (346,0);
},
{
name = top;
pos = (397,686);
},
{
name = topright;
pos = (429,686);
}
);
shapes = (
{
closed = 1;
nodes = (
(304,-10,ls),
(481,-10,o),
(611,95,o),
(639,297,cs),
(647,355,o),
(657,422,o),
(657,450,cs),
(657,608,o),
(546,696,o),
(406,696,cs),
(400,696,ls),
(223,696,o),
(93,591,o),
(65,389,cs),
(57,331,o),
(47,264,o),
(47,236,cs),
(47,78,o),
(158,-10,o),
(298,-10,cs)
);
},
{
closed = 1;
nodes = (
(232,95,o),
(174,142,o),
(174,241,cs),
(174,265,o),
(177,290,o),
(191,389,cs),
(210,526,o),
(281,591,o),
(386,591,cs),
(472,591,o),
(530,544,o),
(530,445,cs),
(530,421,o),
(527,396,o),
(513,297,cs),
(494,160,o),
(423,95,o),
(318,95,cs)
);
}
);
};
layerId = "EDCD8328-1E0F-4D00-9253-D58387328EFF";
shapes = (
{
closed = 1;
nodes = (
(304,-10,ls),
(481,-10,o),
(611,95,o),
(639,297,cs),
(647,355,o),
(657,422,o),
(657,450,cs),
(657,608,o),
(546,696,o),
(406,696,cs),
(400,696,ls),
(223,696,o),
(93,591,o),
(65,389,cs),
(57,331,o),
(47,264,o),
(47,236,cs),
(47,78,o),
(158,-10,o),
(298,-10,cs)
);
},
{
closed = 1;
nodes = (
(232,95,o),
(174,142,o),
(174,241,cs),
(174,265,o),
(177,290,o),
(191,389,cs),
(210,526,o),
(281,591,o),
(386,591,cs),
(472,591,o),
(530,544,o),
(530,445,cs),
(530,421,o),
(527,396,o),
(513,297,cs),
(494,160,o),
(423,95,o),
(318,95,cs)
);
}
);
width = 698;
}
);
note = O;
unicode = 79;
},
{
color = 4;
glyphname = OE;
kernLeft = O;
kernRight = E;
layers = (
{
layerId = "4BBFD287-7A5F-4332-B846-65FFBCBF0D57";
shapes = (
{
closed = 1;
nodes = (
(394,-10,o),
(476,12,o),
(535,88,c),
(520,0,l),
(950,0,l),
(950,48,l),
(581,48,l),
(620,326,l),
(939,326,l),
(946,374,l),
(627,374,l),
(664,638,l),
(1024,638,l),
(1041,686,l),
(617,686,l),
(604,600,l),
(566,674,o),
(492,696,o),
(406,696,cs),
(259,696,o),
(128,631,o),
(92,356,cs),
(83,291,o),
(81,258,o),
(81,228,cs),
(81,38,o),
(180,-10,o),
(307,-10,cs)
);
},
{
closed = 1;
nodes = (
(213,38,o),
(134,77,o),
(134,232,cs),
(134,257,o),
(135,286,o),
(147,368,cs),
(180,595,o),
(282,648,o),
(399,648,cs),
(499,648,o),
(579,609,o),
(579,454,cs),
(579,428,o),
(577,400,o),
(566,318,cs),
(535,91,o),
(431,38,o),
(314,38,cs)
);
}
);
width = 1041;
},
{
layerId = "4FDE33F5-0064-4818-A7C2-FB87252213B5";
shapes = (
{
closed = 1;
nodes = (
(361,-10,o),
(394,1,o),
(423,18,c),
(421,0,l),
(936,0,l),
(928,157,l),
(653,157,l),
(668,266,l),
(912,266,l),
(934,419,l),
(690,419,l),
(705,528,l),
(960,528,l),
(1022,686,l),
(518,686,l),
(516,667,l),
(487,683,o),
(456,694,o),
(392,694,cs),
(216,694,o),
(70,560,o),
(46,394,cs),
(41,359,o),
(36,325,o),
(31,290,cs),
(7,124,o),
(118,-10,o),
(289,-10,cs)
);
},
{
closed = 1;
nodes = (
(281,147,o),
(243,191,o),
(251,247,cs),
(260,311,o),
(269,376,o),
(278,440,cs),
(286,496,o),
(336,540,o),
(392,540,cs),
(453,540,o),
(491,498,o),
(483,440,cs),
(474,376,o),
(465,311,o),
(456,247,cs),
(448,192,o),
(401,147,o),
(337,147,cs)
);
}
);
width = 1005;
},
{
layerId = "EDCD8328-1E0F-4D00-9253-D58387328EFF";
shapes = (
{
closed = 1;
nodes = (
(367,-10,o),
(428,6,o),
(479,40,c),
(474,0,l),
(940,0,l),
(940,105,l),
(614,105,l),
(641,299,l),
(935,299,l),
(950,403,l),
(656,403,l),
(681,581,l),
(1002,581,l),
(1032,686,l),
(571,686,l),
(564,643,l),
(522,678,o),
(467,696,o),
(404,696,cs),
(232,696,o),
(93,594,o),
(65,389,cs),
(50,276,o),
(47,267,o),
(47,238,cs),
(47,77,o),
(153,-10,o),
(297,-10,cs)
);
},
{
closed = 1;
nodes = (
(232,95,o),
(175,142,o),
(175,240,cs),
(175,265,o),
(179,290,o),
(192,389,cs),
(211,526,o),
(282,591,o),
(387,591,cs),
(472,591,o),
(531,543,o),
(531,445,cs),
(531,417,o),
(526,387,o),
(511,286,cs),
(491,154,o),
(417,95,o),
(318,95,cs)
);
}
);
width = 1028;
}
);
note = OE;
unicode = 338;
},
{
color = 4;
glyphname = P;
kernLeft = H;
kernRight = P;
layers = (
{
layerId = "4BBFD287-7A5F-4332-B846-65FFBCBF0D57";
shapes = (
{
closed = 1;
nodes = (
(125,0,l),
(170,311,l),
(398,311,ls),
(522,311,o),
(611,411,o),
(611,526,cs),
(611,616,o),
(541,686,o),
(447,686,cs),
(168,686,l),
(71,0,l)
);
},
{
closed = 1;
nodes = (
(215,638,l),
(436,638,ls),
(507,638,o),
(559,587,o),
(559,519,cs),
(559,432,o),
(491,359,o),
(397,359,cs),
(176,359,l)
);
}
);
width = 626;
},
{
background = {
shapes = (
{
closed = 1;
nodes = (
(113,686,l),
(16,0,l),
(226,0,l),
(261,244,l),
(416,244,ls),
(570,244,o),
(660,368,o),
(660,505,cs),
(660,606,o),
(585,686,o),
(478,686,cs)
);
},
{
closed = 1;
nodes = (
(429,529,o),
(445,503,o),
(445,478,c),
(443,457,ls),
(440,429,o),
(417,397,o),
(374,397,cs),
(282,397,l),
(301,529,l),
(393,529,ls)
);
}
);
};
layerId = "4FDE33F5-0064-4818-A7C2-FB87252213B5";
shapes = (
{
closed = 1;
nodes = (
(226,0,l),
(261,244,l),
(406,244,ls),
(560,244,o),
(660,368,o),
(660,505,cs),
(660,606,o),
(582,686,o),
(475,686,cs),
(113,686,l),
(16,0,l)
);
},
{
closed = 1;
nodes = (
(301,529,l),
(395,529,ls),
(431,529,o),
(447,503,o),
(447,478,cs),
(447,434,o),
(424,397,o),
(376,397,cs),
(282,397,l)
);
}
);
width = 645;
},
{
layerId = "EDCD8328-1E0F-4D00-9253-D58387328EFF";
shapes = (
{
closed = 1;
nodes = (
(162,0,l),
(201,276,l),
(389,276,ls),
(531,276,o),
(627,375,o),
(627,514,cs),
(627,617,o),
(545,686,o),
(441,686,cs),
(135,686,l),
(38,0,l)
);
},
{
closed = 1;
nodes = (
(245,590,l),
(415,590,ls),
(473,590,o),
(505,549,o),
(505,497,cs),
(505,430,o),
(462,372,o),
(385,372,cs),
(214,372,l)
);
}
);
width = 627;
}
);
note = P;
unicode = 80;
},
{
color = 4;
glyphname = Thorn;
kernLeft = H;
kernRight = P;
layers = (
{
guides = (
{
angle = 82.0425;
pos = (177,364);
}
);
layerId = "4BBFD287-7A5F-4332-B846-65FFBCBF0D57";
shapes = (
{
closed = 1;
nodes = (
(126,0,l),
(151,176,l),
(379,176,ls),
(491,176,o),
(592,274,o),
(592,389,cs),
(592,479,o),
(522,551,o),
(428,551,cs),
(203,551,l),
(222,686,l),
(168,686,l),
(71,0,l)
);
},
{
closed = 1;
nodes = (
(196,503,l),
(417,503,ls),
(488,503,o),
(540,452,o),
(540,384,cs),
(540,297,o),
(462,224,o),
(378,224,cs),
(157,224,l)
);
}
);
width = 633;
},
{
layerId = "4FDE33F5-0064-4818-A7C2-FB87252213B5";
shapes = (
{
closed = 1;
nodes = (
(225,0,l),
(246,146,l),
(399,146,ls),
(539,146,o),
(646,263,o),
(646,402,cs),
(646,503,o),
(570,583,o),
(463,583,cs),
(307,583,l),
(322,686,l),
(113,686,l),
(16,0,l)
);
},
{
closed = 1;
nodes = (
(285,427,l),
(385,427,ls),
(414,427,o),
(433,407,o),
(433,378,cs),
(433,325,o),
(407,294,o),
(363,294,cs),
(267,294,l)
);
}
);
width = 646;
},
{
layerId = "EDCD8328-1E0F-4D00-9253-D58387328EFF";
shapes = (
{
closed = 1;
nodes = (
(162,0,l),
(184,158,l),
(373,158,ls),
(504,158,o),
(610,259,o),
(610,395,cs),
(610,498,o),
(534,567,o),
(430,567,cs),
(242,567,l),
(259,686,l),
(135,686,l),
(38,0,l)
);
},
{
closed = 1;
nodes = (
(228,471,l),
(402,471,ls),
(456,471,o),
(488,434,o),
(488,379,cs),
(488,317,o),
(435,254,o),
(372,254,cs),
(198,254,l)
);
}
);
width = 633;
}
);
note = Thorn;
unicode = 222;
},
{
color = 4;
glyphname = Q;
kernLeft = O;
kernRight = O;
layers = (
{
background = {
shapes = (
{
closed = 1;
nodes = (
(314,-10,ls),
(458,-10,o),
(585,58,o),
(621,330,cs),
(630,395,o),
(632,428,o),
(632,458,cs),
(632,648,o),
(530,696,o),
(404,696,cs),
(399,696,ls),
(255,696,o),
(128,628,o),
(92,356,cs),
(83,291,o),
(81,258,o),
(81,228,cs),
(81,38,o),
(183,-10,o),
(309,-10,cs)
);
},
{
closed = 1;
nodes = (
(213,38,o),
(134,77,o),
(134,232,cs),
(134,257,o),
(135,286,o),
(147,368,cs),
(180,595,o),
(282,648,o),
(399,648,cs),
(500,648,o),
(579,609,o),
(579,454,cs),
(579,429,o),
(578,400,o),
(566,318,cs),
(533,91,o),
(431,38,o),
(314,38,cs)
);
}
);
};
layerId = "4BBFD287-7A5F-4332-B846-65FFBCBF0D57";
shapes = (
{
closed = 1;
nodes = (
(489,-137,o),
(543,-110,o),
(543,-110,c),
(550,-61,l),
(509,-78,o),
(474,-90,o),
(432,-90,cs),
(357,-90,o),
(337,-46,o),
(335,-9,c),
(458,-4,o),
(585,58,o),
(621,330,cs),
(630,395,o),
(632,428,o),
(632,458,cs),
(632,648,o),
(533,696,o),
(407,696,cs),
(402,696,ls),
(258,696,o),
(128,628,o),
(92,356,cs),
(83,291,o),
(81,258,o),
(81,228,cs),
(81,49,o),
(169,-4,o),
(285,-10,c),
(285,-66,o),
(307,-137,o),
(426,-137,cs)
);
},
{
closed = 1;
nodes = (
(213,38,o),
(134,77,o),
(134,232,cs),
(134,257,o),
(135,286,o),
(147,368,cs),
(180,595,o),
(282,648,o),
(399,648,cs),
(499,648,o),
(579,609,o),
(579,454,cs),
(579,429,o),
(578,400,o),
(566,318,cs),
(533,91,o),
(431,38,o),
(314,38,cs)
);
}
);
width = 689;
},
{
background = {
shapes = (
{
closed = 1;
nodes = (
(345,-10,ls),
(532,-10,o),
(662,125,o),
(687,290,cs),
(697,355,o),
(704,411,o),
(704,436,cs),
(704,582,o),
(596,694,o),
(444,694,cs),
(388,694,ls),
(202,694,o),
(71,559,o),
(46,394,cs),
(36,329,o),
(29,272,o),
(29,248,cs),
(29,102,o),
(137,-10,o),
(289,-10,cs)
);
},
{
closed = 1;
nodes = (
(286,146,o),
(250,180,o),
(250,230,cs),
(250,249,o),
(254,275,o),
(277,438,cs),
(286,502,o),
(329,538,o),
(391,538,cs),
(447,538,o),
(483,504,o),
(483,454,cs),
(483,435,o),
(479,409,o),
(456,246,cs),
(447,182,o),
(404,146,o),
(342,146,cs)
);
}
);
};
layerId = "4FDE33F5-0064-4818-A7C2-FB87252213B5";
shapes = (
{
closed = 1;
nodes = (
(532,-162,o),
(590,-140,o),
(630,-120,c),
(645,-15,l),
(598,-29,o),
(550,-39,o),
(516,-39,cs),
(470,-39,o),
(452,-19,o),
(445,4,c),
(578,42,o),
(666,155,o),
(687,290,cs),
(697,355,o),
(704,411,o),
(704,436,cs),
(704,582,o),
(596,694,o),
(444,694,cs),
(388,694,ls),
(202,694,o),
(71,559,o),
(46,394,cs),
(36,329,o),
(29,272,o),
(29,248,cs),
(29,121,o),
(110,20,o),
(232,-4,c),
(237,-72,o),
(291,-162,o),
(443,-162,cs)
);
},
{
closed = 1;
nodes = (
(286,146,o),
(250,181,o),
(250,230,cs),
(250,249,o),
(254,275,o),
(277,438,cs),
(286,502,o),
(329,538,o),
(391,538,cs),
(447,538,o),
(483,505,o),
(483,454,cs),
(483,435,o),
(479,409,o),
(456,246,cs),
(447,182,o),
(404,146,o),
(342,146,cs)
);
}
);
width = 719;
},
{
layerId = "EDCD8328-1E0F-4D00-9253-D58387328EFF";
shapes = (
{
closed = 1;
nodes = (
(507,-149,o),
(564,-122,o),
(579,-114,c),
(590,-36,l),
(539,-52,o),
(503,-63,o),
(467,-63,cs),
(409,-63,o),
(386,-31,o),
(380,-2,c),
(485,15,o),
(611,95,o),
(639,297,cs),
(647,355,o),
(657,422,o),
(657,450,cs),
(657,608,o),
(546,696,o),
(406,696,cs),
(400,696,ls),
(223,696,o),
(93,591,o),
(65,389,cs),
(57,331,o),
(47,264,o),
(47,236,cs),
(47,78,o),
(154,5,o),
(258,-8,c),
(260,-89,o),
(323,-149,o),
(430,-149,cs)
);
},
{
closed = 1;
nodes = (
(232,95,o),
(174,142,o),
(174,241,cs),
(174,265,o),
(177,290,o),
(191,389,cs),
(210,526,o),
(281,591,o),
(386,591,cs),
(472,591,o),
(530,544,o),
(530,445,cs),
(530,421,o),
(527,396,o),
(513,297,cs),
(494,160,o),
(423,95,o),
(318,95,cs)
);
}
);
width = 698;
}
);
note = Q;
unicode = 81;
},
{
color = 4;
glyphname = R;
kernLeft = H;
kernRight = R;
layers = (
{
anchors = (
{
name = bottom;
pos = (297,0);
},
{
name = top;
pos = (374,686);
}
);
background = {
anchors = (
{
name = bottom;
pos = (297,0);
},
{
name = top;
pos = (374,686);
}
);
shapes = (
{
closed = 1;
nodes = (
(567,-3,o),
(579,1,o),
(579,1,c),
(581,20,l),
(563,29,o),
(543,30,o),
(543,87,cs),
(543,112,o),
(553,163,o),
(553,199,cs),
(553,330,o),
(467,339,o),
(467,339,c),
(467,344,l),
(546,365,o),
(615,443,o),
(615,532,cs),
(615,627,o),
(549,686,o),
(449,686,cs),
(168,686,l),
(72,0,l),
(126,0,l),
(171,316,l),
(392,316,ls),
(420,316,o),
(497,311,o),
(497,181,cs),
(497,153,o),
(488,106,o),
(488,76,cs),
(488,1,o),
(526,-3,o),
(553,-3,cs)
);
},
{
closed = 1;
nodes = (
(215,638,l),
(447,638,ls),
(518,638,o),
(562,599,o),
(562,527,cs),
(562,442,o),
(483,364,o),
(400,364,cs),
(178,364,l)
);
}
);
};
layerId = "4BBFD287-7A5F-4332-B846-65FFBCBF0D57";
shapes = (
{
closed = 1;
nodes = (
(567,-3,o),
(579,1,o),
(579,1,c),
(581,20,l),
(563,29,o),
(543,30,o),
(543,87,cs),
(543,112,o),
(553,163,o),
(553,199,cs),
(553,330,o),
(467,339,o),
(467,339,c),
(467,344,l),
(546,365,o),
(615,443,o),
(615,532,cs),
(615,627,o),
(549,686,o),
(449,686,cs),
(168,686,l),
(72,0,l),
(126,0,l),
(171,316,l),
(392,316,ls),
(420,316,o),
(497,311,o),
(497,181,cs),
(497,153,o),
(488,106,o),
(488,76,cs),
(488,1,o),
(526,-3,o),
(553,-3,cs)
);
},
{
closed = 1;
nodes = (
(215,638,l),
(447,638,ls),
(518,638,o),
(562,599,o),
(562,527,cs),
(562,442,o),
(483,364,o),
(400,364,cs),
(178,364,l)
);
}
);
width = 671;
},
{
anchors = (
{
name = bottom;
pos = (309,0);
},
{
name = top;
pos = (378,686);
}
);
background = {
anchors = (
{
name = bottom;
pos = (309,0);
},
{
name = top;
pos = (378,686);
}
);
shapes = (
{
closed = 1;
nodes = (
(547,-10,o),
(591,-6,o),
(630,9,c),
(636,50,l),
(605,58,o),
(598,89,o),
(598,122,cs),
(598,157,o),
(605,177,o),
(605,205,cs),
(605,267,o),
(580,304,o),
(517,323,c),
(518,328,l),
(596,352,o),
(665,423,o),
(665,529,cs),
(665,619,o),
(591,686,o),
(500,686,cs),
(112,686,l),
(16,0,l),
(221,0,l),
(255,240,l),
(316,240,ls),
(376,240,o),
(390,217,o),
(390,171,cs),
(390,140,o),
(382,115,o),
(382,88,cs),
(382,16,o),
(428,-10,o),
(508,-10,cs)
);
},
{
closed = 1;
nodes = (
(295,529,l),
(405,529,ls),
(436,529,o),
(451,507,o),
(451,479,cs),
(451,435,o),
(429,393,o),
(387,393,cs),
(277,393,l)
);
}
);
};
layerId = "4FDE33F5-0064-4818-A7C2-FB87252213B5";
shapes = (
{
closed = 1;
nodes = (
(547,-10,o),
(591,-6,o),
(630,9,c),
(636,50,l),
(605,58,o),
(598,89,o),
(598,122,cs),
(598,157,o),
(605,177,o),
(605,205,cs),
(605,267,o),
(580,304,o),
(517,323,c),
(518,328,l),
(596,352,o),
(665,423,o),
(665,529,cs),
(665,619,o),
(591,686,o),
(500,686,cs),
(112,686,l),
(16,0,l),
(221,0,l),
(255,240,l),
(316,240,ls),
(376,240,o),
(390,217,o),
(390,171,cs),
(390,140,o),
(382,115,o),
(382,88,cs),
(382,16,o),
(428,-10,o),
(508,-10,cs)
);
},
{
closed = 1;
nodes = (
(295,529,l),
(405,529,ls),
(436,529,o),
(451,507,o),
(451,479,cs),
(451,435,o),
(429,393,o),
(387,393,cs),
(277,393,l)
);
}
);
width = 682;
},
{
anchors = (
{
name = bottom;
pos = (309,0);
},
{
name = top;
pos = (381,686);
}
);
background = {
anchors = (
{
name = bottom;
pos = (309,0);
},
{
name = top;
pos = (381,686);
}
);
shapes = (
{
closed = 1;
nodes = (
(550,-6,o),
(578,-2,o),
(595,4,c),
(599,35,l),
(574,44,o),
(561,66,o),
(561,108,cs),
(561,126,o),
(568,169,o),
(568,196,cs),
(568,294,o),
(510,321,o),
(482,332,c),
(483,338,l),
(577,369,o),
(630,445,o),
(630,534,cs),
(630,637,o),
(543,686,o),
(436,686,cs),
(135,686,l),
(39,0,l),
(161,0,l),
(200,281,l),
(350,281,ls),
(397,281,o),
(441,254,o),
(441,166,cs),
(441,146,o),
(434,111,o),
(434,85,cs),
(434,11,o),
(474,-6,o),
(525,-6,cs)
);
},
{
closed = 1;
nodes = (
(244,590,l),
(427,590,ls),
(482,590,o),
(506,553,o),
(506,507,cs),
(506,439,o),
(448,377,o),
(393,377,cs),
(214,377,l)
);
}
);
};
layerId = "EDCD8328-1E0F-4D00-9253-D58387328EFF";
shapes = (
{
closed = 1;
nodes = (
(550,-6,o),
(578,-2,o),
(595,4,c),
(599,35,l),
(574,44,o),
(561,66,o),
(561,108,cs),
(561,126,o),
(568,169,o),
(568,196,cs),
(568,294,o),
(510,321,o),
(482,332,c),
(483,338,l),
(577,369,o),
(630,445,o),
(630,534,cs),
(630,637,o),
(543,686,o),
(436,686,cs),
(135,686,l),
(39,0,l),
(161,0,l),
(200,281,l),
(350,281,ls),
(397,281,o),
(441,254,o),
(441,166,cs),
(441,146,o),
(434,111,o),
(434,85,cs),
(434,11,o),
(474,-6,o),
(525,-6,cs)
);
},
{
closed = 1;
nodes = (
(244,590,l),
(427,590,ls),
(482,590,o),
(506,553,o),
(506,507,cs),
(506,439,o),
(448,377,o),
(393,377,cs),
(214,377,l)
);
}
);
width = 668;
}
);
note = R;
unicode = 82;
},
{
color = 4;
glyphname = S;
kernLeft = S;
kernRight = S;
layers = (
{
anchors = (
{
name = bottom;
pos = (292,0);
},
{
name = top;
pos = (364,686);
}
);
background = {
anchors = (
{
name = bottom;
pos = (292,0);
},
{
name = top;
pos = (364,686);
}
);
shapes = (
{
closed = 1;
nodes = (
(413,-10,o),
(550,45,o),
(550,208,cs),
(550,424,o),
(175,343,o),
(175,508,cs),
(175,611,o),
(269,648,o),
(368,648,cs),
(458,648,o),
(528,613,o),
(528,542,cs),
(528,537,o),
(528,531,o),
(524,503,c),
(574,503,l),
(578,527,o),
(578,537,o),
(578,546,cs),
(578,654,o),
(489,696,o),
(374,696,cs),
(244,696,o),
(122,637,o),
(122,504,cs),
(122,292,o),
(497,376,o),
(497,200,cs),
(497,76,o),
(389,38,o),
(282,38,cs),
(183,38,o),
(106,69,o),
(106,155,cs),
(106,169,o),
(110,197,o),
(113,205,c),
(62,205,l),
(59,195,o),
(56,167,o),
(56,151,cs),
(56,31,o),
(155,-10,o),
(279,-10,cs)
);
}
);
};
layerId = "4BBFD287-7A5F-4332-B846-65FFBCBF0D57";
shapes = (
{
closed = 1;
nodes = (
(413,-10,o),
(550,45,o),
(550,208,cs),
(550,424,o),
(175,343,o),
(175,508,cs),
(175,611,o),
(269,648,o),
(368,648,cs),
(458,648,o),
(528,613,o),
(528,542,cs),
(528,537,o),
(528,531,o),
(524,503,c),
(574,503,l),
(578,527,o),
(578,537,o),
(578,546,cs),
(578,654,o),
(489,696,o),
(374,696,cs),
(244,696,o),
(122,637,o),
(122,504,cs),
(122,292,o),
(497,376,o),
(497,200,cs),
(497,76,o),
(389,38,o),
(282,38,cs),
(183,38,o),
(106,69,o),
(106,155,cs),
(106,169,o),
(110,197,o),
(113,205,c),
(62,205,l),
(59,195,o),
(56,167,o),
(56,151,cs),
(56,31,o),
(155,-10,o),
(279,-10,cs)
);
}
);
width = 629;
},
{
anchors = (
{
name = bottom;
pos = (287,0);
},
{
name = top;
pos = (361,686);
}
);
background = {
anchors = (
{
name = bottom;
pos = (287,0);
},
{
name = top;
pos = (361,686);
}
);
shapes = (
{
closed = 1;
nodes = (
(501,-10,o),
(613,104,o),
(613,241,cs),
(613,463,o),
(278,407,o),
(278,497,cs),
(278,524,o),
(304,544,o),
(365,544,cs),
(416,544,o),
(445,524,o),
(445,489,cs),
(445,484,o),
(445,481,o),
(444,474,c),
(636,474,l),
(640,494,o),
(640,506,o),
(640,517,cs),
(640,641,o),
(521,696,o),
(380,696,cs),
(192,696,o),
(66,611,o),
(66,454,cs),
(66,234,o),
(397,283,o),
(397,199,cs),
(397,175,o),
(382,151,o),
(298,151,cs),
(233,151,o),
(208,180,o),
(208,212,cs),
(208,220,o),
(209,227,o),
(212,234,c),
(18,234,l),
(13,215,o),
(12,198,o),
(12,177,cs),
(12,47,o),
(135,-10,o),
(276,-10,cs)
);
}
);
};
layerId = "4FDE33F5-0064-4818-A7C2-FB87252213B5";
shapes = (
{
closed = 1;
nodes = (
(501,-10,o),
(613,104,o),
(613,241,cs),
(613,463,o),
(278,407,o),
(278,497,cs),
(278,524,o),
(304,544,o),
(365,544,cs),
(416,544,o),
(445,524,o),
(445,489,cs),
(445,484,o),
(445,481,o),
(444,474,c),
(636,474,l),
(640,494,o),
(640,506,o),
(640,517,cs),
(640,641,o),
(521,696,o),
(380,696,cs),
(192,696,o),
(66,611,o),
(66,454,cs),
(66,234,o),
(397,283,o),
(397,199,cs),
(397,175,o),
(382,151,o),
(298,151,cs),
(233,151,o),
(208,180,o),
(208,212,cs),
(208,220,o),
(209,227,o),
(212,234,c),
(18,234,l),
(13,215,o),
(12,198,o),
(12,177,cs),
(12,47,o),
(135,-10,o),
(276,-10,cs)
);
}
);
width = 651;
},
{
anchors = (
{
name = bottom;
pos = (280,0);
},
{
name = top;
pos = (360,686);
}
);
background = {
anchors = (
{
name = bottom;
pos = (280,0);
},
{
name = top;
pos = (360,686);
}
);
shapes = (
{
closed = 1;
nodes = (
(452,-10,o),
(570,67,o),
(570,223,cs),
(570,449,o),
(208,367,o),
(208,502,cs),
(208,563,o),
(266,596,o),
(358,596,cs),
(428,596,o),
(474,564,o),
(474,514,cs),
(474,508,o),
(474,502,o),
(471,488,c),
(590,488,l),
(594,508,o),
(594,521,o),
(594,531,cs),
(594,647,o),
(492,696,o),
(366,696,cs),
(203,696,o),
(84,626,o),
(84,486,cs),
(84,254,o),
(444,339,o),
(444,201,cs),
(444,132,o),
(389,90,o),
(276,90,cs),
(190,90,o),
(147,125,o),
(147,183,cs),
(147,191,o),
(148,214,o),
(152,219,c),
(32,219,l),
(28,206,o),
(25,181,o),
(25,164,cs),
(25,38,o),
(128,-10,o),
(261,-10,cs)
);
}
);
};
layerId = "EDCD8328-1E0F-4D00-9253-D58387328EFF";
shapes = (
{
closed = 1;
nodes = (
(452,-10,o),
(570,67,o),
(570,223,cs),
(570,449,o),
(208,367,o),
(208,502,cs),
(208,563,o),
(266,596,o),
(358,596,cs),
(428,596,o),
(474,564,o),
(474,514,cs),
(474,508,o),
(474,502,o),
(471,488,c),
(590,488,l),
(594,508,o),
(594,521,o),
(594,531,cs),
(594,647,o),
(492,696,o),
(366,696,cs),
(203,696,o),
(84,626,o),
(84,486,cs),
(84,254,o),
(444,339,o),
(444,201,cs),
(444,132,o),
(389,90,o),
(276,90,cs),
(190,90,o),
(147,125,o),
(147,183,cs),
(147,191,o),
(148,214,o),
(152,219,c),
(32,219,l),
(28,206,o),
(25,181,o),
(25,164,cs),
(25,38,o),
(128,-10,o),
(261,-10,cs)
);
}
);
width = 632;
}
);
note = S;
unicode = 83;
},
{
color = 4;
glyphname = Germandbls;
kernLeft = Germandbls;
kernRight = Germandbls;
layers = (
{
layerId = "4BBFD287-7A5F-4332-B846-65FFBCBF0D57";
shapes = (
{
closed = 1;
nodes = (
(515,-10,o),
(615,74,o),
(615,205,cs),
(615,280,o),
(571,332,o),
(510,351,c),
(511,355,l),
(585,384,o),
(645,441,o),
(645,536,cs),
(645,641,o),
(543,696,o),
(419,696,cs),
(278,696,o),
(153,625,o),
(126,436,cs),
(65,0,l),
(119,0,l),
(181,441,ls),
(203,599,o),
(300,648,o),
(415,648,cs),
(516,648,o),
(590,609,o),
(590,528,cs),
(590,434,o),
(508,375,o),
(405,375,cs),
(313,375,l),
(307,327,l),
(404,327,ls),
(492,327,o),
(562,288,o),
(562,205,cs),
(562,106,o),
(495,36,o),
(386,36,cs),
(289,36,o),
(247,75,o),
(247,159,cs),
(247,171,o),
(248,185,o),
(250,199,c),
(197,199,l),
(194,180,o),
(192,163,o),
(192,147,cs),
(192,41,o),
(260,-10,o),
(381,-10,cs)
);
}
);
width = 698;
},
{
layerId = "4FDE33F5-0064-4818-A7C2-FB87252213B5";
shapes = (
{
closed = 1;
nodes = (
(662,-10,o),
(778,74,o),
(778,219,cs),
(778,289,o),
(734,339,o),
(681,358,c),
(681,362,l),
(741,386,o),
(795,438,o),
(795,514,cs),
(795,629,o),
(660,696,o),
(482,696,cs),
(261,696,o),
(98,607,o),
(62,356,cs),
(11,0,l),
(236,0,l),
(294,416,ls),
(309,520,o),
(365,547,o),
(460,547,cs),
(536,547,o),
(595,534,o),
(595,484,cs),
(595,433,o),
(558,412,o),
(521,412,cs),
(413,412,l),
(395,289,l),
(519,289,ls),
(554,289,o),
(580,271,o),
(580,231,cs),
(580,182,o),
(568,139,o),
(517,139,cs),
(479,139,o),
(470,157,o),
(470,189,cs),
(470,195,o),
(470,202,o),
(471,209,c),
(295,209,l),
(292,192,o),
(291,176,o),
(291,160,cs),
(291,48,o),
(355,-10,o),
(500,-10,cs)
);
}
);
width = 817;
},
{
layerId = "EDCD8328-1E0F-4D00-9253-D58387328EFF";
shapes = (
{
closed = 1;
nodes = (
(579,-10,o),
(689,75,o),
(689,213,cs),
(689,288,o),
(645,336,o),
(587,353,c),
(587,357,l),
(649,378,o),
(713,432,o),
(713,523,cs),
(713,635,o),
(601,696,o),
(452,696,cs),
(266,696,o),
(118,621,o),
(86,392,cs),
(31,0,l),
(154,0,l),
(213,418,ls),
(231,550,o),
(320,593,o),
(430,593,cs),
(528,593,o),
(588,564,o),
(588,503,cs),
(588,433,o),
(534,398,o),
(458,398,cs),
(358,398,l),
(344,300,l),
(438,300,ls),
(516,300,o),
(567,279,o),
(567,217,cs),
(567,139,o),
(526,93,o),
(438,93,cs),
(374,93,o),
(345,114,o),
(345,169,cs),
(345,179,o),
(346,190,o),
(348,203,c),
(232,203,l),
(229,187,o),
(228,171,o),
(228,157,cs),
(228,44,o),
(298,-10,o),
(432,-10,cs)
);
}
);
width = 756;
}
);
unicode = 7838;
},
{
color = 4;
glyphname = T;
kernLeft = T;
kernRight = T;
layers = (
{
anchors = (
{
name = bottom;
pos = (253,0);
},
{
name = center;
pos = (301,334);
},
{
name = top;
pos = (345,686);
}
);
background = {
anchors = (
{
name = bottom;
pos = (253,0);
},
{
name = center;
pos = (301,334);
},
{
name = top;
pos = (350,686);
}
);
shapes = (
{
closed = 1;
nodes = (
(279,0,l),
(369,638,l),
(600,638,l),
(607,686,l),
(91,686,l),
(84,638,l),
(315,638,l),
(225,0,l)
);
}
);
};
layerId = "4BBFD287-7A5F-4332-B846-65FFBCBF0D57";
shapes = (
{
closed = 1;
nodes = (
(279,0,l),
(369,638,l),
(600,638,l),
(607,686,l),
(91,686,l),
(84,638,l),
(315,638,l),
(225,0,l)
);
}
);
width = 576;
},
{
anchors = (
{
name = bottom;
pos = (251,0);
},
{
name = center;
pos = (298,334);
},
{
name = top;
pos = (341,686);
}
);
background = {
anchors = (
{
name = bottom;
pos = (251,0);
},
{
name = center;
pos = (298,334);
},
{
name = top;
pos = (341,686);
}
);
shapes = (
{
closed = 1;
nodes = (
(356,0,l),
(429,521,l),
(603,521,l),
(626,686,l),
(70,686,l),
(47,521,l),
(219,521,l),
(145,0,l)
);
}
);
};
layerId = "4FDE33F5-0064-4818-A7C2-FB87252213B5";
shapes = (
{
closed = 1;
nodes = (
(356,0,l),
(429,521,l),
(603,521,l),
(626,686,l),
(70,686,l),
(47,521,l),
(219,521,l),
(145,0,l)
);
}
);
width = 585;
},
{
anchors = (
{
name = bottom;
pos = (240,0);
},
{
name = center;
pos = (284,334);
},
{
name = top;
pos = (331,686);
}
);
background = {
anchors = (
{
name = bottom;
pos = (240,0);
},
{
name = center;
pos = (284,334);
},
{
name = top;
pos = (331,686);
}
);
shapes = (
{
closed = 1;
nodes = (
(300,0,l),
(382,581,l),
(587,581,l),
(602,686,l),
(68,686,l),
(53,581,l),
(258,581,l),
(177,0,l)
);
}
);
};
layerId = "EDCD8328-1E0F-4D00-9253-D58387328EFF";
shapes = (
{
closed = 1;
nodes = (
(300,0,l),
(382,581,l),
(587,581,l),
(602,686,l),
(68,686,l),
(53,581,l),
(258,581,l),
(177,0,l)
);
}
);
width = 567;
}
);
note = T;
unicode = 84;
},
{
color = 4;
glyphname = U;
kernLeft = U;
kernRight = U;
layers = (
{
anchors = (
{
name = bottom;
pos = (296,0);
},
{
name = center;
pos = (353,382);
},
{
name = ogonek;
pos = (339,0);
},
{
name = top;
pos = (390,686);
},
{
name = topright;
pos = (467,724);
}
);
background = {
anchors = (
{
name = bottom;
pos = (296,0);
},
{
name = center;
pos = (353,382);
},
{
name = ogonek;
pos = (339,0);
},
{
name = top;
pos = (395,686);
},
{
name = topright;
pos = (467,724);
}
);
shapes = (
{
closed = 1;
nodes = (
(306,-10,ls),
(446,-10,o),
(555,82,o),
(574,220,cs),
(639,686,l),
(585,686,l),
(520,222,ls),
(505,114,o),
(428,38,o),
(309,38,cs),
(204,38,o),
(147,96,o),
(147,187,cs),
(147,211,o),
(158,281,o),
(215,686,c),
(162,686,ls),
(162,686,o),
(94,233,o),
(94,180,cs),
(94,64,o),
(174,-10,o),
(302,-10,cs)
);
}
);
};
layerId = "4BBFD287-7A5F-4332-B846-65FFBCBF0D57";
shapes = (
{
closed = 1;
nodes = (
(306,-10,ls),
(446,-10,o),
(555,82,o),
(574,220,cs),
(639,686,l),
(585,686,l),
(520,222,ls),
(505,114,o),
(428,38,o),
(309,38,cs),
(204,38,o),
(147,96,o),
(147,187,cs),
(147,211,o),
(158,281,o),
(215,686,c),
(162,686,ls),
(162,686,o),
(94,233,o),
(94,180,cs),
(94,64,o),
(174,-10,o),
(302,-10,cs)
);
}
);
width = 679;
},
{
anchors = (
{
name = bottom;
pos = (305,0);
},
{
name = center;
pos = (360,387);
},
{
name = ogonek;
pos = (346,0);
},
{
name = top;
pos = (395,686);
},
{
name = topright;
pos = (450,712);
}
);
background = {
anchors = (
{
name = bottom;
pos = (305,0);
},
{
name = center;
pos = (360,387);
},
{
name = ogonek;
pos = (346,0);
},
{
name = top;
pos = (395,686);
},
{
name = topright;
pos = (450,712);
}
);
shapes = (
{
closed = 1;
nodes = (
(323,-10,ls),
(504,-10,o),
(606,80,o),
(625,218,cs),
(690,686,l),
(480,686,l),
(415,221,ls),
(409,177,o),
(379,146,o),
(324,146,cs),
(283,146,o),
(257,163,o),
(257,203,cs),
(257,241,o),
(268,313,o),
(318,686,c),
(107,686,l),
(57,318,o),
(45,240,o),
(45,181,cs),
(45,67,o),
(131,-10,o),
(280,-10,cs)
);
}
);
};
layerId = "4FDE33F5-0064-4818-A7C2-FB87252213B5";
shapes = (
{
closed = 1;
nodes = (
(323,-10,ls),
(504,-10,o),
(606,80,o),
(625,218,cs),
(690,686,l),
(480,686,l),
(415,221,ls),
(409,177,o),
(379,146,o),
(324,146,cs),
(283,146,o),
(257,163,o),
(257,203,cs),
(257,241,o),
(268,313,o),
(318,686,c),
(107,686,l),
(57,318,o),
(45,240,o),
(45,181,cs),
(45,67,o),
(131,-10,o),
(280,-10,cs)
);
}
);
width = 687;
},
{
anchors = (
{
name = bottom;
pos = (298,0);
},
{
name = center;
pos = (342,387);
},
{
name = ogonek;
pos = (340,0);
},
{
name = top;
pos = (384,686);
},
{
name = topright;
pos = (456,720);
}
);
background = {
anchors = (
{
name = bottom;
pos = (298,0);
},
{
name = center;
pos = (342,387);
},
{
name = ogonek;
pos = (340,0);
},
{
name = top;
pos = (384,686);
},
{
name = topright;
pos = (456,720);
}
);
shapes = (
{
closed = 1;
nodes = (
(303,-10,ls),
(462,-10,o),
(568,77,o),
(588,219,cs),
(653,686,l),
(529,686,l),
(464,221,ls),
(454,146,o),
(393,94,o),
(308,94,cs),
(231,94,o),
(188,128,o),
(188,193,cs),
(188,245,o),
(205,356,o),
(252,686,c),
(128,686,l),
(81,348,o),
(63,225,o),
(63,176,cs),
(63,66,o),
(144,-10,o),
(283,-10,cs)
);
}
);
};
layerId = "EDCD8328-1E0F-4D00-9253-D58387328EFF";
shapes = (
{
closed = 1;
nodes = (
(303,-10,ls),
(462,-10,o),
(568,77,o),
(588,219,cs),
(653,686,l),
(529,686,l),
(464,221,ls),
(454,146,o),
(393,94,o),
(308,94,cs),
(231,94,o),
(188,128,o),
(188,193,cs),
(188,245,o),
(205,356,o),
(252,686,c),
(128,686,l),
(81,348,o),
(63,225,o),
(63,176,cs),
(63,66,o),
(144,-10,o),
(283,-10,cs)
);
}
);
width = 678;
}
);
note = U;
unicode = 85;
},
{
color = 3;
glyphname = Ubar;
layers = (
{
layerId = "4BBFD287-7A5F-4332-B846-65FFBCBF0D57";
shapes = (
{
ref = U;
},
{
closed = 1;
nodes = (
(61,359,l),
(643,359,l),
(649,407,l),
(67,407,l)
);
}
);
width = 679;
},
{
layerId = "EDCD8328-1E0F-4D00-9253-D58387328EFF";
shapes = (
{
ref = U;
},
{
closed = 1;
nodes = (
(25,339,l),
(660,339,l),
(674,438,l),
(39,438,l)
);
}
);
width = 678;
},
{
background = {
shapes = (
{
alignment = -1;
pos = (52,-14);
ref = baraccentlongcomb;
}
);
};
layerId = "4FDE33F5-0064-4818-A7C2-FB87252213B5";
shapes = (
{
ref = U;
},
{
closed = 1;
nodes = (
(8,325,l),
(690,325,l),
(708,451,l),
(26,451,l)
);
}
);
width = 687;
}
);
unicode = 580;
},
{
color = 1;
glyphname = Uogonek;
kernLeft = U;
kernRight = U;
layers = (
{
background = {
shapes = (
{
closed = 1;
nodes = (
(565,686,l),
(500,222,ls),
(485,114,o),
(408,38,o),
(289,38,cs),
(184,38,o),
(128,96,o),
(128,187,cs),
(128,214,o),
(129,210,o),
(196,686,c),
(142,686,ls),
(142,686,o),
(74,233,o),
(74,180,cs),
(74,64,o),
(153,-10,o),
(283,-10,cs),
(289,-10,l),
(263,-28,o),
(240,-50,o),
(240,-83,cs),
(240,-129,o),
(284,-143,o),
(327,-143,cs),
(356,-143,o),
(387,-135,o),
(415,-119,c),
(406,-86,l),
(384,-93,o),
(361,-100,o),
(337,-100,cs),
(318,-100,o),
(298,-93,o),
(298,-67,cs),
(298,-37,o),
(326,-18,o),
(349,-3,c),
(459,20,o),
(537,103,o),
(554,220,cs),
(619,686,l)
);
}
);
};
layerId = "4BBFD287-7A5F-4332-B846-65FFBCBF0D57";
shapes = (
{
ref = U;
},
{
pos = (112,0);
ref = ogonekcomb;
}
);
width = 679;
},
{
background = {
shapes = (
{
closed = 1;
nodes = (
(480,686,l),
(415,221,ls),
(409,177,o),
(379,146,o),
(324,146,cs),
(283,146,o),
(252,171,o),
(252,210,cs),
(252,215,o),
(252,218,o),
(253,221,c),
(318,686,l),
(107,686,l),
(42,218,ls),
(40,206,o),
(39,194,o),
(39,182,cs),
(39,65,o),
(131,-10,o),
(280,-10,cs),
(323,-10,l),
(343,-10,l),
(316,-27,o),
(293,-50,o),
(293,-83,cs),
(293,-128,o),
(337,-143,o),
(380,-143,cs),
(416,-143,o),
(453,-135,o),
(488,-119,c),
(481,-76,l),
(458,-84,o),
(435,-90,o),
(412,-90,cs),
(393,-90,o),
(372,-83,o),
(372,-62,cs),
(372,-31,o),
(405,-13,o),
(428,0,c),
(420,0,l),
(540,27,o),
(608,107,o),
(625,218,cs),
(690,686,l)
);
}
);
};
layerId = "4FDE33F5-0064-4818-A7C2-FB87252213B5";
shapes = (
{
ref = U;
},
{
pos = (99,0);
ref = ogonekcomb;
}
);
width = 687;
},
{
layerId = "EDCD8328-1E0F-4D00-9253-D58387328EFF";
shapes = (
{
ref = U;
},
{
pos = (108,0);
ref = ogonekcomb;
}
);
width = 678;
}
);
note = Uogonek;
unicode = 370;
},
{
color = 4;
glyphname = V;
kernLeft = V;
kernRight = V;
layers = (
{
layerId = "4BBFD287-7A5F-4332-B846-65FFBCBF0D57";
shapes = (
{
closed = 1;
nodes = (
(290,0,l),
(646,686,l),
(593,686,l),
(283,86,l),
(278,86,l),
(138,686,l),
(79,686,l),
(242,0,l)
);
}
);
width = 602;
},
{
layerId = "4FDE33F5-0064-4818-A7C2-FB87252213B5";
shapes = (
{
closed = 1;
nodes = (
(409,0,l),
(714,686,l),
(512,686,l),
(333,260,l),
(329,260,l),
(269,686,l),
(51,686,l),
(159,0,l)
);
}
);
width = 655;
},
{
layerId = "EDCD8328-1E0F-4D00-9253-D58387328EFF";
shapes = (
{
closed = 1;
nodes = (
(333,0,l),
(666,686,l),
(546,686,l),
(296,162,l),
(290,162,l),
(188,686,l),
(57,686,l),
(195,0,l)
);
}
);
width = 621;
}
);
note = V;
unicode = 86;
},
{
color = 4;
glyphname = W;
kernLeft = V;
kernRight = V;
layers = (
{
anchors = (
{
name = top;
pos = (521,686);
}
);
layerId = "4BBFD287-7A5F-4332-B846-65FFBCBF0D57";
shapes = (
{
closed = 1;
nodes = (
(251,0,l),
(502,581,l),
(506,581,l),
(593,0,l),
(639,0,l),
(936,686,l),
(886,686,l),
(637,107,l),
(633,107,l),
(548,686,l),
(498,686,l),
(249,107,l),
(245,107,l),
(160,686,l),
(102,686,l),
(205,0,l)
);
}
);
width = 914;
},
{
anchors = (
{
name = top;
pos = (568,686);
}
);
layerId = "4FDE33F5-0064-4818-A7C2-FB87252213B5";
shapes = (
{
closed = 1;
nodes = (
(385,0,l),
(515,329,l),
(521,329,l),
(557,0,l),
(795,0,l),
(1078,686,l),
(881,686,l),
(730,305,l),
(726,305,l),
(684,686,l),
(469,686,l),
(317,305,l),
(313,305,l),
(270,686,l),
(53,686,l),
(143,0,l)
);
}
);
width = 1022;
},
{
anchors = (
{
name = top;
pos = (522,686);
}
);
layerId = "EDCD8328-1E0F-4D00-9253-D58387328EFF";
shapes = (
{
closed = 1;
nodes = (
(291,0,l),
(486,457,l),
(493,457,l),
(555,0,l),
(687,0,l),
(981,686,l),
(863,686,l),
(660,200,l),
(654,200,l),
(589,686,l),
(466,686,l),
(263,200,l),
(257,200,l),
(192,686,l),
(61,686,l),
(158,0,l)
);
}
);
width = 941;
}
);
note = W;
unicode = 87;
},
{
color = 4;
glyphname = X;
kernLeft = X;
kernRight = X;
layers = (
{
layerId = "4BBFD287-7A5F-4332-B846-65FFBCBF0D57";
shapes = (
{
closed = 1;
nodes = (
(51,0,l),
(319,315,l),
(323,315,l),
(499,0,l),
(564,0,l),
(360,359,l),
(639,686,l),
(580,686,l),
(339,402,l),
(335,402,l),
(177,686,l),
(112,686,l),
(298,359,l),
(-7,0,l)
);
}
);
width = 628;
},
{
layerId = "4FDE33F5-0064-4818-A7C2-FB87252213B5";
shapes = (
{
closed = 1;
nodes = (
(169,0,l),
(314,213,l),
(318,213,l),
(404,0,l),
(648,0,l),
(484,362,l),
(724,686,l),
(499,686,l),
(379,511,l),
(375,511,l),
(305,686,l),
(62,686,l),
(209,363,l),
(-56,0,l)
);
}
);
width = 672;
},
{
layerId = "EDCD8328-1E0F-4D00-9253-D58387328EFF";
shapes = (
{
closed = 1;
nodes = (
(95,0,l),
(308,261,l),
(312,261,l),
(446,0,l),
(593,0,l),
(403,361,l),
(668,685,l),
(533,685,l),
(347,457,l),
(343,457,l),
(226,685,l),
(80,685,l),
(252,357,l),
(-39,0,l)
);
}
);
width = 642;
}
);
note = X;
unicode = 88;
},
{
color = 4;
glyphname = Y;
kernLeft = Y;
kernRight = Y;
layers = (
{
anchors = (
{
name = bottom;
pos = (248,0);
},
{
name = top;
pos = (346,686);
}
);
background = {
anchors = (
{
name = bottom;
pos = (248,0);
},
{
name = top;
pos = (346,686);
}
);
shapes = (
{
closed = 1;
nodes = (
(274,0,l),
(312,266,l),
(617,686,l),
(562,686,l),
(297,321,l),
(292,321,l),
(134,686,l),
(71,686,l),
(258,266,l),
(220,0,l)
);
}
);
};
layerId = "4BBFD287-7A5F-4332-B846-65FFBCBF0D57";
shapes = (
{
closed = 1;
nodes = (
(274,0,l),
(312,266,l),
(617,686,l),
(562,686,l),
(297,321,l),
(292,321,l),
(134,686,l),
(71,686,l),
(258,266,l),
(220,0,l)
);
}
);
width = 570;
},
{
anchors = (
{
name = bottom;
pos = (280,0);
},
{
name = top;
pos = (378,686);
}
);
background = {
anchors = (
{
name = bottom;
pos = (280,0);
},
{
name = top;
pos = (378,686);
}
);
shapes = (
{
closed = 1;
nodes = (
(384,0,l),
(421,262,l),
(708,686,l),
(493,686,l),
(356,461,l),
(351,461,l),
(280,686,l),
(44,686,l),
(212,262,l),
(175,0,l)
);
}
);
};
layerId = "4FDE33F5-0064-4818-A7C2-FB87252213B5";
shapes = (
{
closed = 1;
nodes = (
(384,0,l),
(421,262,l),
(708,686,l),
(493,686,l),
(356,461,l),
(351,461,l),
(280,686,l),
(44,686,l),
(212,262,l),
(175,0,l)
);
}
);
width = 644;
},
{
anchors = (
{
name = bottom;
pos = (255,0);
},
{
name = top;
pos = (346,686);
}
);
background = {
anchors = (
{
name = bottom;
pos = (248,0);
},
{
name = top;
pos = (346,686);
}
);
shapes = (
{
closed = 1;
nodes = (
(317,0,l),
(354,264,l),
(652,686,l),
(524,686,l),
(319,389,l),
(314,389,l),
(192,686,l),
(52,686,l),
(231,264,l),
(193,0,l)
);
}
);
};
layerId = "EDCD8328-1E0F-4D00-9253-D58387328EFF";
shapes = (
{
closed = 1;
nodes = (
(317,0,l),
(354,264,l),
(652,686,l),
(524,686,l),
(319,389,l),
(314,389,l),
(192,686,l),
(52,686,l),
(231,264,l),
(193,0,l)
);
}
);
width = 601;
}
);
note = Y;
unicode = 89;
},
{
color = 4;
glyphname = Z;
kernLeft = Z;
kernRight = Z;
layers = (
{
anchors = (
{
name = top;
pos = (361,686);
}
);
layerId = "4BBFD287-7A5F-4332-B846-65FFBCBF0D57";
shapes = (
{
closed = 1;
nodes = (
(514,0,l),
(521,48,l),
(99,48,l),
(599,662,l),
(603,686,l),
(132,686,l),
(125,638,l),
(514,638,l),
(15,25,l),
(11,0,l)
);
}
);
width = 595;
},
{
anchors = (
{
name = top;
pos = (336,686);
}
);
layerId = "4FDE33F5-0064-4818-A7C2-FB87252213B5";
shapes = (
{
closed = 1;
nodes = (
(543,0,l),
(566,161,l),
(294,161,l),
(623,625,l),
(632,686,l),
(93,686,l),
(70,526,l),
(315,526,l),
(-18,61,l),
(-27,0,l)
);
}
);
width = 607;
},
{
anchors = (
{
name = top;
pos = (365,686);
}
);
layerId = "EDCD8328-1E0F-4D00-9253-D58387328EFF";
shapes = (
{
closed = 1;
nodes = (
(526,0,l),
(541,105,l),
(191,105,l),
(609,642,l),
(615,686,l),
(113,686,l),
(98,581,l),
(416,581,l),
(-2,43,l),
(-8,0,l)
);
}
);
width = 612;
}
);
note = Z;
unicode = 90;
},
{
color = 4;
glyphname = Ismall;
layers = (
{
layerId = "4BBFD287-7A5F-4332-B846-65FFBCBF0D57";
shapes = (
{
closed = 1;
nodes = (
(267,0,l),
(274,46,l),
(158,46,l),
(216,465,l),
(332,465,l),
(339,511,l),
(56,511,l),
(49,465,l),
(165,465,l),
(107,46,l),
(-9,46,l),
(-16,0,l)
);
}
);
width = 323;
},
{
layerId = "EDCD8328-1E0F-4D00-9253-D58387328EFF";
shapes = (
{
closed = 1;
nodes = (
(310,0,l),
(323,89,l),
(218,89,l),
(264,422,l),
(369,422,l),
(382,511,l),
(56,511,l),
(43,422,l),
(148,422,l),
(102,89,l),
(-3,89,l),
(-16,0,l)
);
}
);
width = 366;
},
{
layerId = "4FDE33F5-0064-4818-A7C2-FB87252213B5";
shapes = (
{
closed = 1;
nodes = (
(372,0,l),
(392,142,l),
(292,142,l),
(324,369,l),
(424,369,l),
(444,511,l),
(46,511,l),
(26,369,l),
(126,369,l),
(94,142,l),
(-6,142,l),
(-26,0,l)
);
}
);
width = 418;
}
);
unicode = 618;
},
{
color = 3;
glyphname = Ismallstroke;
layers = (
{
layerId = "4BBFD287-7A5F-4332-B846-65FFBCBF0D57";
shapes = (
{
ref = idotless;
},
{
closed = 1;
nodes = (
(40,254,l),
(200,254,l),
(206,300,l),
(46,300,l)
);
}
);
width = 252;
},
{
background = {
shapes = (
{
closed = 1;
nodes = (
(346,216,l),
(346,295,l),
(20,295,l),
(20,216,l)
);
},
{
ref = Ismall;
}
);
};
layerId = "EDCD8328-1E0F-4D00-9253-D58387328EFF";
shapes = (
{
ref = idotless;
},
{
closed = 1;
nodes = (
(2,232,l),
(255,232,l),
(269,326,l),
(16,326,l)
);
}
);
width = 269;
},
{
background = {
shapes = (
{
closed = 1;
nodes = (
(408,192,l),
(408,318,l),
(10,318,l),
(10,192,l)
);
},
{
ref = Ismall;
}
);
};
layerId = "4FDE33F5-0064-4818-A7C2-FB87252213B5";
shapes = (
{
ref = idotless;
},
{
closed = 1;
nodes = (
(-14,198,l),
(286,198,l),
(304,326,l),
(4,326,l)
);
}
);
width = 296;
}
);
unicode = 7547;
},
{
color = 4;
glyphname = a;
kernLeft = o;
kernRight = a;
layers = (
{
anchors = (
{
name = bottom;
pos = (278,0);
},
{
name = ogonek;
pos = (477,0);
},
{
name = top;
pos = (326,511);
}
);
background = {
anchors = (
{
name = bottom;
pos = (259,0);
},
{
name = ogonek;
pos = (477,0);
},
{
name = top;
pos = (315,511);
}
);
shapes = (
{
closed = 1;
nodes = (
(311,-10,o),
(372,18,o),
(414,77,c),
(402,21,o),
(428,-10,o),
(469,-10,cs),
(492,-10,o),
(513,-3,o),
(532,9,c),
(538,52,l),
(521,43,o),
(500,36,o),
(485,36,cs),
(472,36,o),
(462,43,o),
(462,61,cs),
(462,73,o),
(483,225,o),
(524,511,c),
(491,511,l),
(467,440,l),
(463,440,l),
(437,490,o),
(384,521,o),
(312,521,cs),
(137,521,o),
(67,344,o),
(67,190,cs),
(67,50,o),
(142,-10,o),
(239,-10,cs)
);
},
{
closed = 1;
nodes = (
(152,36,o),
(118,104,o),
(118,197,cs),
(118,222,o),
(121,249,o),
(125,277,cs),
(141,378,o),
(198,475,o),
(310,475,cs),
(402,475,o),
(443,412,o),
(443,315,cs),
(443,283,o),
(439,248,o),
(430,210,cs),
(408,113,o),
(355,36,o),
(249,36,cs)
);
}
);
};
layerId = "4BBFD287-7A5F-4332-B846-65FFBCBF0D57";
shapes = (
{
closed = 1;
nodes = (
(311,-10,o),
(372,18,o),
(414,77,c),
(402,21,o),
(428,-10,o),
(469,-10,cs),
(492,-10,o),
(513,-3,o),
(532,9,c),
(538,52,l),
(521,43,o),
(500,36,o),
(485,36,cs),
(472,36,o),
(462,43,o),
(462,61,cs),
(462,73,o),
(483,225,o),
(524,511,c),
(491,511,l),
(467,440,l),
(463,440,l),
(437,490,o),
(384,521,o),
(312,521,cs),
(137,521,o),
(67,344,o),
(67,190,cs),
(67,50,o),
(142,-10,o),
(239,-10,cs)
);
},
{
closed = 1;
nodes = (
(152,36,o),
(118,104,o),
(118,197,cs),
(118,222,o),
(121,249,o),
(125,277,cs),
(141,378,o),
(198,475,o),
(310,475,cs),
(402,475,o),
(443,412,o),
(443,315,cs),
(443,283,o),
(439,248,o),
(430,210,cs),
(408,113,o),
(355,36,o),
(249,36,cs)
);
}
);
width = 607;
},
{
anchors = (
{
name = bottom;
pos = (279,0);
},
{
name = ogonek;
pos = (484,5);
},
{
name = top;
pos = (328,511);
}
);
background = {
anchors = (
{
name = bottom;
pos = (266,0);
},
{
name = ogonek;
pos = (484,5);
},
{
name = top;
pos = (318,511);
}
);
shapes = (
{
closed = 1;
nodes = (
(245,-10,o),
(302,24,o),
(337,68,c),
(353,0,o),
(413,-10,o),
(473,-10,cs),
(505,-10,o),
(547,-2,o),
(576,13,c),
(591,123,l),
(580,116,o),
(567,110,o),
(554,110,cs),
(535,110,o),
(528,122,o),
(528,137,cs),
(528,169,o),
(553,344,o),
(581,511,c),
(432,511,l),
(398,450,l),
(393,450,l),
(364,497,o),
(310,521,o),
(257,521,cs),
(86,521,o),
(17,356,o),
(17,193,cs),
(17,81,o),
(64,-10,o),
(188,-10,cs)
);
},
{
closed = 1;
nodes = (
(235,111,o),
(213,133,o),
(213,168,cs),
(213,183,o),
(219,239,o),
(232,328,cs),
(238,370,o),
(265,396,o),
(302,396,cs),
(333,396,o),
(359,377,o),
(359,338,cs),
(359,330,o),
(353,290,o),
(338,181,cs),
(332,142,o),
(309,111,o),
(266,111,cs)
);
}
);
};
layerId = "4FDE33F5-0064-4818-A7C2-FB87252213B5";
shapes = (
{
closed = 1;
nodes = (
(245,-10,o),
(302,24,o),
(337,68,c),
(353,0,o),
(413,-10,o),
(473,-10,cs),
(505,-10,o),
(547,-2,o),
(576,13,c),
(591,123,l),
(580,116,o),
(567,110,o),
(554,110,cs),
(535,110,o),
(528,122,o),
(528,137,cs),
(528,169,o),
(553,344,o),
(581,511,c),
(432,511,l),
(398,450,l),
(393,450,l),
(364,497,o),
(310,521,o),
(257,521,cs),
(86,521,o),
(17,356,o),
(17,193,cs),
(17,81,o),
(64,-10,o),
(188,-10,cs)
);
},
{
closed = 1;
nodes = (
(235,111,o),
(213,133,o),
(213,168,cs),
(213,183,o),
(219,239,o),
(232,328,cs),
(238,370,o),
(265,396,o),
(302,396,cs),
(333,396,o),
(359,377,o),
(359,338,cs),
(359,330,o),
(353,290,o),
(338,181,cs),
(332,142,o),
(309,111,o),
(266,111,cs)
);
}
);
width = 628;
},
{
anchors = (
{
name = bottom;
pos = (266,0);
},
{
name = ogonek;
pos = (475,1);
},
{
name = top;
pos = (321,511);
}
);
background = {
anchors = (
{
name = bottom;
pos = (256,0);
},
{
name = ogonek;
pos = (475,1);
},
{
name = top;
pos = (301,511);
}
);
shapes = (
{
closed = 1;
nodes = (
(276,-10,o),
(330,19,o),
(371,65,c),
(374,21,o),
(398,-10,o),
(461,-10,cs),
(496,-10,o),
(527,1,o),
(544,10,c),
(555,91,l),
(545,84,o),
(525,77,o),
(511,77,cs),
(496,77,o),
(486,84,o),
(486,102,cs),
(486,125,o),
(521,373,o),
(542,511,c),
(458,511,l),
(426,447,l),
(420,447,l),
(395,491,o),
(344,521,o),
(278,521,cs),
(139,521,o),
(37,389,o),
(37,190,cs),
(37,58,o),
(104,-10,o),
(210,-10,cs)
);
},
{
closed = 1;
nodes = (
(184,77,o),
(153,117,o),
(153,188,cs),
(153,205,o),
(154,223,o),
(162,281,cs),
(175,365,o),
(220,432,o),
(299,432,cs),
(366,432,o),
(395,389,o),
(395,318,cs),
(395,299,o),
(393,278,o),
(384,217,cs),
(370,131,o),
(320,77,o),
(250,77,cs)
);
}
);
};
layerId = "EDCD8328-1E0F-4D00-9253-D58387328EFF";
shapes = (
{
closed = 1;
nodes = (
(276,-10,o),
(330,19,o),
(371,65,c),
(374,21,o),
(398,-10,o),
(461,-10,cs),
(496,-10,o),
(527,1,o),
(544,10,c),
(555,91,l),
(545,84,o),
(525,77,o),
(511,77,cs),
(496,77,o),
(486,84,o),
(486,102,cs),
(486,125,o),
(521,373,o),
(542,511,c),
(458,511,l),
(426,447,l),
(420,447,l),
(395,491,o),
(344,521,o),
(278,521,cs),
(139,521,o),
(37,389,o),
(37,190,cs),
(37,58,o),
(104,-10,o),
(210,-10,cs)
);
},
{
closed = 1;
nodes = (
(184,77,o),
(153,117,o),
(153,188,cs),
(153,205,o),
(154,223,o),
(162,281,cs),
(175,365,o),
(220,432,o),
(299,432,cs),
(366,432,o),
(395,389,o),
(395,318,cs),
(395,299,o),
(393,278,o),
(384,217,cs),
(370,131,o),
(320,77,o),
(250,77,cs)
);
}
);
width = 603;
}
);
note = a;
unicode = 97;
},
{
color = 4;
glyphname = ae;
kernLeft = ae;
kernRight = e;
layers = (
{
anchors = (
{
name = top;
pos = (498,511);
}
);
layerId = "4BBFD287-7A5F-4332-B846-65FFBCBF0D57";
shapes = (
{
closed = 1;
nodes = (
(277,-10,o),
(372,23,o),
(423,118,c),
(445,35,o),
(511,-10,o),
(598,-10,cs),
(603,-10,ls),
(709,-10,o),
(805,63,o),
(823,189,c),
(773,189,l),
(758,84,o),
(684,36,o),
(605,36,cs),
(492,36,o),
(449,133,o),
(469,250,c),
(831,250,l),
(840,315,o),
(843,334,o),
(843,351,cs),
(843,460,o),
(766,521,o),
(669,521,cs),
(665,521,ls),
(593,521,o),
(532,489,o),
(486,430,c),
(473,491,o),
(417,521,o),
(324,521,cs),
(320,521,ls),
(206,521,o),
(105,469,o),
(105,355,c),
(154,355,l),
(164,435,o),
(208,475,o),
(314,475,cs),
(397,475,o),
(436,453,o),
(436,389,cs),
(436,375,o),
(436,375,o),
(425,296,c),
(231,296,o),
(52,285,o),
(52,105,cs),
(52,15,o),
(123,-10,o),
(198,-10,cs)
);
},
{
closed = 1;
nodes = (
(139,36,o),
(103,60,o),
(103,111,cs),
(103,248,o),
(254,250,o),
(418,250,c),
(413,216,ls),
(395,92,o),
(300,36,o),
(214,36,cs)
);
},
{
closed = 1;
nodes = (
(502,416,o),
(574,475,o),
(660,475,cs),
(764,475,o),
(802,405,o),
(788,296,c),
(477,296,l)
);
}
);
width = 902;
},
{
anchors = (
{
name = top;
pos = (503,511);
}
);
layerId = "4FDE33F5-0064-4818-A7C2-FB87252213B5";
shapes = (
{
closed = 1;
nodes = (
(263,-10,o),
(344,18,o),
(395,58,c),
(439,14,o),
(507,-10,o),
(588,-10,cs),
(603,-10,ls),
(760,-10,o),
(865,79,o),
(881,192,c),
(698,192,l),
(691,143,o),
(662,111,o),
(614,111,cs),
(542,111,o),
(542,149,o),
(554,229,c),
(887,229,l),
(893,263,o),
(898,293,o),
(898,330,cs),
(898,443,o),
(824,521,o),
(681,521,cs),
(656,521,ls),
(599,521,o),
(547,510,o),
(500,487,c),
(464,508,o),
(413,521,o),
(344,521,cs),
(311,521,ls),
(156,521,o),
(48,445,o),
(48,354,c),
(238,354,l),
(242,384,o),
(276,405,o),
(310,405,cs),
(342,405,o),
(367,388,o),
(367,356,cs),
(367,354,o),
(365,339,o),
(362,316,c),
(146,316,o),
(1,281,o),
(1,129,cs),
(1,11,o),
(99,-10,o),
(175,-10,cs)
);
},
{
closed = 1;
nodes = (
(238,111,o),
(211,118,o),
(211,149,cs),
(211,192,o),
(249,225,o),
(349,225,c),
(343,181,ls),
(337,138,o),
(300,111,o),
(265,111,cs)
);
},
{
closed = 1;
nodes = (
(573,373,o),
(603,400,o),
(647,400,cs),
(698,400,o),
(704,368,o),
(704,316,c),
(566,316,l)
);
}
);
width = 924;
},
{
anchors = (
{
name = top;
pos = (494,511);
}
);
layerId = "EDCD8328-1E0F-4D00-9253-D58387328EFF";
shapes = (
{
closed = 1;
nodes = (
(272,-10,o),
(346,26,o),
(401,91,c),
(434,25,o),
(499,-10,o),
(587,-10,cs),
(593,-10,ls),
(725,-10,o),
(827,70,o),
(843,190,c),
(732,190,l),
(727,154,o),
(701,76,o),
(603,76,cs),
(517,76,o),
(487,133,o),
(498,233,c),
(850,233,l),
(860,297,o),
(862,326,o),
(862,341,cs),
(862,452,o),
(788,521,o),
(669,521,cs),
(658,521,ls),
(593,521,o),
(535,502,o),
(489,464,c),
(462,500,o),
(408,521,o),
(327,521,cs),
(313,521,ls),
(175,521,o),
(74,452,o),
(74,354,c),
(188,354,l),
(198,409,o),
(234,436,o),
(302,436,cs),
(380,436,o),
(397,402,o),
(397,368,cs),
(397,359,o),
(396,345,o),
(390,309,c),
(180,309,o),
(23,284,o),
(23,113,cs),
(23,15,o),
(100,-10,o),
(178,-10,cs)
);
},
{
closed = 1;
nodes = (
(175,76,o),
(145,88,o),
(145,136,cs),
(145,212,o),
(234,232,o),
(379,232,c),
(375,206,l),
(363,124,o),
(295,76,o),
(231,76,cs)
);
},
{
closed = 1;
nodes = (
(530,390,o),
(580,435,o),
(650,435,cs),
(722,435,o),
(757,385,o),
(744,309,c),
(511,309,l)
);
}
);
width = 906;
}
);
note = ae;
unicode = 230;
},
{
color = 4;
glyphname = b;
kernLeft = h;
kernRight = o;
layers = (
{
layerId = "4BBFD287-7A5F-4332-B846-65FFBCBF0D57";
shapes = (
{
closed = 1;
nodes = (
(452,-10,o),
(516,189,o),
(516,323,cs),
(516,451,o),
(443,521,o),
(344,521,cs),
(272,521,o),
(209,490,o),
(169,440,c),
(209,720,l),
(158,720,l),
(57,0,l),
(78,0,l),
(109,85,l),
(138,21,o),
(191,-10,o),
(269,-10,cs)
);
},
{
closed = 1;
nodes = (
(173,36,o),
(138,105,o),
(138,195,cs),
(138,227,o),
(142,262,o),
(150,297,cs),
(172,396,o),
(227,475,o),
(332,475,cs),
(426,475,o),
(465,408,o),
(465,316,cs),
(465,290,o),
(462,263,o),
(457,234,cs),
(440,133,o),
(380,36,o),
(268,36,cs)
);
}
);
width = 581;
},
{
layerId = "4FDE33F5-0064-4818-A7C2-FB87252213B5";
shapes = (
{
closed = 1;
nodes = (
(495,-10,o),
(572,166,o),
(572,333,cs),
(572,464,o),
(504,521,o),
(411,521,cs),
(341,521,o),
(294,482,o),
(270,458,c),
(307,720,l),
(109,720,l),
(9,0,l),
(78,0,l),
(156,75,l),
(187,20,o),
(240,-10,o),
(312,-10,cs)
);
},
{
closed = 1;
nodes = (
(252,111,o),
(230,129,o),
(230,164,cs),
(230,182,o),
(236,221,o),
(251,326,cs),
(257,365,o),
(286,396,o),
(323,396,cs),
(354,396,o),
(376,379,o),
(376,341,cs),
(376,326,o),
(368,272,o),
(355,181,cs),
(349,142,o),
(326,111,o),
(283,111,cs)
);
}
);
width = 599;
},
{
layerId = "EDCD8328-1E0F-4D00-9253-D58387328EFF";
shapes = (
{
closed = 1;
nodes = (
(467,-10,o),
(537,176,o),
(537,325,cs),
(537,454,o),
(466,521,o),
(370,521,cs),
(299,521,o),
(243,486,o),
(210,449,c),
(249,720,l),
(131,720,l),
(30,0,l),
(74,0,l),
(126,80,l),
(156,20,o),
(209,-10,o),
(284,-10,cs)
);
},
{
closed = 1;
nodes = (
(204,77,o),
(176,116,o),
(176,188,cs),
(176,211,o),
(180,244,o),
(187,291,cs),
(201,377,o),
(251,432,o),
(322,432,cs),
(389,432,o),
(418,389,o),
(418,316,cs),
(418,293,o),
(414,255,o),
(407,211,cs),
(394,128,o),
(348,77,o),
(271,77,cs)
);
}
);
width = 588;
}
);
note = b;
unicode = 98;
},
{
color = 4;
glyphname = c;
kernLeft = o;
kernRight = c;
layers = (
{
anchors = (
{
name = bottom;
pos = (254,0);
},
{
name = top;
pos = (318,511);
}
);
background = {
anchors = (
{
name = bottom;
pos = (247,0);
},
{
name = top;
pos = (318,511);
}
);
shapes = (
{
closed = 1;
nodes = (
(250,-10,ls),
(361,-10,o),
(459,65,o),
(477,197,c),
(427,197,l),
(412,86,o),
(337,36,o),
(256,36,cs),
(160,36,o),
(118,103,o),
(118,200,cs),
(118,221,o),
(120,245,o),
(124,269,cs),
(142,376,o),
(199,475,o),
(316,475,cs),
(389,475,o),
(446,433,o),
(446,346,cs),
(446,336,o),
(445,325,o),
(444,314,c),
(494,314,l),
(496,327,o),
(496,339,o),
(496,351,cs),
(496,460,o),
(423,521,o),
(324,521,cs),
(321,521,ls),
(146,521,o),
(67,350,o),
(67,191,cs),
(67,62,o),
(139,-10,o),
(248,-10,cs)
);
}
);
};
layerId = "4BBFD287-7A5F-4332-B846-65FFBCBF0D57";
shapes = (
{
closed = 1;
nodes = (
(250,-10,ls),
(361,-10,o),
(459,65,o),
(477,197,c),
(427,197,l),
(412,86,o),
(337,36,o),
(256,36,cs),
(160,36,o),
(118,103,o),
(118,200,cs),
(118,221,o),
(120,245,o),
(124,269,cs),
(142,376,o),
(199,475,o),
(316,475,cs),
(389,475,o),
(446,433,o),
(446,346,cs),
(446,336,o),
(445,325,o),
(444,314,c),
(494,314,l),
(496,327,o),
(496,339,o),
(496,351,cs),
(496,460,o),
(423,521,o),
(324,521,cs),
(321,521,ls),
(146,521,o),
(67,350,o),
(67,191,cs),
(67,62,o),
(139,-10,o),
(248,-10,cs)
);
}
);
width = 546;
},
{
anchors = (
{
name = bottom;
pos = (252,0);
},
{
name = top;
pos = (312,511);
}
);
background = {
anchors = (
{
name = bottom;
pos = (252,0);
},
{
name = top;
pos = (312,511);
}
);
shapes = (
{
closed = 1;
nodes = (
(269,-10,ls),
(407,-10,o),
(512,68,o),
(533,207,c),
(375,207,l),
(368,133,o),
(331,111,o),
(286,111,cs),
(243,111,o),
(221,136,o),
(221,169,cs),
(221,195,o),
(231,256,o),
(243,330,cs),
(249,369,o),
(281,400,o),
(322,400,cs),
(357,400,o),
(382,377,o),
(382,342,cs),
(382,330,o),
(380,316,o),
(378,304,c),
(547,304,l),
(549,316,o),
(549,327,o),
(549,338,cs),
(550,445,o),
(474,521,o),
(336,521,cs),
(313,521,ls),
(128,521,o),
(16,372,o),
(16,210,cs),
(16,83,o),
(109,-10,o),
(246,-10,cs)
);
}
);
};
layerId = "4FDE33F5-0064-4818-A7C2-FB87252213B5";
shapes = (
{
closed = 1;
nodes = (
(269,-10,ls),
(407,-10,o),
(512,68,o),
(533,207,c),
(375,207,l),
(368,133,o),
(331,111,o),
(286,111,cs),
(243,111,o),
(221,136,o),
(221,169,cs),
(221,195,o),
(231,256,o),
(243,330,cs),
(249,369,o),
(281,400,o),
(322,400,cs),
(357,400,o),
(382,377,o),
(382,342,cs),
(382,330,o),
(380,316,o),
(378,304,c),
(547,304,l),
(549,316,o),
(549,327,o),
(549,338,cs),
(550,445,o),
(474,521,o),
(336,521,cs),
(313,521,ls),
(128,521,o),
(16,372,o),
(16,210,cs),
(16,83,o),
(109,-10,o),
(246,-10,cs)
);
}
);
width = 568;
},
{
anchors = (
{
name = bottom;
pos = (248,0);
},
{
name = top;
pos = (305,511);
}
);
background = {
anchors = (
{
name = bottom;
pos = (243,0);
},
{
name = top;
pos = (305,511);
}
);
shapes = (
{
closed = 1;
nodes = (
(255,-10,ls),
(380,-10,o),
(479,60,o),
(499,201,c),
(387,201,l),
(376,124,o),
(332,77,o),
(258,77,cs),
(186,77,o),
(158,131,o),
(158,195,cs),
(158,218,o),
(162,256,o),
(169,300,cs),
(182,383,o),
(226,434,o),
(307,434,cs),
(370,434,o),
(399,394,o),
(399,336,cs),
(399,327,o),
(398,318,o),
(397,309,c),
(514,309,l),
(516,321,o),
(516,333,o),
(516,344,cs),
(516,455,o),
(431,521,o),
(322,521,cs),
(310,521,ls),
(120,521,o),
(39,371,o),
(39,194,cs),
(39,66,o),
(121,-10,o),
(243,-10,cs)
);
}
);
};
layerId = "EDCD8328-1E0F-4D00-9253-D58387328EFF";
shapes = (
{
closed = 1;
nodes = (
(255,-10,ls),
(380,-10,o),
(479,60,o),
(499,201,c),
(387,201,l),
(376,124,o),
(332,77,o),
(258,77,cs),
(186,77,o),
(158,131,o),
(158,195,cs),
(158,218,o),
(162,256,o),
(169,300,cs),
(182,383,o),
(226,434,o),
(307,434,cs),
(370,434,o),
(399,394,o),
(399,336,cs),
(399,327,o),
(398,318,o),
(397,309,c),
(514,309,l),
(516,321,o),
(516,333,o),
(516,344,cs),
(516,455,o),
(431,521,o),
(322,521,cs),
(310,521,ls),
(120,521,o),
(39,371,o),
(39,194,cs),
(39,66,o),
(121,-10,o),
(243,-10,cs)
);
}
);
width = 556;
}
);
note = c;
unicode = 99;
},
{
color = 4;
glyphname = d;
kernLeft = o;
kernRight = a;
layers = (
{
anchors = (
{
name = center;
pos = (472,617);
},
{
name = topright;
pos = (411,471);
}
);
background = {
anchors = (
{
name = center;
pos = (472,617);
},
{
name = topright;
pos = (411,471);
}
);
shapes = (
{
closed = 1;
nodes = (
(311,-10,o),
(372,18,o),
(414,77,c),
(402,21,o),
(428,-10,o),
(469,-10,cs),
(492,-10,o),
(513,-3,o),
(532,9,c),
(538,52,l),
(521,43,o),
(500,36,o),
(485,36,cs),
(472,36,o),
(462,43,o),
(462,61,cs),
(462,73,o),
(554,720,o),
(554,720,cs),
(503,720,l),
(463,440,l),
(437,490,o),
(384,521,o),
(312,521,cs),
(137,521,o),
(67,344,o),
(67,190,cs),
(67,50,o),
(140,-10,o),
(237,-10,cs)
);
},
{
closed = 1;
nodes = (
(152,36,o),
(118,104,o),
(118,197,cs),
(118,222,o),
(121,249,o),
(125,277,cs),
(139,378,o),
(198,475,o),
(310,475,cs),
(402,475,o),
(443,412,o),
(443,315,cs),
(443,283,o),
(439,248,o),
(430,210,cs),
(407,113,o),
(355,36,o),
(249,36,cs)
);
}
);
};
layerId = "4BBFD287-7A5F-4332-B846-65FFBCBF0D57";
shapes = (
{
closed = 1;
nodes = (
(311,-10,o),
(372,18,o),
(414,77,c),
(402,21,o),
(428,-10,o),
(469,-10,cs),
(492,-10,o),
(513,-3,o),
(532,9,c),
(538,52,l),
(521,43,o),
(500,36,o),
(485,36,cs),
(472,36,o),
(462,43,o),
(462,61,cs),
(462,73,o),
(554,720,o),
(554,720,cs),
(503,720,l),
(463,440,l),
(437,490,o),
(384,521,o),
(312,521,cs),
(137,521,o),
(67,344,o),
(67,190,cs),
(67,50,o),
(140,-10,o),
(237,-10,cs)
);
},
{
closed = 1;
nodes = (
(152,36,o),
(118,104,o),
(118,197,cs),
(118,222,o),
(121,249,o),
(125,277,cs),
(139,378,o),
(198,475,o),
(310,475,cs),
(402,475,o),
(443,412,o),
(443,315,cs),
(443,283,o),
(439,248,o),
(430,210,cs),
(407,113,o),
(355,36,o),
(249,36,cs)
);
}
);
width = 612;
},
{
anchors = (
{
name = center;
pos = (450,617);
},
{
name = topright;
pos = (353,288);
}
);
background = {
anchors = (
{
name = center;
pos = (450,617);
},
{
name = topright;
pos = (353,288);
}
);
shapes = (
{
closed = 1;
nodes = (
(255,-10,o),
(302,24,o),
(337,68,c),
(353,0,o),
(413,-10,o),
(473,-10,cs),
(505,-10,o),
(547,-2,o),
(575,13,c),
(591,123,l),
(580,116,o),
(567,110,o),
(554,110,cs),
(535,110,o),
(528,122,o),
(528,137,cs),
(528,169,o),
(540,249,o),
(611,720,c),
(413,720,l),
(376,458,l),
(360,493,o),
(324,521,o),
(253,521,cs),
(86,521,o),
(17,356,o),
(17,193,cs),
(17,56,o),
(79,-10,o),
(184,-10,cs)
);
},
{
closed = 1;
nodes = (
(235,111,o),
(213,133,o),
(213,168,cs),
(213,183,o),
(219,239,o),
(232,328,cs),
(238,370,o),
(265,396,o),
(302,396,cs),
(333,396,o),
(359,377,o),
(359,338,cs),
(359,330,o),
(353,290,o),
(338,181,cs),
(332,142,o),
(309,111,o),
(266,111,cs)
);
}
);
};
layerId = "4FDE33F5-0064-4818-A7C2-FB87252213B5";
shapes = (
{
closed = 1;
nodes = (
(255,-10,o),
(302,24,o),
(337,68,c),
(353,0,o),
(413,-10,o),
(473,-10,cs),
(505,-10,o),
(547,-2,o),
(575,13,c),
(591,123,l),
(580,116,o),
(567,110,o),
(554,110,cs),
(535,110,o),
(528,122,o),
(528,137,cs),
(528,169,o),
(540,249,o),
(611,720,c),
(413,720,l),
(376,458,l),
(360,493,o),
(324,521,o),
(253,521,cs),
(86,521,o),
(17,356,o),
(17,193,cs),
(17,56,o),
(79,-10,o),
(184,-10,cs)
);
},
{
closed = 1;
nodes = (
(235,111,o),
(213,133,o),
(213,168,cs),
(213,183,o),
(219,239,o),
(232,328,cs),
(238,370,o),
(265,396,o),
(302,396,cs),
(333,396,o),
(359,377,o),
(359,338,cs),
(359,330,o),
(353,290,o),
(338,181,cs),
(332,142,o),
(309,111,o),
(266,111,cs)
);
}
);
width = 639;
},
{
anchors = (
{
name = center;
pos = (460,617);
},
{
name = topright;
pos = (382,369);
}
);
background = {
anchors = (
{
name = center;
pos = (460,617);
},
{
name = topright;
pos = (382,369);
}
);
shapes = (
{
closed = 1;
nodes = (
(281,-10,o),
(331,18,o),
(372,62,c),
(375,19,o),
(400,-10,o),
(461,-10,cs),
(497,-10,o),
(528,1,o),
(544,10,c),
(556,91,l),
(545,84,o),
(526,77,o),
(511,77,cs),
(497,77,o),
(487,85,o),
(487,104,cs),
(487,124,o),
(550,561,o),
(573,720,c),
(455,720,l),
(417,449,l),
(395,488,o),
(348,521,o),
(278,521,cs),
(126,521,o),
(37,369,o),
(37,191,cs),
(37,53,o),
(113,-10,o),
(214,-10,cs)
);
},
{
closed = 1;
nodes = (
(185,77,o),
(154,117,o),
(154,188,cs),
(154,205,o),
(156,223,o),
(164,281,cs),
(176,365,o),
(220,432,o),
(300,432,cs),
(366,432,o),
(396,389,o),
(396,318,cs),
(396,299,o),
(394,278,o),
(385,217,cs),
(371,131,o),
(321,77,o),
(250,77,cs)
);
}
);
};
layerId = "EDCD8328-1E0F-4D00-9253-D58387328EFF";
shapes = (
{
closed = 1;
nodes = (
(281,-10,o),
(331,18,o),
(372,62,c),
(375,19,o),
(400,-10,o),
(461,-10,cs),
(497,-10,o),
(528,1,o),
(544,10,c),
(556,91,l),
(545,84,o),
(526,77,o),
(511,77,cs),
(497,77,o),
(487,85,o),
(487,104,cs),
(487,124,o),
(550,561,o),
(573,720,c),
(455,720,l),
(417,449,l),
(395,488,o),
(348,521,o),
(278,521,cs),
(126,521,o),
(37,369,o),
(37,191,cs),
(37,53,o),
(113,-10,o),
(214,-10,cs)
);
},
{
closed = 1;
nodes = (
(185,77,o),
(154,117,o),
(154,188,cs),
(154,205,o),
(156,223,o),
(164,281,cs),
(176,365,o),
(220,432,o),
(300,432,cs),
(366,432,o),
(396,389,o),
(396,318,cs),
(396,299,o),
(394,278,o),
(385,217,cs),
(371,131,o),
(321,77,o),
(250,77,cs)
);
}
);
width = 608;
}
);
metricLeft = a;
note = d;
unicode = 100;
},
{
color = 4;
glyphname = eth;
kernLeft = eth;
kernRight = eth;
layers = (
{
layerId = "4BBFD287-7A5F-4332-B846-65FFBCBF0D57";
shapes = (
{
closed = 1;
nodes = (
(252,-10,ls),
(409,-10,o),
(507,137,o),
(507,315,cs),
(507,450,o),
(436,560,o),
(344,640,c),
(450,688,l),
(430,711,l),
(319,661,l),
(290,684,o),
(260,705,o),
(233,724,c),
(193,707,l),
(215,691,o),
(245,669,o),
(276,642,c),
(168,593,l),
(191,570,l),
(300,620,l),
(334,587,o),
(369,549,o),
(397,508,c),
(371,518,o),
(344,522,o),
(318,522,cs),
(152,522,o),
(66,360,o),
(66,193,cs),
(66,63,o),
(137,-10,o),
(247,-10,cs)
);
},
{
closed = 1;
nodes = (
(176,36,o),
(116,87,o),
(116,192,cs),
(116,239,o),
(122,285,o),
(136,326,cs),
(163,411,o),
(222,475,o),
(318,475,cs),
(398,475,o),
(458,424,o),
(458,319,cs),
(458,257,o),
(445,194,o),
(419,143,cs),
(386,80,o),
(332,36,o),
(256,36,cs)
);
}
);
width = 573;
},
{
layerId = "4FDE33F5-0064-4818-A7C2-FB87252213B5";
shapes = (
{
closed = 1;
nodes = (
(280,-10,ls),
(458,-10,o),
(587,123,o),
(587,312,cs),
(587,437,o),
(518,563,o),
(420,649,c),
(483,677,l),
(435,728,l),
(359,695,l),
(331,713,o),
(302,728,o),
(272,739,c),
(149,688,l),
(176,675,o),
(204,656,o),
(224,635,c),
(144,600,l),
(196,549,l),
(266,580,l),
(290,561,o),
(323,521,o),
(332,503,c),
(319,509,o),
(298,512,o),
(274,512,cs),
(118,512,o),
(16,356,o),
(16,205,cs),
(16,77,o),
(110,-10,o),
(248,-10,cs)
);
},
{
closed = 1;
nodes = (
(241,111,o),
(222,137,o),
(222,176,cs),
(222,206,o),
(234,280,o),
(243,330,cs),
(250,369,o),
(276,400,o),
(319,400,cs),
(354,400,o),
(382,375,o),
(382,341,cs),
(382,321,o),
(376,281,o),
(360,181,cs),
(354,142,o),
(319,111,o),
(280,111,cs)
);
}
);
width = 613;
},
{
layerId = "EDCD8328-1E0F-4D00-9253-D58387328EFF";
shapes = (
{
closed = 1;
nodes = (
(255,-10,ls),
(436,-10,o),
(535,129,o),
(535,319,cs),
(535,440,o),
(469,552,o),
(369,644,c),
(454,682,l),
(423,719,l),
(328,678,l),
(299,699,o),
(269,717,o),
(241,731,c),
(164,696,l),
(186,683,o),
(218,663,o),
(243,638,c),
(148,596,l),
(183,559,l),
(281,600,l),
(306,572,o),
(332,540,o),
(348,514,c),
(335,519,o),
(319,520,o),
(306,520,cs),
(137,520,o),
(34,374,o),
(34,193,cs),
(34,65,o),
(115,-10,o),
(242,-10,cs)
);
},
{
closed = 1;
nodes = (
(193,77,o),
(151,118,o),
(151,194,cs),
(151,220,o),
(158,263,o),
(167,305,cs),
(185,385,o),
(234,434,o),
(309,434,cs),
(376,434,o),
(418,394,o),
(418,318,cs),
(418,279,o),
(411,248,o),
(391,179,cs),
(371,113,o),
(322,77,o),
(260,77,cs)
);
}
);
width = 594;
}
);
note = eth;
unicode = 240;
},
{
color = 3;
glyphname = dcaron;
kernLeft = o;
kernRight = a;
layers = (
{
background = {
shapes = (
{
closed = 1;
nodes = (
(410,21,o),
(424,-10,o),
(468,-10,cs),
(491,-10,o),
(512,-3,o),
(531,9,c),
(537,52,l),
(520,43,o),
(499,36,o),
(484,36,cs),
(471,36,o),
(461,43,o),
(461,61,cs),
(461,73,o),
(553,720,o),
(553,720,cs),
(502,720,l),
(462,440,l),
(436,490,o),
(383,521,o),
(311,521,cs),
(136,521,o),
(66,344,o),
(66,190,cs),
(66,50,o),
(139,-10,o),
(236,-10,cs),
(308,-10,o),
(366,15,o),
(411,69,c),
(410,64,o),
(410,60,o),
(410,55,cs)
);
},
{
closed = 1;
nodes = (
(644,516,l),
(689,628,l),
(697,686,l),
(632,686,l),
(623,617,l),
(647,617,l),
(647,617,o),
(611,516,o),
(610,516,c)
);
},
{
closed = 1;
nodes = (
(173,36,o),
(117,77,o),
(117,193,cs),
(117,316,o),
(166,475,o),
(309,475,cs),
(385,475,o),
(442,428,o),
(442,321,cs),
(442,187,o),
(392,36,o),
(248,36,cs)
);
}
);
};
layerId = "4BBFD287-7A5F-4332-B846-65FFBCBF0D57";
shapes = (
{
ref = d;
},
{
closed = 1;
nodes = (
(643,516,l),
(689,628,l),
(697,686,l),
(632,686,l),
(622,617,l),
(646,617,l),
(609,516,l)
);
}
);
width = 616;
},
{
background = {
shapes = (
{
closed = 1;
nodes = (
(611,720,l),
(413,720,l),
(376,458,l),
(360,493,o),
(324,521,o),
(253,521,cs),
(137,521,o),
(18,413,o),
(18,193,cs),
(18,56,o),
(89,-10,o),
(197,-10,cs),
(271,-10,o),
(310,24,o),
(342,59,c),
(360,-1,o),
(418,-10,o),
(475,-10,cs),
(507,-10,o),
(549,-2,o),
(578,13,c),
(593,123,l),
(582,116,o),
(569,110,o),
(556,110,cs),
(533,110,o),
(531,127,o),
(531,146,c),
(530,158,o),
(551,302,o),
(571,442,cs)
);
},
{
closed = 1;
nodes = (
(844,686,l),
(653,686,l),
(627,503,l),
(711,503,l),
(651,338,l),
(745,338,l),
(821,525,l)
);
},
{
closed = 1;
nodes = (
(336,396,o),
(358,377,o),
(358,338,cs),
(358,329,o),
(352,290,o),
(347,253,cs),
(337,181,ls),
(331,142,o),
(308,111,o),
(265,111,cs),
(234,111,o),
(212,135,o),
(212,170,cs),
(212,174,o),
(212,178,o),
(233,326,cs),
(238,365,o),
(268,396,o),
(305,396,cs)
);
}
);
};
layerId = "4FDE33F5-0064-4818-A7C2-FB87252213B5";
shapes = (
{
ref = d;
},
{
closed = 1;
nodes = (
(744,385,l),
(810,546,l),
(829,685,l),
(664,685,l),
(642,527,l),
(715,527,l),
(663,385,l)
);
}
);
width = 729;
},
{
layerId = "EDCD8328-1E0F-4D00-9253-D58387328EFF";
shapes = (
{
ref = d;
},
{
closed = 1;
nodes = (
(666,423,l),
(726,581,l),
(741,684,l),
(619,684,l),
(601,556,l),
(652,556,l),
(604,423,l)
);
}
);
width = 654;
}
);
metricLeft = d;
note = dcaron;
unicode = 271;
},
{
color = 4;
glyphname = e;
kernLeft = o;
kernRight = e;
layers = (
{
anchors = (
{
name = bottom;
pos = (246,0);
},
{
name = ogonek;
pos = (284,0);
},
{
name = top;
pos = (314,511);
}
);
background = {
anchors = (
{
name = bottom;
pos = (256,0);
},
{
name = ogonek;
pos = (284,0);
},
{
name = top;
pos = (314,511);
}
);
shapes = (
{
closed = 1;
nodes = (
(255,-10,ls),
(370,-10,o),
(457,63,o),
(475,189,c),
(425,189,l),
(410,84,o),
(341,36,o),
(255,36,cs),
(175,36,o),
(117,82,o),
(117,190,cs),
(117,206,o),
(118,224,o),
(122,250,c),
(484,250,l),
(491,280,o),
(495,339,o),
(495,351,cs),
(495,459,o),
(422,521,o),
(325,521,cs),
(320,521,ls),
(143,521,o),
(66,348,o),
(66,191,cs),
(66,62,o),
(140,-10,o),
(250,-10,cs)
);
},
{
closed = 1;
nodes = (
(154,416,o),
(229,475,o),
(315,475,cs),
(388,475,o),
(445,433,o),
(445,346,cs),
(445,336,o),
(445,325,o),
(440,296,c),
(129,296,l)
);
}
);
};
layerId = "4BBFD287-7A5F-4332-B846-65FFBCBF0D57";
shapes = (
{
closed = 1;
nodes = (
(255,-10,ls),
(370,-10,o),
(457,63,o),
(475,189,c),
(425,189,l),
(410,84,o),
(341,36,o),
(255,36,cs),
(175,36,o),
(117,82,o),
(117,190,cs),
(117,206,o),
(118,224,o),
(122,250,c),
(484,250,l),
(491,280,o),
(495,339,o),
(495,351,cs),
(495,459,o),
(422,521,o),
(325,521,cs),
(320,521,ls),
(143,521,o),
(66,348,o),
(66,191,cs),
(66,62,o),
(140,-10,o),
(250,-10,cs)
);
},
{
closed = 1;
nodes = (
(154,416,o),
(229,475,o),
(315,475,cs),
(388,475,o),
(445,433,o),
(445,346,cs),
(445,336,o),
(445,325,o),
(440,296,c),
(129,296,l)
);
}
);
width = 556;
},
{
anchors = (
{
name = bottom;
pos = (274,0);
},
{
name = ogonek;
pos = (294,0);
},
{
name = top;
pos = (327,511);
}
);
background = {
anchors = (
{
name = bottom;
pos = (274,0);
},
{
name = ogonek;
pos = (294,0);
},
{
name = top;
pos = (327,511);
}
);
shapes = (
{
closed = 1;
nodes = (
(280,-10,ls),
(437,-10,o),
(541,79,o),
(557,192,c),
(374,192,l),
(367,143,o),
(337,111,o),
(289,111,cs),
(250,111,o),
(221,130,o),
(221,169,cs),
(221,185,o),
(224,207,o),
(227,229,c),
(563,229,l),
(570,271,o),
(574,293,o),
(574,330,cs),
(574,438,o),
(496,521,o),
(353,521,cs),
(328,521,ls),
(111,521,o),
(16,359,o),
(16,210,cs),
(16,82,o),
(102,-10,o),
(265,-10,cs)
);
},
{
closed = 1;
nodes = (
(246,371,o),
(281,400,o),
(323,400,cs),
(357,400,o),
(382,377,o),
(382,342,cs),
(382,330,o),
(381,322,o),
(380,316,c),
(241,316,l)
);
}
);
};
layerId = "4FDE33F5-0064-4818-A7C2-FB87252213B5";
shapes = (
{
closed = 1;
nodes = (
(280,-10,ls),
(437,-10,o),
(541,79,o),
(557,192,c),
(374,192,l),
(367,143,o),
(337,111,o),
(289,111,cs),
(250,111,o),
(221,130,o),
(221,169,cs),
(221,185,o),
(224,207,o),
(227,229,c),
(563,229,l),
(570,271,o),
(574,293,o),
(574,330,cs),
(574,438,o),
(496,521,o),
(353,521,cs),
(328,521,ls),
(111,521,o),
(16,359,o),
(16,210,cs),
(16,82,o),
(102,-10,o),
(265,-10,cs)
);
},
{
closed = 1;
nodes = (
(246,371,o),
(281,400,o),
(323,400,cs),
(357,400,o),
(382,377,o),
(382,342,cs),
(382,330,o),
(381,322,o),
(380,316,c),
(241,316,l)
);
}
);
width = 600;
},
{
anchors = (
{
name = bottom;
pos = (252,0);
},
{
name = ogonek;
pos = (291,0);
},
{
name = top;
pos = (312,511);
}
);
background = {
anchors = (
{
name = bottom;
pos = (252,0);
},
{
name = ogonek;
pos = (291,0);
},
{
name = top;
pos = (312,511);
}
);
shapes = (
{
closed = 1;
nodes = (
(259,-10,ls),
(387,-10,o),
(489,59,o),
(507,190,c),
(395,190,l),
(387,141,o),
(354,77,o),
(266,77,cs),
(190,77,o),
(157,127,o),
(157,195,cs),
(157,204,o),
(158,221,o),
(160,233,c),
(514,233,l),
(522,281,o),
(527,318,o),
(527,342,cs),
(527,455,o),
(439,521,o),
(327,521,cs),
(315,521,ls),
(132,521,o),
(39,375,o),
(39,195,cs),
(39,63,o),
(125,-10,o),
(249,-10,cs)
);
},
{
closed = 1;
nodes = (
(189,391,o),
(242,434,o),
(311,434,cs),
(374,434,o),
(409,400,o),
(409,341,cs),
(409,332,o),
(409,324,o),
(406,309,c),
(170,309,l)
);
}
);
};
layerId = "EDCD8328-1E0F-4D00-9253-D58387328EFF";
shapes = (
{
closed = 1;
nodes = (
(259,-10,ls),
(387,-10,o),
(489,59,o),
(507,190,c),
(395,190,l),
(387,141,o),
(354,77,o),
(266,77,cs),
(190,77,o),
(157,127,o),
(157,195,cs),
(157,204,o),
(158,221,o),
(160,233,c),
(514,233,l),
(522,281,o),
(527,318,o),
(527,342,cs),
(527,455,o),
(439,521,o),
(327,521,cs),
(315,521,ls),
(132,521,o),
(39,375,o),
(39,195,cs),
(39,63,o),
(125,-10,o),
(249,-10,cs)
);
},
{
closed = 1;
nodes = (
(189,391,o),
(242,434,o),
(311,434,cs),
(374,434,o),
(409,400,o),
(409,341,cs),
(409,332,o),
(409,324,o),
(406,309,c),
(170,309,l)
);
}
);
width = 569;
}
);
metricLeft = o;
note = e;
unicode = 101;
},
{
color = 4;
glyphname = f;
kernLeft = f;
kernRight = f;
layers = (
{
layerId = "4BBFD287-7A5F-4332-B846-65FFBCBF0D57";
shapes = (
{
closed = 1;
nodes = (
(71,-186,o),
(112,-152,o),
(123,-75,cs),
(199,465,l),
(318,465,l),
(324,511,l),
(205,511,l),
(220,615,ls),
(228,674,o),
(258,682,o),
(286,682,cs),
(301,682,o),
(331,673,o),
(346,666,c),
(352,711,l),
(337,721,o),
(312,728,o),
(287,728,cs),
(228,728,o),
(180,694,o),
(169,617,cs),
(154,511,l),
(98,511,l),
(92,465,l),
(148,465,l),
(72,-73,ls),
(64,-132,o),
(34,-140,o),
(6,-140,cs),
(-9,-140,o),
(-39,-131,o),
(-54,-124,c),
(-60,-169,l),
(-45,-179,o),
(-20,-186,o),
(5,-186,cs)
);
}
);
width = 340;
},
{
layerId = "4FDE33F5-0064-4818-A7C2-FB87252213B5";
shapes = (
{
closed = 1;
nodes = (
(143,-187,o),
(228,-136,o),
(243,-26,cs),
(298,369,l),
(418,369,l),
(438,511,l),
(318,511,l),
(323,544,ls),
(328,579,o),
(340,606,o),
(388,606,cs),
(407,606,o),
(432,601,o),
(449,596,c),
(464,706,l),
(433,722,o),
(368,728,o),
(334,728,cs),
(229,728,o),
(144,689,o),
(129,577,cs),
(120,511,l),
(56,511,l),
(36,369,l),
(100,369,l),
(49,4,ls),
(42,-36,o),
(26,-65,o),
(-18,-65,cs),
(-35,-65,o),
(-62,-60,o),
(-78,-53,c),
(-94,-165,l),
(-62,-181,o),
(1,-187,o),
(37,-187,cs)
);
}
);
width = 418;
},
{
layerId = "EDCD8328-1E0F-4D00-9253-D58387328EFF";
shapes = (
{
closed = 1;
nodes = (
(85,-184,o),
(147,-140,o),
(162,-32,cs),
(227,424,l),
(346,424,l),
(358,511,l),
(238,511,l),
(248,575,ls),
(256,629,o),
(277,643,o),
(314,643,cs),
(330,643,o),
(359,636,o),
(374,630,c),
(385,708,l),
(362,721,o),
(319,728,o),
(290,728,cs),
(205,728,o),
(146,688,o),
(132,589,cs),
(121,511,l),
(61,511,l),
(50,424,l),
(109,424,l),
(43,-34,ls),
(35,-88,o),
(8,-99,o),
(-23,-99,cs),
(-38,-99,o),
(-68,-93,o),
(-83,-86,c),
(-93,-165,l),
(-72,-177,o),
(-32,-184,o),
(-2,-184,cs)
);
}
);
width = 351;
}
);
note = f;
unicode = 102;
},
{
color = 4;
glyphname = g;
kernLeft = o;
kernRight = g;
layers = (
{
anchors = (
{
name = top;
pos = (324,511);
}
);
background = {
anchors = (
{
name = top;
pos = (324,511);
}
);
shapes = (
{
closed = 1;
nodes = (
(374,-186,o),
(443,-103,o),
(460,17,cs),
(530,511,l),
(509,511,l),
(478,426,l),
(449,490,o),
(396,521,o),
(318,521,cs),
(144,521,o),
(71,349,o),
(71,196,cs),
(71,77,o),
(144,10,o),
(243,10,cs),
(315,10,o),
(380,41,o),
(421,91,c),
(409,8,ls),
(395,-91,o),
(322,-139,o),
(240,-139,cs),
(171,-139,o),
(98,-106,o),
(98,-22,c),
(46,-22,l),
(46,-96,o),
(97,-186,o),
(233,-186,cs)
);
},
{
closed = 1;
nodes = (
(160,56,o),
(122,119,o),
(122,207,cs),
(122,237,o),
(126,270,o),
(134,304,cs),
(155,396,o),
(213,475,o),
(316,475,cs),
(413,475,o),
(449,409,o),
(449,320,cs),
(449,284,o),
(443,241,o),
(432,201,cs),
(410,121,o),
(352,56,o),
(255,56,cs)
);
}
);
};
layerId = "4BBFD287-7A5F-4332-B846-65FFBCBF0D57";
shapes = (
{
closed = 1;
nodes = (
(374,-186,o),
(443,-103,o),
(460,17,cs),
(530,511,l),
(509,511,l),
(478,426,l),
(449,490,o),
(396,521,o),
(318,521,cs),
(144,521,o),
(71,349,o),
(71,196,cs),
(71,77,o),
(144,10,o),
(243,10,cs),
(315,10,o),
(380,41,o),
(421,91,c),
(409,8,ls),
(395,-91,o),
(322,-139,o),
(240,-139,cs),
(171,-139,o),
(98,-106,o),
(98,-22,c),
(46,-22,l),
(46,-96,o),
(97,-186,o),
(233,-186,cs)
);
},
{
closed = 1;
nodes = (
(160,56,o),
(122,119,o),
(122,207,cs),
(122,237,o),
(126,270,o),
(134,304,cs),
(155,396,o),
(213,475,o),
(316,475,cs),
(413,475,o),
(449,409,o),
(449,320,cs),
(449,284,o),
(443,241,o),
(432,201,cs),
(410,121,o),
(352,56,o),
(255,56,cs)
);
}
);
width = 583;
},
{
anchors = (
{
name = top;
pos = (334,511);
}
);
background = {
anchors = (
{
name = top;
pos = (327,511);
}
);
shapes = (
{
closed = 1;
nodes = (
(381,-186,o),
(491,-116,o),
(513,40,cs),
(579,511,l),
(509,511,l),
(430,436,l),
(398,495,o),
(340,521,o),
(275,521,cs),
(92,521,o),
(18,355,o),
(18,216,cs),
(18,112,o),
(64,19,o),
(179,19,cs),
(234,19,o),
(284,43,o),
(321,82,c),
(312,7,ls),
(309,-21,o),
(298,-63,o),
(252,-63,cs),
(211,-63,o),
(196,-36,o),
(196,-19,c),
(-3,-19,l),
(-3,-147,o),
(121,-186,o),
(245,-186,cs)
);
},
{
closed = 1;
nodes = (
(236,144,o),
(214,168,o),
(214,203,cs),
(214,211,o),
(222,271,o),
(231,330,cs),
(237,371,o),
(267,400,o),
(303,400,cs),
(334,400,o),
(356,381,o),
(356,342,cs),
(356,325,o),
(347,270,o),
(339,214,cs),
(334,175,o),
(310,144,o),
(267,144,cs)
);
}
);
};
layerId = "4FDE33F5-0064-4818-A7C2-FB87252213B5";
shapes = (
{
closed = 1;
nodes = (
(381,-186,o),
(491,-116,o),
(513,40,cs),
(579,511,l),
(509,511,l),
(430,436,l),
(398,495,o),
(340,521,o),
(275,521,cs),
(92,521,o),
(18,355,o),
(18,216,cs),
(18,112,o),
(64,19,o),
(179,19,cs),
(234,19,o),
(284,43,o),
(321,82,c),
(312,7,ls),
(309,-21,o),
(298,-63,o),
(252,-63,cs),
(211,-63,o),
(196,-36,o),
(196,-19,c),
(-3,-19,l),
(-3,-147,o),
(121,-186,o),
(245,-186,cs)
);
},
{
closed = 1;
nodes = (
(236,144,o),
(214,168,o),
(214,203,cs),
(214,211,o),
(222,271,o),
(231,330,cs),
(237,371,o),
(267,400,o),
(303,400,cs),
(334,400,o),
(356,381,o),
(356,342,cs),
(356,325,o),
(347,270,o),
(339,214,cs),
(334,175,o),
(310,144,o),
(267,144,cs)
);
}
);
width = 600;
},
{
anchors = (
{
name = top;
pos = (326,511);
}
);
background = {
anchors = (
{
name = top;
pos = (316,511);
}
);
shapes = (
{
closed = 1;
nodes = (
(386,-186,o),
(467,-95,o),
(485,35,cs),
(552,511,l),
(508,511,l),
(455,431,l),
(425,491,o),
(371,521,o),
(297,521,cs),
(125,521,o),
(47,365,o),
(47,210,cs),
(47,91,o),
(114,20,o),
(215,20,cs),
(283,20,o),
(339,50,o),
(374,92,c),
(365,20,ls),
(357,-42,o),
(317,-100,o),
(239,-100,cs),
(176,-100,o),
(142,-66,o),
(142,-19,c),
(24,-19,l),
(24,-119,o),
(99,-186,o),
(229,-186,cs)
);
},
{
closed = 1;
nodes = (
(196,106,o),
(165,146,o),
(165,214,cs),
(165,232,o),
(166,253,o),
(175,308,cs),
(190,400,o),
(246,434,o),
(306,434,cs),
(371,434,o),
(406,395,o),
(406,328,cs),
(406,297,o),
(398,254,o),
(389,218,cs),
(375,152,o),
(326,106,o),
(262,106,cs)
);
}
);
};
layerId = "EDCD8328-1E0F-4D00-9253-D58387328EFF";
shapes = (
{
closed = 1;
nodes = (
(386,-186,o),
(467,-95,o),
(485,35,cs),
(552,511,l),
(508,511,l),
(455,431,l),
(425,491,o),
(371,521,o),
(297,521,cs),
(125,521,o),
(47,365,o),
(47,210,cs),
(47,91,o),
(114,20,o),
(215,20,cs),
(283,20,o),
(339,50,o),
(374,92,c),
(365,20,ls),
(357,-42,o),
(317,-100,o),
(239,-100,cs),
(176,-100,o),
(142,-66,o),
(142,-19,c),
(24,-19,l),
(24,-119,o),
(99,-186,o),
(229,-186,cs)
);
},
{
closed = 1;
nodes = (
(196,106,o),
(165,146,o),
(165,214,cs),
(165,232,o),
(166,253,o),
(175,308,cs),
(190,400,o),
(246,434,o),
(306,434,cs),
(371,434,o),
(406,395,o),
(406,328,cs),
(406,297,o),
(398,254,o),
(389,218,cs),
(375,152,o),
(326,106,o),
(262,106,cs)
);
}
);
width = 578;
}
);
note = g;
unicode = 103;
},
{
color = 3;
glyphname = gstroke;
layers = (
{
background = {
shapes = (
{
closed = 1;
nodes = (
(399,-188,ls),
(482,-188,o),
(542,-128,o),
(542,-52,cs),
(542,15,o),
(494,67,o),
(424,67,cs),
(211,67,ls),
(169,67,o),
(136,91,o),
(136,133,cs),
(136,175,o),
(169,200,o),
(211,200,cs),
(293,200,ls),
(429,200,o),
(488,277,o),
(488,365,cs),
(488,411,o),
(472,447,o),
(442,473,c),
(443,477,l),
(504,486,o),
(542,547,o),
(542,603,c),
(494,603,l),
(487,548,o),
(452,512,o),
(404,499,c),
(375,513,o),
(338,521,o),
(293,521,cs),
(162,521,o),
(98,439,o),
(98,355,cs),
(98,305,o),
(125,266,o),
(166,236,c),
(117,217,o),
(85,183,o),
(85,135,cs),
(85,101,o),
(100,69,o),
(130,51,c),
(84,32,o),
(56,-13,o),
(56,-61,cs),
(56,-126,o),
(109,-188,o),
(182,-188,cs)
);
},
{
closed = 1;
nodes = (
(142,-142,o),
(106,-106,o),
(106,-61,cs),
(106,-17,o),
(142,21,o),
(186,21,cs),
(420,21,ls),
(459,21,o),
(491,-15,o),
(491,-54,cs),
(491,-103,o),
(450,-142,o),
(402,-142,cs),
(186,-142,ls)
);
},
{
closed = 1;
nodes = (
(200,245,o),
(149,297,o),
(149,360,cs),
(149,423,o),
(200,475,o),
(293,475,cs),
(386,475,o),
(437,423,o),
(437,360,cs),
(437,297,o),
(386,245,o),
(293,245,cs)
);
},
{
closed = 1;
nodes = (
(77,-83,l),
(93,-83,l),
(509,-83,l),
(522,-83,l),
(593,-83,l),
(593,-41,l),
(527,-41,l),
(510,-41,l),
(89,-41,l),
(73,-41,l),
(3,-41,l),
(3,-83,l)
);
}
);
};
layerId = "4BBFD287-7A5F-4332-B846-65FFBCBF0D57";
shapes = (
{
ref = g;
},
{
closed = 1;
nodes = (
(580,254,l),
(586,296,l),
(296,296,l),
(290,254,l)
);
}
);
width = 583;
},
{
background = {
shapes = (
{
closed = 1;
nodes = (
(406,-188,ls),
(500,-188,o),
(563,-122,o),
(563,-39,cs),
(563,38,o),
(509,99,o),
(421,99,cs),
(235,99,ls),
(191,99,o),
(168,119,o),
(168,149,cs),
(168,180,o),
(194,200,o),
(235,200,cs),
(312,200,ls),
(436,200,o),
(509,275,o),
(509,363,cs),
(509,407,o),
(489,443,o),
(458,470,c),
(459,473,l),
(523,487,o),
(563,537,o),
(563,603,c),
(470,603,l),
(467,565,o),
(441,530,o),
(389,506,c),
(362,516,o),
(326,521,o),
(285,521,cs),
(143,521,o),
(75,437,o),
(75,351,cs),
(75,298,o),
(103,262,o),
(144,235,c),
(94,218,o),
(61,183,o),
(61,134,cs),
(61,100,o),
(78,70,o),
(108,51,c),
(61,30,o),
(33,-17,o),
(33,-65,cs),
(33,-133,o),
(89,-188,o),
(159,-188,cs)
);
},
{
closed = 1;
nodes = (
(164,-113,o),
(135,-84,o),
(135,-50,cs),
(135,-15,o),
(164,13,o),
(201,13,cs),
(394,13,ls),
(428,13,o),
(455,-14,o),
(455,-46,cs),
(455,-83,o),
(423,-113,o),
(384,-113,cs),
(201,-113,ls)
);
},
{
closed = 1;
nodes = (
(225,268,o),
(185,309,o),
(185,360,cs),
(185,411,o),
(225,453,o),
(292,453,cs),
(359,453,o),
(399,411,o),
(399,360,cs),
(399,309,o),
(359,268,o),
(292,268,cs)
);
},
{
closed = 1;
nodes = (
(68,-88,l),
(103,-78,l),
(489,-78,l),
(520,-88,l),
(617,-88,l),
(617,-9,l),
(521,-9,l),
(488,-19,l),
(107,-19,l),
(75,-9,l),
(-33,-9,l),
(-33,-88,l)
);
}
);
};
layerId = "EDCD8328-1E0F-4D00-9253-D58387328EFF";
shapes = (
{
ref = g;
},
{
closed = 1;
nodes = (
(593,241,l),
(602,309,l),
(285,309,l),
(276,241,l)
);
}
);
width = 578;
},
{
background = {
shapes = (
{
closed = 1;
nodes = (
(399,-188,ls),
(508,-188,o),
(589,-108,o),
(589,-17,cs),
(589,74,o),
(526,139,o),
(416,139,cs),
(266,139,ls),
(219,139,o),
(209,153,o),
(209,170,cs),
(209,186,o),
(225,200,o),
(266,200,cs),
(335,200,ls),
(444,200,o),
(535,272,o),
(535,361,cs),
(535,401,o),
(511,438,o),
(478,466,c),
(479,469,l),
(546,488,o),
(589,524,o),
(589,603,c),
(441,603,l),
(441,586,o),
(427,552,o),
(371,515,c),
(346,519,o),
(314,521,o),
(277,521,cs),
(121,521,o),
(47,442,o),
(47,353,cs),
(47,296,o),
(81,260,o),
(124,240,c),
(73,227,o),
(32,184,o),
(32,133,cs),
(32,98,o),
(51,66,o),
(80,46,c),
(33,23,o),
(4,-19,o),
(4,-68,cs),
(4,-134,o),
(68,-188,o),
(134,-188,cs)
);
},
{
closed = 1;
nodes = (
(180,-104,o),
(156,-73,o),
(156,-48,cs),
(156,-23,o),
(180,7,o),
(211,7,cs),
(368,7,ls),
(399,7,o),
(423,-24,o),
(423,-49,cs),
(423,-74,o),
(399,-104,o),
(368,-104,cs),
(211,-104,ls)
);
},
{
closed = 1;
nodes = (
(260,297,o),
(234,325,o),
(234,360,cs),
(234,395,o),
(260,423,o),
(295,423,cs),
(330,423,o),
(356,395,o),
(356,360,cs),
(356,325,o),
(330,297,o),
(295,297,cs)
);
},
{
closed = 1;
nodes = (
(69,-79,l),
(108,-72,l),
(480,-72,l),
(512,-79,l),
(635,-79,l),
(635,-13,l),
(517,-13,l),
(483,-20,l),
(114,-20,l),
(74,-13,l),
(-49,-13,l),
(-49,-79,l)
);
}
);
};
layerId = "4FDE33F5-0064-4818-A7C2-FB87252213B5";
shapes = (
{
ref = g;
},
{
closed = 1;
nodes = (
(595,241,l),
(604,309,l),
(282,309,l),
(273,241,l)
);
}
);
width = 600;
}
);
unicode = 485;
},
{
color = 4;
glyphname = h;
kernLeft = h;
kernRight = n;
layers = (
{
anchors = (
{
name = bottom;
pos = (277,0);
},
{
name = center;
pos = (225,607);
},
{
name = top;
pos = (183,686);
}
);
background = {
anchors = (
{
name = bottom;
pos = (277,0);
},
{
name = center;
pos = (225,607);
},
{
name = top;
pos = (183,686);
}
);
shapes = (
{
closed = 1;
nodes = (
(113,0,l),
(157,314,ls),
(170,406,o),
(247,475,o),
(337,475,cs),
(415,475,o),
(461,437,o),
(461,354,cs),
(461,329,o),
(448,242,o),
(414,0,c),
(465,0,l),
(499,237,o),
(514,335,o),
(514,368,cs),
(514,473,o),
(443,521,o),
(348,521,cs),
(289,521,o),
(217,493,o),
(175,439,c),
(214,720,l),
(163,720,l),
(62,0,l)
);
}
);
};
layerId = "4BBFD287-7A5F-4332-B846-65FFBCBF0D57";
shapes = (
{
closed = 1;
nodes = (
(113,0,l),
(157,314,ls),
(170,406,o),
(247,475,o),
(337,475,cs),
(415,475,o),
(461,437,o),
(461,354,cs),
(461,329,o),
(448,242,o),
(414,0,c),
(465,0,l),
(499,237,o),
(514,335,o),
(514,368,cs),
(514,473,o),
(443,521,o),
(348,521,cs),
(289,521,o),
(217,493,o),
(175,439,c),
(214,720,l),
(163,720,l),
(62,0,l)
);
}
);
width = 595;
},
{
anchors = (
{
name = bottom;
pos = (256,0);
},
{
name = center;
pos = (234,607);
},
{
name = top;
pos = (197,686);
}
);
background = {
anchors = (
{
name = bottom;
pos = (256,0);
},
{
name = center;
pos = (234,607);
},
{
name = top;
pos = (197,686);
}
);
shapes = (
{
closed = 1;
nodes = (
(206,0,l),
(251,320,ls),
(256,353,o),
(277,380,o),
(312,380,cs),
(341,380,o),
(357,362,o),
(357,336,cs),
(357,313,o),
(352,278,o),
(312,0,c),
(510,0,l),
(549,271,o),
(563,360,o),
(563,392,cs),
(563,465,o),
(515,521,o),
(420,521,cs),
(335,521,o),
(288,478,o),
(269,451,c),
(307,720,l),
(109,720,l),
(9,0,l)
);
}
);
};
layerId = "4FDE33F5-0064-4818-A7C2-FB87252213B5";
shapes = (
{
closed = 1;
nodes = (
(206,0,l),
(251,320,ls),
(256,353,o),
(277,380,o),
(312,380,cs),
(341,380,o),
(357,362,o),
(357,336,cs),
(357,313,o),
(352,278,o),
(312,0,c),
(510,0,l),
(549,271,o),
(563,360,o),
(563,392,cs),
(563,465,o),
(515,521,o),
(420,521,cs),
(335,521,o),
(288,478,o),
(269,451,c),
(307,720,l),
(109,720,l),
(9,0,l)
);
}
);
width = 597;
},
{
anchors = (
{
name = bottom;
pos = (251,0);
},
{
name = center;
pos = (216,607);
},
{
name = top;
pos = (183,686);
}
);
background = {
anchors = (
{
name = bottom;
pos = (251,0);
},
{
name = center;
pos = (216,607);
},
{
name = top;
pos = (183,686);
}
);
shapes = (
{
closed = 1;
nodes = (
(148,0,l),
(191,309,ls),
(201,378,o),
(264,432,o),
(325,432,cs),
(375,432,o),
(407,406,o),
(407,354,cs),
(407,330,o),
(389,205,o),
(360,0,c),
(478,0,l),
(517,273,o),
(529,363,o),
(529,383,cs),
(529,478,o),
(461,521,o),
(371,521,cs),
(311,521,o),
(256,497,o),
(211,453,c),
(249,720,l),
(131,720,l),
(30,0,l)
);
}
);
};
layerId = "EDCD8328-1E0F-4D00-9253-D58387328EFF";
shapes = (
{
closed = 1;
nodes = (
(148,0,l),
(191,309,ls),
(201,378,o),
(264,432,o),
(325,432,cs),
(375,432,o),
(407,406,o),
(407,354,cs),
(407,330,o),
(389,205,o),
(360,0,c),
(478,0,l),
(517,273,o),
(529,363,o),
(529,383,cs),
(529,478,o),
(461,521,o),
(371,521,cs),
(311,521,o),
(256,497,o),
(211,453,c),
(249,720,l),
(131,720,l),
(30,0,l)
);
}
);
width = 595;
}
);
note = h;
unicode = 104;
},
{
color = 4;
glyphname = i;
kernLeft = i;
kernRight = i;
layers = (
{
anchors = (
{
name = bottom;
pos = (90,0);
},
{
name = center;
pos = (127,275);
},
{
name = ogonek;
pos = (74,0);
}
);
background = {
anchors = (
{
name = bottom;
pos = (90,0);
},
{
name = center;
pos = (127,275);
},
{
name = ogonek;
pos = (74,0);
}
);
shapes = (
{
closed = 1;
nodes = (
(113,0,l),
(185,511,l),
(134,511,l),
(62,0,l)
);
},
{
closed = 1;
nodes = (
(211,666,l),
(218,720,l),
(159,720,l),
(152,666,l)
);
}
);
};
layerId = "4BBFD287-7A5F-4332-B846-65FFBCBF0D57";
shapes = (
{
closed = 1;
nodes = (
(113,0,l),
(185,511,l),
(134,511,l),
(62,0,l)
);
},
{
closed = 1;
nodes = (
(211,666,l),
(218,720,l),
(159,720,l),
(152,666,l)
);
}
);
width = 260;
},
{
anchors = (
{
name = bottom;
pos = (105,0);
},
{
name = center;
pos = (137,264);
},
{
name = ogonek;
pos = (55,0);
}
);
background = {
anchors = (
{
name = bottom;
pos = (105,0);
},
{
name = center;
pos = (137,264);
},
{
name = ogonek;
pos = (55,0);
}
);
shapes = (
{
closed = 1;
nodes = (
(205,0,l),
(277,511,l),
(80,511,l),
(9,0,l)
);
},
{
closed = 1;
nodes = (
(286,577,l),
(306,720,l),
(109,720,l),
(89,577,l)
);
}
);
};
layerId = "4FDE33F5-0064-4818-A7C2-FB87252213B5";
shapes = (
{
closed = 1;
nodes = (
(205,0,l),
(277,511,l),
(80,511,l),
(9,0,l)
);
},
{
closed = 1;
nodes = (
(286,577,l),
(306,720,l),
(109,720,l),
(89,577,l)
);
}
);
width = 296;
},
{
anchors = (
{
name = bottom;
pos = (89,0);
},
{
name = center;
pos = (127,278);
},
{
name = ogonek;
pos = (48,0);
}
);
background = {
anchors = (
{
name = bottom;
pos = (89,0);
},
{
name = center;
pos = (127,278);
},
{
name = ogonek;
pos = (48,0);
}
);
shapes = (
{
closed = 1;
nodes = (
(148,0,l),
(220,511,l),
(102,511,l),
(30,0,l)
);
},
{
closed = 1;
nodes = (
(236,620,l),
(250,720,l),
(129,720,l),
(115,620,l)
);
}
);
};
layerId = "EDCD8328-1E0F-4D00-9253-D58387328EFF";
shapes = (
{
closed = 1;
nodes = (
(148,0,l),
(220,511,l),
(102,511,l),
(30,0,l)
);
},
{
closed = 1;
nodes = (
(236,620,l),
(250,720,l),
(129,720,l),
(115,620,l)
);
}
);
width = 268;
}
);
note = i;
unicode = 105;
},
{
color = 4;
glyphname = idotless;
kernLeft = i;
kernRight = i;
layers = (
{
anchors = (
{
name = bottom;
pos = (86,0);
},
{
name = center;
pos = (123,275);
},
{
name = top;
pos = (154,511);
}
);
background = {
anchors = (
{
name = bottom;
pos = (82,0);
},
{
name = center;
pos = (123,275);
},
{
name = top;
pos = (154,511);
}
);
shapes = (
{
closed = 1;
nodes = (
(109,0,l),
(180,511,l),
(129,511,l),
(58,0,l)
);
}
);
};
layerId = "4BBFD287-7A5F-4332-B846-65FFBCBF0D57";
shapes = (
{
closed = 1;
nodes = (
(109,0,l),
(180,511,l),
(129,511,l),
(58,0,l)
);
}
);
width = 252;
},
{
anchors = (
{
name = bottom;
pos = (114,0);
},
{
name = center;
pos = (143,264);
},
{
name = top;
pos = (177,511);
}
);
background = {
anchors = (
{
name = bottom;
pos = (105,0);
},
{
name = center;
pos = (143,264);
},
{
name = top;
pos = (177,511);
}
);
shapes = (
{
closed = 1;
nodes = (
(206,0,l),
(277,511,l),
(80,511,l),
(9,0,l)
);
}
);
};
layerId = "4FDE33F5-0064-4818-A7C2-FB87252213B5";
shapes = (
{
closed = 1;
nodes = (
(206,0,l),
(277,511,l),
(80,511,l),
(9,0,l)
);
}
);
width = 296;
},
{
anchors = (
{
name = bottom;
pos = (101,0);
},
{
name = center;
pos = (136,278);
},
{
name = top;
pos = (168,511);
}
);
background = {
anchors = (
{
name = bottom;
pos = (96,0);
},
{
name = center;
pos = (136,278);
},
{
name = top;
pos = (168,511);
}
);
shapes = (
{
closed = 1;
nodes = (
(155,0,l),
(226,511,l),
(108,511,l),
(37,0,l)
);
}
);
};
layerId = "EDCD8328-1E0F-4D00-9253-D58387328EFF";
shapes = (
{
closed = 1;
nodes = (
(155,0,l),
(226,511,l),
(108,511,l),
(37,0,l)
);
}
);
width = 269;
}
);
note = dotlessi;
unicode = 305;
},
{
color = 3;
glyphname = istroke;
layers = (
{
background = {
shapes = (
{
pos = (346,-67);
ref = strokeshortcomb;
}
);
};
layerId = "4BBFD287-7A5F-4332-B846-65FFBCBF0D57";
shapes = (
{
ref = i;
},
{
closed = 1;
nodes = (
(44,254,l),
(204,254,l),
(210,300,l),
(50,300,l)
);
}
);
width = 260;
},
{
layerId = "EDCD8328-1E0F-4D00-9253-D58387328EFF";
shapes = (
{
ref = i;
},
{
closed = 1;
nodes = (
(-7,232,l),
(246,232,l),
(260,326,l),
(7,326,l)
);
}
);
width = 268;
},
{
background = {
shapes = (
{
pos = (415,-67);
ref = strokeshortcomb;
}
);
};
layerId = "4FDE33F5-0064-4818-A7C2-FB87252213B5";
shapes = (
{
ref = i;
},
{
closed = 1;
nodes = (
(-20,198,l),
(280,198,l),
(298,326,l),
(-2,326,l)
);
}
);
width = 296;
}
);
unicode = 616;
},
{
color = 4;
glyphname = j;
kernLeft = j;
kernRight = j;
layers = (
{
layerId = "4BBFD287-7A5F-4332-B846-65FFBCBF0D57";
shapes = (
{
closed = 1;
nodes = (
(49,-186,o),
(95,-152,o),
(106,-75,cs),
(189,511,l),
(138,511,l),
(56,-73,ls),
(48,-132,o),
(16,-140,o),
(-10,-140,cs),
(-25,-140,o),
(-54,-131,o),
(-69,-124,c),
(-76,-169,l),
(-60,-179,o),
(-35,-186,o),
(-10,-186,cs)
);
},
{
closed = 1;
nodes = (
(215,666,l),
(222,720,l),
(163,720,l),
(156,666,l)
);
}
);
width = 260;
},
{
layerId = "4FDE33F5-0064-4818-A7C2-FB87252213B5";
shapes = (
{
closed = 1;
nodes = (
(107,-187,o),
(188,-134,o),
(203,-26,cs),
(279,511,l),
(80,511,l),
(9,4,ls),
(1,-55,o),
(-28,-65,o),
(-56,-65,cs),
(-71,-65,o),
(-101,-60,o),
(-116,-53,c),
(-132,-165,l),
(-100,-178,o),
(-37,-187,o),
(-2,-187,cs)
);
},
{
closed = 1;
nodes = (
(288,577,l),
(308,720,l),
(109,720,l),
(89,577,l)
);
}
);
width = 298;
},
{
layerId = "EDCD8328-1E0F-4D00-9253-D58387328EFF";
shapes = (
{
closed = 1;
nodes = (
(86,-186,o),
(135,-134,o),
(152,-17,cs),
(226,511,l),
(108,511,l),
(31,-32,ls),
(23,-91,o),
(-6,-100,o),
(-33,-100,cs),
(-48,-100,o),
(-77,-93,o),
(-92,-86,c),
(-102,-167,l),
(-81,-179,o),
(-39,-186,o),
(-9,-186,cs)
);
},
{
closed = 1;
nodes = (
(243,620,l),
(257,720,l),
(135,720,l),
(122,620,l)
);
}
);
width = 269;
}
);
note = j;
unicode = 106;
},
{
color = 4;
glyphname = jdotless;
kernLeft = j;
kernRight = j;
layers = (
{
anchors = (
{
name = top;
pos = (144,511);
}
);
layerId = "4BBFD287-7A5F-4332-B846-65FFBCBF0D57";
shapes = (
{
closed = 1;
nodes = (
(29,-186,o),
(75,-152,o),
(86,-75,cs),
(169,511,l),
(118,511,l),
(36,-73,ls),
(28,-132,o),
(-4,-140,o),
(-30,-140,cs),
(-45,-140,o),
(-74,-131,o),
(-89,-124,c),
(-96,-169,l),
(-80,-179,o),
(-55,-186,o),
(-30,-186,cs)
);
}
);
width = 260;
},
{
anchors = (
{
name = top;
pos = (174,511);
}
);
layerId = "4FDE33F5-0064-4818-A7C2-FB87252213B5";
shapes = (
{
closed = 1;
nodes = (
(107,-187,o),
(188,-134,o),
(203,-26,cs),
(279,511,l),
(80,511,l),
(9,4,ls),
(1,-55,o),
(-28,-65,o),
(-56,-65,cs),
(-71,-65,o),
(-101,-60,o),
(-116,-53,c),
(-132,-165,l),
(-100,-178,o),
(-37,-187,o),
(-2,-187,cs)
);
}
);
width = 298;
},
{
anchors = (
{
name = top;
pos = (166,511);
}
);
layerId = "EDCD8328-1E0F-4D00-9253-D58387328EFF";
shapes = (
{
closed = 1;
nodes = (
(86,-186,o),
(135,-134,o),
(152,-17,cs),
(226,511,l),
(108,511,l),
(31,-32,ls),
(23,-91,o),
(-6,-100,o),
(-33,-100,cs),
(-48,-100,o),
(-77,-93,o),
(-92,-86,c),
(-102,-167,l),
(-81,-179,o),
(-39,-186,o),
(-9,-186,cs)
);
}
);
width = 269;
}
);
unicode = 567;
},
{
color = 4;
glyphname = k;
kernLeft = h;
kernRight = k;
layers = (
{
anchors = (
{
name = bottom;
pos = (270,0);
}
);
background = {
shapes = (
{
closed = 1;
nodes = (
(113,0,l),
(131,127,l),
(250,232,l),
(417,0,l),
(483,0,l),
(289,270,l),
(538,511,l),
(475,511,l),
(139,186,l),
(214,720,l),
(163,720,l),
(62,0,l)
);
}
);
};
layerId = "4BBFD287-7A5F-4332-B846-65FFBCBF0D57";
shapes = (
{
closed = 1;
nodes = (
(113,0,l),
(131,127,l),
(250,232,l),
(417,0,l),
(483,0,l),
(289,270,l),
(538,511,l),
(475,511,l),
(139,189,l),
(214,720,l),
(163,720,l),
(62,0,l)
);
}
);
width = 534;
},
{
anchors = (
{
name = bottom;
pos = (272,0);
}
);
layerId = "4FDE33F5-0064-4818-A7C2-FB87252213B5";
shapes = (
{
closed = 1;
nodes = (
(206,0,l),
(222,114,l),
(262,145,l),
(332,0,l),
(565,0,l),
(422,280,l),
(634,511,l),
(408,511,l),
(251,321,l),
(307,720,l),
(109,720,l),
(9,0,l)
);
}
);
width = 601;
},
{
anchors = (
{
name = bottom;
pos = (254,0);
}
);
layerId = "EDCD8328-1E0F-4D00-9253-D58387328EFF";
shapes = (
{
closed = 1;
nodes = (
(148,0,l),
(163,111,l),
(240,182,l),
(354,0,l),
(495,0,l),
(329,267,l),
(557,511,l),
(425,511,l),
(182,248,l),
(249,720,l),
(131,720,l),
(30,0,l)
);
}
);
width = 547;
}
);
note = k;
unicode = 107;
},
{
color = 4;
glyphname = kgreenlandic;
kernLeft = n;
kernRight = k;
layers = (
{
layerId = "4BBFD287-7A5F-4332-B846-65FFBCBF0D57";
shapes = (
{
closed = 1;
nodes = (
(113,0,l),
(131,127,l),
(250,232,l),
(417,0,l),
(483,0,l),
(289,270,l),
(538,511,l),
(475,511,l),
(139,189,l),
(185,512,l),
(134,512,l),
(62,0,l)
);
}
);
width = 534;
},
{
layerId = "4FDE33F5-0064-4818-A7C2-FB87252213B5";
shapes = (
{
closed = 1;
nodes = (
(206,0,l),
(222,114,l),
(262,145,l),
(332,0,l),
(565,0,l),
(422,280,l),
(634,511,l),
(408,511,l),
(251,321,l),
(278,511,l),
(80,511,l),
(9,0,l)
);
}
);
width = 601;
},
{
layerId = "EDCD8328-1E0F-4D00-9253-D58387328EFF";
shapes = (
{
closed = 1;
nodes = (
(148,0,l),
(163,111,l),
(240,182,l),
(354,0,l),
(495,0,l),
(329,267,l),
(557,511,l),
(425,511,l),
(182,248,l),
(220,511,l),
(102,511,l),
(30,0,l)
);
}
);
width = 547;
}
);
unicode = 312;
},
{
color = 4;
glyphname = l;
kernLeft = h;
kernRight = l;
layers = (
{
anchors = (
{
name = bottom;
pos = (91,0);
},
{
name = center;
pos = (137,359);
},
{
name = top;
pos = (178,686);
},
{
name = topright;
pos = (57,471);
}
);
background = {
anchors = (
{
name = bottom;
pos = (91,0);
},
{
name = center;
pos = (137,359);
},
{
name = top;
pos = (178,686);
},
{
name = topright;
pos = (57,471);
}
);
shapes = (
{
closed = 1;
nodes = (
(113,0,l),
(214,720,l),
(163,720,l),
(62,0,l)
);
}
);
};
layerId = "4BBFD287-7A5F-4332-B846-65FFBCBF0D57";
shapes = (
{
closed = 1;
nodes = (
(113,0,l),
(214,720,l),
(163,720,l),
(62,0,l)
);
}
);
width = 256;
},
{
anchors = (
{
name = bottom;
pos = (106,0);
},
{
name = center;
pos = (157,359);
},
{
name = top;
pos = (192,686);
},
{
name = topright;
pos = (55,288);
}
);
background = {
anchors = (
{
name = bottom;
pos = (106,0);
},
{
name = center;
pos = (157,359);
},
{
name = top;
pos = (192,686);
},
{
name = topright;
pos = (55,288);
}
);
shapes = (
{
closed = 1;
nodes = (
(206,0,l),
(307,720,l),
(109,720,l),
(9,0,l)
);
}
);
};
layerId = "4FDE33F5-0064-4818-A7C2-FB87252213B5";
shapes = (
{
closed = 1;
nodes = (
(206,0,l),
(307,720,l),
(109,720,l),
(9,0,l)
);
}
);
width = 297;
},
{
anchors = (
{
name = bottom;
pos = (89,0);
},
{
name = center;
pos = (140,359);
},
{
name = top;
pos = (181,686);
},
{
name = topright;
pos = (60,370);
}
);
background = {
anchors = (
{
name = bottom;
pos = (89,0);
},
{
name = center;
pos = (140,359);
},
{
name = top;
pos = (181,686);
},
{
name = topright;
pos = (60,370);
}
);
shapes = (
{
closed = 1;
nodes = (
(150,0,l),
(251,720,l),
(133,720,l),
(32,0,l)
);
}
);
};
layerId = "EDCD8328-1E0F-4D00-9253-D58387328EFF";
shapes = (
{
closed = 1;
nodes = (
(150,0,l),
(251,720,l),
(133,720,l),
(32,0,l)
);
}
);
width = 273;
}
);
note = l;
unicode = 108;
},
{
color = 3;
glyphname = lcaron;
kernLeft = h;
kernRight = l;
layers = (
{
background = {
shapes = (
{
closed = 1;
nodes = (
(62,0,l),
(113,0,l),
(214,720,l),
(163,720,l)
);
},
{
closed = 1;
nodes = (
(290,516,l),
(335,628,l),
(343,686,l),
(278,686,l),
(269,617,l),
(293,617,l),
(293,617,o),
(257,516,o),
(256,516,c)
);
}
);
};
layerId = "4BBFD287-7A5F-4332-B846-65FFBCBF0D57";
shapes = (
{
ref = l;
},
{
closed = 1;
nodes = (
(285,518,l),
(315,550,o),
(330,586,o),
(334,618,cs),
(344,687,l),
(280,687,l),
(268,609,l),
(296,609,l),
(292,577,o),
(274,548,o),
(251,522,c),
(250,518,l)
);
}
);
width = 274;
},
{
background = {
shapes = (
{
closed = 1;
nodes = (
(307,720,l),
(109,720,l),
(9,0,l),
(206,0,l)
);
},
{
closed = 1;
nodes = (
(549,686,l),
(358,686,l),
(332,503,l),
(416,503,l),
(356,338,l),
(450,338,l),
(526,525,l)
);
}
);
};
layerId = "4FDE33F5-0064-4818-A7C2-FB87252213B5";
shapes = (
{
ref = l;
},
{
closed = 1;
nodes = (
(413,378,l),
(465,427,o),
(497,488,o),
(508,558,cs),
(525,686,l),
(376,686,l),
(354,534,l),
(423,534,l),
(416,483,o),
(387,440,o),
(340,397,c),
(337,378,l)
);
}
);
width = 467;
},
{
layerId = "EDCD8328-1E0F-4D00-9253-D58387328EFF";
shapes = (
{
ref = l;
},
{
closed = 1;
nodes = (
(327,437,l),
(365,477,o),
(393,529,o),
(401,585,cs),
(415,685,l),
(310,685,l),
(293,567,l),
(340,567,l),
(333,525,o),
(310,486,o),
(273,449,c),
(272,437,l)
);
}
);
width = 336;
}
);
metricLeft = l;
note = lcaron;
unicode = 318;
},
{
color = 3;
glyphname = ldot;
kernLeft = h;
kernRight = l;
layers = (
{
layerId = "4BBFD287-7A5F-4332-B846-65FFBCBF0D57";
shapes = (
{
closed = 1;
nodes = (
(302,341,l),
(312,410,l),
(247,410,l),
(237,341,l)
);
},
{
ref = l;
}
);
width = 272;
},
{
layerId = "4FDE33F5-0064-4818-A7C2-FB87252213B5";
shapes = (
{
closed = 1;
nodes = (
(471,286,l),
(496,469,l),
(305,469,l),
(280,286,l)
);
},
{
ref = l;
}
);
width = 453;
},
{
layerId = "EDCD8328-1E0F-4D00-9253-D58387328EFF";
shapes = (
{
closed = 1;
nodes = (
(368,312,l),
(387,439,l),
(265,439,l),
(247,312,l)
);
},
{
ref = l;
}
);
width = 346;
}
);
unicode = 320;
},
{
color = 4;
glyphname = m;
kernLeft = n;
kernRight = n;
layers = (
{
layerId = "4BBFD287-7A5F-4332-B846-65FFBCBF0D57";
shapes = (
{
closed = 1;
nodes = (
(113,0,l),
(157,314,ls),
(170,406,o),
(236,475,o),
(316,475,cs),
(384,475,o),
(422,439,o),
(422,361,cs),
(422,329,o),
(401,191,o),
(374,0,c),
(425,0,l),
(469,314,ls),
(482,406,o),
(548,475,o),
(628,475,cs),
(696,475,o),
(734,439,o),
(734,361,cs),
(734,325,o),
(717,212,o),
(686,0,c),
(737,0,l),
(771,239,o),
(786,333,o),
(786,371,cs),
(786,474,o),
(722,521,o),
(638,521,cs),
(562,521,o),
(501,479,o),
(468,434,c),
(446,493,o),
(392,521,o),
(326,521,cs),
(266,521,o),
(207,489,o),
(169,435,c),
(169,511,l),
(134,511,l),
(62,0,l)
);
}
);
width = 867;
},
{
layerId = "4FDE33F5-0064-4818-A7C2-FB87252213B5";
shapes = (
{
closed = 1;
nodes = (
(202,0,l),
(247,324,ls),
(251,357,o),
(273,379,o),
(303,379,cs),
(326,379,o),
(344,361,o),
(344,334,cs),
(344,310,o),
(318,154,o),
(298,0,c),
(492,0,l),
(537,324,ls),
(541,357,o),
(563,379,o),
(593,379,cs),
(616,379,o),
(634,361,o),
(634,334,cs),
(634,312,o),
(610,154,o),
(588,0,c),
(782,0,l),
(811,205,o),
(835,373,o),
(835,392,cs),
(835,465,o),
(788,521,o),
(692,521,cs),
(613,521,o),
(568,488,o),
(535,443,c),
(516,490,o),
(478,521,o),
(402,521,cs),
(313,521,o),
(256,463,o),
(238,437,c),
(228,511,l),
(80,511,l),
(8,0,l)
);
}
);
width = 869;
},
{
layerId = "EDCD8328-1E0F-4D00-9253-D58387328EFF";
shapes = (
{
closed = 1;
nodes = (
(154,0,l),
(197,310,ls),
(207,379,o),
(261,432,o),
(317,432,cs),
(360,432,o),
(386,408,o),
(386,355,c),
(385,343,o),
(377,278,o),
(338,0,c),
(456,0,l),
(499,310,ls),
(509,379,o),
(564,432,o),
(619,432,cs),
(662,432,o),
(687,411,o),
(687,355,cs),
(687,339,o),
(669,207,o),
(640,0,c),
(758,0,l),
(795,259,o),
(809,358,o),
(809,385,cs),
(809,477,o),
(748,521,o),
(665,521,cs),
(607,521,o),
(551,501,o),
(499,437,c),
(479,494,o),
(429,521,o),
(363,521,cs),
(305,521,o),
(248,496,o),
(199,436,c),
(196,511,l),
(108,511,l),
(36,0,l)
);
}
);
width = 868;
}
);
note = m;
unicode = 109;
},
{
color = 4;
glyphname = n;
kernLeft = n;
kernRight = n;
layers = (
{
anchors = (
{
name = bottom;
pos = (262,0);
},
{
name = top;
pos = (323,511);
},
{
name = topright;
pos = (152,511);
}
);
background = {
anchors = (
{
name = bottom;
pos = (277,0);
},
{
name = top;
pos = (333,511);
},
{
name = topright;
pos = (152,511);
}
);
shapes = (
{
closed = 1;
nodes = (
(113,0,l),
(157,314,ls),
(170,406,o),
(247,475,o),
(337,475,cs),
(415,475,o),
(461,437,o),
(461,354,cs),
(461,342,o),
(460,328,o),
(414,0,c),
(464,0,l),
(512,343,o),
(513,345,o),
(513,368,cs),
(513,473,o),
(443,521,o),
(348,521,cs),
(281,521,o),
(211,489,o),
(168,435,c),
(168,511,l),
(134,511,l),
(62,0,l)
);
}
);
};
layerId = "4BBFD287-7A5F-4332-B846-65FFBCBF0D57";
shapes = (
{
closed = 1;
nodes = (
(113,0,l),
(157,314,ls),
(170,406,o),
(247,475,o),
(337,475,cs),
(415,475,o),
(461,437,o),
(461,354,cs),
(461,342,o),
(460,328,o),
(414,0,c),
(464,0,l),
(512,343,o),
(513,345,o),
(513,368,cs),
(513,473,o),
(443,521,o),
(348,521,cs),
(281,521,o),
(211,489,o),
(168,435,c),
(168,511,l),
(134,511,l),
(62,0,l)
);
}
);
width = 593;
},
{
anchors = (
{
name = bottom;
pos = (260,0);
},
{
name = top;
pos = (316,511);
},
{
name = topright;
pos = (141,511);
}
);
background = {
anchors = (
{
name = bottom;
pos = (260,0);
},
{
name = top;
pos = (343,511);
},
{
name = topright;
pos = (141,511);
}
);
shapes = (
{
closed = 1;
nodes = (
(206,0,l),
(251,320,ls),
(256,353,o),
(277,380,o),
(312,380,cs),
(341,380,o),
(357,362,o),
(357,336,cs),
(357,313,o),
(352,278,o),
(312,0,c),
(510,0,l),
(549,271,o),
(563,360,o),
(563,392,cs),
(563,465,o),
(515,521,o),
(419,521,cs),
(303,521,o),
(254,458,o),
(238,437,c),
(229,511,l),
(80,511,l),
(8,0,l)
);
}
);
};
layerId = "4FDE33F5-0064-4818-A7C2-FB87252213B5";
shapes = (
{
closed = 1;
nodes = (
(206,0,l),
(251,320,ls),
(256,353,o),
(277,380,o),
(312,380,cs),
(341,380,o),
(357,362,o),
(357,336,cs),
(357,313,o),
(352,278,o),
(312,0,c),
(510,0,l),
(549,271,o),
(563,360,o),
(563,392,cs),
(563,465,o),
(515,521,o),
(419,521,cs),
(303,521,o),
(254,458,o),
(238,437,c),
(229,511,l),
(80,511,l),
(8,0,l)
);
}
);
width = 597;
},
{
anchors = (
{
name = bottom;
pos = (262,0);
},
{
name = top;
pos = (318,511);
},
{
name = topright;
pos = (147,511);
}
);
background = {
anchors = (
{
name = bottom;
pos = (265,0);
},
{
name = top;
pos = (333,511);
},
{
name = topright;
pos = (147,511);
}
);
shapes = (
{
closed = 1;
nodes = (
(154,0,l),
(197,309,ls),
(207,378,o),
(270,432,o),
(332,432,cs),
(381,432,o),
(414,403,o),
(414,349,cs),
(414,333,o),
(408,296,o),
(366,0,c),
(484,0,l),
(529,316,o),
(536,362,o),
(536,383,cs),
(536,478,o),
(468,521,o),
(378,521,cs),
(307,521,o),
(246,489,o),
(198,436,c),
(196,511,l),
(108,511,l),
(36,0,l)
);
}
);
};
layerId = "EDCD8328-1E0F-4D00-9253-D58387328EFF";
shapes = (
{
closed = 1;
nodes = (
(154,0,l),
(197,309,ls),
(207,378,o),
(270,432,o),
(332,432,cs),
(381,432,o),
(414,403,o),
(414,349,cs),
(414,333,o),
(408,296,o),
(366,0,c),
(484,0,l),
(529,316,o),
(536,362,o),
(536,383,cs),
(536,478,o),
(468,521,o),
(378,521,cs),
(307,521,o),
(246,489,o),
(198,436,c),
(196,511,l),
(108,511,l),
(36,0,l)
);
}
);
width = 595;
}
);
note = n;
unicode = 110;
},
{
color = 4;
glyphname = nhookleft;
kernLeft = j;
kernRight = n;
layers = (
{
layerId = "4BBFD287-7A5F-4332-B846-65FFBCBF0D57";
shapes = (
{
closed = 1;
nodes = (
(49,-186,o),
(95,-152,o),
(106,-75,cs),
(161,314,l),
(174,406,o),
(251,475,o),
(341,475,cs),
(419,475,o),
(465,437,o),
(465,354,cs),
(465,342,o),
(464,328,o),
(418,0,c),
(468,0,l),
(516,343,o),
(517,345,o),
(517,368,cs),
(517,473,o),
(447,521,o),
(352,521,cs),
(285,521,o),
(215,489,o),
(172,435,c),
(172,511,l),
(138,511,l),
(56,-73,ls),
(48,-132,o),
(16,-140,o),
(-10,-140,cs),
(-25,-140,o),
(-54,-131,o),
(-69,-124,c),
(-76,-169,l),
(-60,-179,o),
(-35,-186,o),
(-10,-186,cs)
);
}
);
width = 597;
},
{
background = {
shapes = (
{
closed = 1;
nodes = (
(206,0,l),
(251,320,ls),
(256,353,o),
(277,380,o),
(312,380,cs),
(341,380,o),
(357,362,o),
(357,336,cs),
(357,313,o),
(352,278,o),
(312,0,c),
(510,0,l),
(549,271,o),
(563,360,o),
(563,392,cs),
(563,465,o),
(515,521,o),
(419,521,cs),
(303,521,o),
(254,458,o),
(238,437,c),
(229,511,l),
(80,511,l),
(8,0,l)
);
}
);
};
layerId = "4FDE33F5-0064-4818-A7C2-FB87252213B5";
shapes = (
{
closed = 1;
nodes = (
(107,-187,o),
(188,-134,o),
(203,-26,cs),
(251,320,ls),
(256,353,o),
(277,380,o),
(312,380,cs),
(341,380,o),
(357,362,o),
(357,336,cs),
(357,313,o),
(352,278,o),
(312,0,c),
(510,0,l),
(549,271,o),
(563,360,o),
(563,392,cs),
(563,465,o),
(515,521,o),
(419,521,cs),
(303,521,o),
(254,458,o),
(238,437,c),
(229,511,l),
(80,511,l),
(8,0,ls),
(0,-55,o),
(-29,-65,o),
(-56,-65,cs),
(-71,-65,o),
(-101,-60,o),
(-116,-53,c),
(-132,-165,l),
(-100,-178,o),
(-37,-187,o),
(-2,-187,cs)
);
}
);
width = 597;
},
{
layerId = "EDCD8328-1E0F-4D00-9253-D58387328EFF";
shapes = (
{
closed = 1;
nodes = (
(86,-186,o),
(135,-134,o),
(152,-17,cs),
(197,309,ls),
(207,378,o),
(270,432,o),
(332,432,cs),
(381,432,o),
(414,403,o),
(414,349,cs),
(414,333,o),
(408,296,o),
(366,0,c),
(484,0,l),
(529,316,o),
(536,362,o),
(536,383,cs),
(536,478,o),
(468,521,o),
(378,521,cs),
(307,521,o),
(246,489,o),
(198,436,c),
(196,511,l),
(108,511,l),
(31,-32,ls),
(23,-91,o),
(-6,-100,o),
(-33,-100,cs),
(-48,-100,o),
(-77,-93,o),
(-92,-86,c),
(-102,-167,l),
(-81,-179,o),
(-39,-186,o),
(-9,-186,cs)
);
}
);
width = 595;
}
);
unicode = 626;
},
{
color = 4;
glyphname = eng;
kernLeft = n;
kernRight = n;
layers = (
{
layerId = "4BBFD287-7A5F-4332-B846-65FFBCBF0D57";
shapes = (
{
closed = 1;
nodes = (
(396,-186,o),
(442,-152,o),
(453,-75,cs),
(511,341,o),
(513,347,o),
(513,368,cs),
(513,473,o),
(443,521,o),
(348,521,cs),
(281,521,o),
(211,489,o),
(168,435,c),
(168,511,l),
(134,511,l),
(62,0,l),
(113,0,l),
(157,314,ls),
(170,406,o),
(247,475,o),
(337,475,cs),
(415,475,o),
(461,437,o),
(461,354,cs),
(461,339,o),
(450,257,o),
(404,-73,cs),
(396,-132,o),
(363,-140,o),
(337,-140,cs),
(322,-140,o),
(293,-131,o),
(278,-124,c),
(271,-169,l),
(287,-179,o),
(312,-186,o),
(337,-186,cs)
);
}
);
width = 593;
},
{
layerId = "4FDE33F5-0064-4818-A7C2-FB87252213B5";
shapes = (
{
closed = 1;
nodes = (
(411,-187,o),
(491,-134,o),
(506,-26,cs),
(548,271,o),
(563,360,o),
(563,392,cs),
(563,465,o),
(515,521,o),
(419,521,cs),
(303,521,o),
(254,458,o),
(238,437,c),
(229,511,l),
(80,511,l),
(8,0,l),
(206,0,l),
(251,320,ls),
(256,353,o),
(277,380,o),
(312,380,cs),
(341,380,o),
(357,362,o),
(357,336,cs),
(357,313,o),
(352,278,o),
(312,0,cs),
(304,-55,o),
(275,-65,o),
(248,-65,cs),
(233,-65,o),
(203,-60,o),
(188,-53,c),
(172,-165,l),
(204,-178,o),
(267,-187,o),
(302,-187,cs)
);
}
);
width = 597;
},
{
layerId = "EDCD8328-1E0F-4D00-9253-D58387328EFF";
shapes = (
{
closed = 1;
nodes = (
(416,-186,o),
(465,-134,o),
(482,-17,cs),
(527,304,o),
(536,360,o),
(536,383,cs),
(536,478,o),
(468,521,o),
(378,521,cs),
(307,521,o),
(246,489,o),
(198,436,c),
(196,511,l),
(108,511,l),
(36,0,l),
(154,0,l),
(197,309,ls),
(207,378,o),
(270,432,o),
(332,432,cs),
(381,432,o),
(414,403,o),
(414,349,cs),
(414,331,o),
(408,296,o),
(362,-32,cs),
(354,-91,o),
(324,-100,o),
(297,-100,cs),
(282,-100,o),
(253,-93,o),
(239,-86,c),
(228,-167,l),
(249,-179,o),
(291,-186,o),
(321,-186,cs)
);
}
);
width = 595;
}
);
unicode = 331;
},
{
color = 4;
glyphname = o;
kernLeft = o;
kernRight = o;
layers = (
{
anchors = (
{
name = bottom;
pos = (248,0);
},
{
name = center;
pos = (287,252);
},
{
name = ogonek;
pos = (284,0);
},
{
name = top;
pos = (323,511);
},
{
name = topright;
pos = (351,511);
}
);
background = {
anchors = (
{
name = bottom;
pos = (253,0);
},
{
name = center;
pos = (287,252);
},
{
name = ogonek;
pos = (284,0);
},
{
name = top;
pos = (323,511);
},
{
name = topright;
pos = (351,511);
}
);
shapes = (
{
closed = 1;
nodes = (
(254,-10,ls),
(429,-10,o),
(509,159,o),
(509,319,cs),
(509,448,o),
(434,521,o),
(327,521,cs),
(323,521,ls),
(146,521,o),
(66,352,o),
(66,192,cs),
(66,63,o),
(141,-10,o),
(250,-10,cs)
);
},
{
closed = 1;
nodes = (
(158,36,o),
(117,107,o),
(117,199,cs),
(117,232,o),
(121,266,o),
(130,301,cs),
(153,396,o),
(212,475,o),
(318,475,cs),
(417,475,o),
(458,404,o),
(458,312,cs),
(458,279,o),
(454,245,o),
(445,210,cs),
(422,115,o),
(363,36,o),
(257,36,cs)
);
}
);
};
layerId = "4BBFD287-7A5F-4332-B846-65FFBCBF0D57";
shapes = (
{
closed = 1;
nodes = (
(254,-10,ls),
(429,-10,o),
(509,159,o),
(509,319,cs),
(509,448,o),
(434,521,o),
(327,521,cs),
(323,521,ls),
(146,521,o),
(66,352,o),
(66,192,cs),
(66,63,o),
(141,-10,o),
(250,-10,cs)
);
},
{
closed = 1;
nodes = (
(158,36,o),
(117,107,o),
(117,199,cs),
(117,232,o),
(121,266,o),
(130,301,cs),
(153,396,o),
(212,475,o),
(318,475,cs),
(417,475,o),
(458,404,o),
(458,312,cs),
(458,279,o),
(454,245,o),
(445,210,cs),
(422,115,o),
(363,36,o),
(257,36,cs)
);
}
);
width = 575;
},
{
anchors = (
{
name = bottom;
pos = (272,0);
},
{
name = center;
pos = (301,252);
},
{
name = ogonek;
pos = (293,0);
},
{
name = top;
pos = (334,511);
},
{
name = topright;
pos = (365,511);
}
);
background = {
anchors = (
{
name = bottom;
pos = (267,0);
},
{
name = center;
pos = (301,252);
},
{
name = ogonek;
pos = (293,0);
},
{
name = top;
pos = (334,511);
},
{
name = topright;
pos = (365,511);
}
);
shapes = (
{
closed = 1;
nodes = (
(280,-10,ls),
(489,-10,o),
(587,152,o),
(587,301,cs),
(587,429,o),
(501,521,o),
(340,521,cs),
(323,521,ls),
(114,521,o),
(16,359,o),
(16,210,cs),
(16,82,o),
(102,-10,o),
(265,-10,cs)
);
},
{
closed = 1;
nodes = (
(246,111,o),
(221,134,o),
(221,169,cs),
(221,195,o),
(231,256,o),
(243,330,cs),
(249,369,o),
(281,400,o),
(322,400,cs),
(357,400,o),
(382,377,o),
(382,342,cs),
(382,316,o),
(372,255,o),
(360,181,cs),
(354,142,o),
(322,111,o),
(281,111,cs)
);
}
);
};
layerId = "4FDE33F5-0064-4818-A7C2-FB87252213B5";
shapes = (
{
closed = 1;
nodes = (
(280,-10,ls),
(489,-10,o),
(587,152,o),
(587,301,cs),
(587,429,o),
(501,521,o),
(340,521,cs),
(323,521,ls),
(114,521,o),
(16,359,o),
(16,210,cs),
(16,82,o),
(102,-10,o),
(265,-10,cs)
);
},
{
closed = 1;
nodes = (
(246,111,o),
(221,134,o),
(221,169,cs),
(221,195,o),
(231,256,o),
(243,330,cs),
(249,369,o),
(281,400,o),
(322,400,cs),
(357,400,o),
(382,377,o),
(382,342,cs),
(382,316,o),
(372,255,o),
(360,181,cs),
(354,142,o),
(322,111,o),
(281,111,cs)
);
}
);
width = 613;
},
{
anchors = (
{
name = bottom;
pos = (260,0);
},
{
name = center;
pos = (290,252);
},
{
name = ogonek;
pos = (302,2);
},
{
name = top;
pos = (319,511);
},
{
name = topright;
pos = (354,511);
}
);
background = {
anchors = (
{
name = bottom;
pos = (265,0);
},
{
name = center;
pos = (290,252);
},
{
name = ogonek;
pos = (302,2);
},
{
name = top;
pos = (314,511);
},
{
name = topright;
pos = (354,511);
}
);
shapes = (
{
closed = 1;
nodes = (
(260,-10,ls),
(456,-10,o),
(542,140,o),
(542,317,cs),
(542,450,o),
(451,521,o),
(331,521,cs),
(321,521,ls),
(125,521,o),
(39,371,o),
(39,194,cs),
(39,61,o),
(130,-10,o),
(250,-10,cs)
);
},
{
closed = 1;
nodes = (
(197,77,o),
(158,122,o),
(158,195,cs),
(158,218,o),
(162,256,o),
(169,300,cs),
(182,383,o),
(237,434,o),
(313,434,cs),
(385,434,o),
(423,389,o),
(423,316,cs),
(423,293,o),
(419,255,o),
(412,211,cs),
(399,128,o),
(344,77,o),
(268,77,cs)
);
}
);
};
layerId = "EDCD8328-1E0F-4D00-9253-D58387328EFF";
shapes = (
{
closed = 1;
nodes = (
(260,-10,ls),
(456,-10,o),
(542,140,o),
(542,317,cs),
(542,450,o),
(451,521,o),
(331,521,cs),
(321,521,ls),
(125,521,o),
(39,371,o),
(39,194,cs),
(39,61,o),
(130,-10,o),
(250,-10,cs)
);
},
{
closed = 1;
nodes = (
(197,77,o),
(158,122,o),
(158,195,cs),
(158,218,o),
(162,256,o),
(169,300,cs),
(182,383,o),
(237,434,o),
(313,434,cs),
(385,434,o),
(423,389,o),
(423,316,cs),
(423,293,o),
(419,255,o),
(412,211,cs),
(399,128,o),
(344,77,o),
(268,77,cs)
);
}
);
width = 588;
}
);
note = o;
unicode = 111;
},
{
color = 4;
glyphname = oe;
kernLeft = o;
kernRight = e;
layers = (
{
layerId = "4BBFD287-7A5F-4332-B846-65FFBCBF0D57";
shapes = (
{
closed = 1;
nodes = (
(253,-10,ls),
(350,-10,o),
(418,42,o),
(460,116,c),
(482,34,o),
(545,-10,o),
(631,-10,cs),
(636,-10,ls),
(751,-10,o),
(841,63,o),
(859,189,c),
(809,189,l),
(794,84,o),
(725,36,o),
(639,36,cs),
(559,36,o),
(501,87,o),
(501,192,cs),
(501,208,o),
(502,224,o),
(506,250,c),
(868,250,l),
(875,280,o),
(879,339,o),
(879,351,cs),
(879,459,o),
(807,521,o),
(710,521,cs),
(705,521,ls),
(607,521,o),
(540,468,o),
(499,395,c),
(475,476,o),
(412,521,o),
(328,521,cs),
(324,521,ls),
(147,521,o),
(66,352,o),
(66,192,cs),
(66,62,o),
(139,-10,o),
(249,-10,cs)
);
},
{
closed = 1;
nodes = (
(158,36,o),
(117,105,o),
(117,199,cs),
(117,224,o),
(120,249,o),
(125,276,cs),
(145,380,o),
(203,475,o),
(318,475,cs),
(417,475,o),
(458,404,o),
(458,310,cs),
(458,279,o),
(454,245,o),
(445,210,cs),
(422,115,o),
(363,36,o),
(257,36,cs)
);
},
{
closed = 1;
nodes = (
(538,416,o),
(613,475,o),
(699,475,cs),
(772,475,o),
(829,433,o),
(829,346,cs),
(829,336,o),
(829,325,o),
(824,296,c),
(513,296,l)
);
}
);
width = 940;
},
{
layerId = "4FDE33F5-0064-4818-A7C2-FB87252213B5";
shapes = (
{
closed = 1;
nodes = (
(279,-10,ls),
(344,-10,o),
(401,7,o),
(449,37,c),
(492,6,o),
(550,-10,o),
(616,-10,cs),
(631,-10,ls),
(788,-10,o),
(893,79,o),
(909,192,c),
(726,192,l),
(719,143,o),
(690,111,o),
(642,111,cs),
(603,111,o),
(574,131,o),
(574,170,cs),
(574,186,o),
(578,207,o),
(582,229,c),
(915,229,l),
(922,271,o),
(926,293,o),
(926,330,cs),
(926,438,o),
(852,521,o),
(709,521,cs),
(684,521,ls),
(617,521,o),
(556,505,o),
(507,475,c),
(466,504,o),
(409,521,o),
(339,521,cs),
(322,521,ls),
(110,521,o),
(15,354,o),
(15,205,cs),
(15,77,o),
(101,-10,o),
(264,-10,cs)
);
},
{
closed = 1;
nodes = (
(245,111,o),
(220,134,o),
(220,169,cs),
(220,195,o),
(230,256,o),
(242,330,cs),
(248,369,o),
(280,400,o),
(321,400,cs),
(358,400,o),
(381,370,o),
(381,339,cs),
(381,315,o),
(368,237,o),
(359,181,cs),
(353,142,o),
(323,111,o),
(280,111,cs)
);
},
{
closed = 1;
nodes = (
(601,371,o),
(632,400,o),
(675,400,cs),
(710,400,o),
(734,374,o),
(734,339,cs),
(734,327,o),
(732,320,o),
(732,316,c),
(594,316,l)
);
}
);
width = 952;
},
{
layerId = "EDCD8328-1E0F-4D00-9253-D58387328EFF";
shapes = (
{
closed = 1;
nodes = (
(259,-10,ls),
(344,-10,o),
(408,19,o),
(454,65,c),
(489,16,o),
(549,-10,o),
(623,-10,cs),
(632,-10,ls),
(761,-10,o),
(864,59,o),
(882,190,c),
(770,190,l),
(762,141,o),
(729,77,o),
(641,77,cs),
(565,77,o),
(532,127,o),
(532,195,cs),
(532,208,o),
(532,216,o),
(535,233,c),
(889,233,l),
(897,281,o),
(902,318,o),
(902,342,cs),
(902,455,o),
(820,521,o),
(707,521,cs),
(696,521,ls),
(615,521,o),
(551,492,o),
(504,445,c),
(468,495,o),
(406,521,o),
(334,521,cs),
(324,521,ls),
(128,521,o),
(39,369,o),
(39,192,cs),
(39,59,o),
(129,-10,o),
(249,-10,cs)
);
},
{
closed = 1;
nodes = (
(195,77,o),
(158,122,o),
(158,195,cs),
(158,218,o),
(163,256,o),
(171,300,cs),
(187,383,o),
(240,434,o),
(316,434,cs),
(388,434,o),
(423,389,o),
(423,316,cs),
(423,295,o),
(417,255,o),
(410,211,cs),
(395,130,o),
(342,77,o),
(266,77,cs)
);
},
{
closed = 1;
nodes = (
(566,388,o),
(617,434,o),
(686,434,cs),
(748,434,o),
(784,400,o),
(784,341,cs),
(784,332,o),
(783,324,o),
(781,309,c),
(547,309,l)
);
}
);
width = 944;
}
);
metricLeft = o;
metricRight = e;
note = oe;
unicode = 339;
},
{
color = 4;
glyphname = p;
kernLeft = n;
kernRight = o;
layers = (
{
layerId = "4BBFD287-7A5F-4332-B846-65FFBCBF0D57";
shapes = (
{
closed = 1;
nodes = (
(85,-181,l),
(121,71,l),
(147,21,o),
(200,-10,o),
(272,-10,cs),
(449,-10,o),
(517,166,o),
(517,321,cs),
(517,461,o),
(444,521,o),
(347,521,cs),
(272,521,o),
(212,493,o),
(166,434,c),
(165,511,l),
(131,511,l),
(34,-181,l)
);
},
{
closed = 1;
nodes = (
(175,36,o),
(140,105,o),
(140,195,cs),
(140,227,o),
(144,262,o),
(152,297,cs),
(175,396,o),
(229,475,o),
(334,475,cs),
(428,475,o),
(466,408,o),
(466,316,cs),
(466,290,o),
(463,263,o),
(458,234,cs),
(441,133,o),
(382,36,o),
(270,36,cs)
);
}
);
width = 583;
},
{
layerId = "4FDE33F5-0064-4818-A7C2-FB87252213B5";
shapes = (
{
closed = 1;
nodes = (
(181,-181,l),
(214,53,l),
(230,18,o),
(276,-10,o),
(337,-10,cs),
(507,-10,o),
(572,178,o),
(572,319,cs),
(572,455,o),
(494,521,o),
(387,521,cs),
(324,521,o),
(281,487,o),
(248,452,c),
(238,511,l),
(80,511,l),
(-16,-181,l)
);
},
{
closed = 1;
nodes = (
(254,115,o),
(232,135,o),
(232,170,cs),
(232,194,o),
(242,257,o),
(253,330,cs),
(259,369,o),
(288,400,o),
(325,400,cs),
(356,400,o),
(378,381,o),
(378,342,cs),
(378,329,o),
(369,261,o),
(357,185,cs),
(351,146,o),
(328,115,o),
(285,115,cs)
);
}
);
width = 599;
},
{
background = {
shapes = (
{
closed = 1;
nodes = (
(478,-10,o),
(548,176,o),
(548,325,cs),
(548,454,o),
(477,521,o),
(381,521,cs),
(310,521,o),
(254,486,o),
(221,449,c),
(260,720,l),
(142,720,l),
(41,0,l),
(85,0,l),
(137,80,l),
(167,20,o),
(220,-10,o),
(295,-10,cs)
);
},
{
closed = 1;
nodes = (
(215,77,o),
(187,116,o),
(187,188,cs),
(187,211,o),
(191,244,o),
(198,291,cs),
(212,377,o),
(262,432,o),
(333,432,cs),
(400,432,o),
(429,389,o),
(429,316,cs),
(429,293,o),
(425,255,o),
(418,211,cs),
(405,128,o),
(359,77,o),
(282,77,cs)
);
}
);
};
layerId = "EDCD8328-1E0F-4D00-9253-D58387328EFF";
shapes = (
{
closed = 1;
nodes = (
(135,-181,l),
(169,62,l),
(191,23,o),
(230,-10,o),
(301,-10,cs),
(478,-10,o),
(548,170,o),
(548,325,cs),
(548,461,o),
(473,521,o),
(372,521,cs),
(302,521,o),
(250,491,o),
(209,444,c),
(206,511,l),
(114,511,l),
(17,-181,l)
);
},
{
closed = 1;
nodes = (
(215,77,o),
(187,116,o),
(187,188,cs),
(187,211,o),
(191,244,o),
(198,291,cs),
(212,377,o),
(262,432,o),
(333,432,cs),
(400,432,o),
(429,389,o),
(429,316,cs),
(429,293,o),
(425,255,o),
(418,211,cs),
(405,128,o),
(359,77,o),
(282,77,cs)
);
}
);
width = 589;
}
);
note = p;
unicode = 112;
},
{
color = 4;
glyphname = thorn;
kernLeft = h;
kernRight = o;
layers = (
{
layerId = "4BBFD287-7A5F-4332-B846-65FFBCBF0D57";
shapes = (
{
closed = 1;
nodes = (
(88,-181,l),
(124,71,l),
(150,21,o),
(203,-10,o),
(275,-10,cs),
(452,-10,o),
(520,166,o),
(520,321,cs),
(520,461,o),
(447,521,o),
(350,521,cs),
(278,521,o),
(221,496,o),
(175,442,c),
(214,720,l),
(163,720,l),
(37,-181,l)
);
},
{
closed = 1;
nodes = (
(178,36,o),
(143,105,o),
(143,195,cs),
(143,227,o),
(147,262,o),
(155,297,cs),
(178,396,o),
(232,475,o),
(337,475,cs),
(431,475,o),
(469,408,o),
(469,316,cs),
(469,290,o),
(466,263,o),
(461,234,cs),
(444,133,o),
(385,36,o),
(273,36,cs)
);
}
);
width = 586;
},
{
layerId = "4FDE33F5-0064-4818-A7C2-FB87252213B5";
shapes = (
{
closed = 1;
nodes = (
(181,-181,l),
(214,53,l),
(230,18,o),
(276,-10,o),
(337,-10,cs),
(507,-10,o),
(572,178,o),
(572,319,cs),
(572,455,o),
(494,521,o),
(387,521,cs),
(339,521,o),
(302,501,o),
(273,476,c),
(307,720,l),
(109,720,l),
(-16,-181,l)
);
},
{
closed = 1;
nodes = (
(254,115,o),
(232,135,o),
(232,170,cs),
(232,194,o),
(242,257,o),
(253,330,cs),
(259,369,o),
(288,400,o),
(325,400,cs),
(356,400,o),
(378,381,o),
(378,342,cs),
(378,329,o),
(369,261,o),
(357,185,cs),
(351,146,o),
(328,115,o),
(285,115,cs)
);
}
);
width = 599;
},
{
background = {
shapes = (
{
closed = 1;
nodes = (
(135,-181,l),
(169,62,l),
(191,23,o),
(230,-10,o),
(301,-10,cs),
(478,-10,o),
(548,170,o),
(548,325,cs),
(548,461,o),
(473,521,o),
(372,521,cs),
(302,521,o),
(250,491,o),
(209,444,c),
(206,511,l),
(114,511,l),
(17,-181,l)
);
},
{
closed = 1;
nodes = (
(215,77,o),
(187,116,o),
(187,188,cs),
(187,211,o),
(191,244,o),
(198,291,cs),
(212,377,o),
(262,432,o),
(333,432,cs),
(400,432,o),
(429,389,o),
(429,316,cs),
(429,293,o),
(425,255,o),
(418,211,cs),
(405,128,o),
(359,77,o),
(282,77,cs)
);
}
);
};
layerId = "EDCD8328-1E0F-4D00-9253-D58387328EFF";
shapes = (
{
closed = 1;
nodes = (
(135,-181,l),
(169,62,l),
(191,23,o),
(230,-10,o),
(301,-10,cs),
(477,-10,o),
(548,170,o),
(548,325,cs),
(548,461,o),
(473,521,o),
(372,521,cs),
(310,521,o),
(262,497,o),
(223,459,c),
(261,720,l),
(143,720,l),
(17,-181,l)
);
},
{
closed = 1;
nodes = (
(215,77,o),
(187,116,o),
(187,188,cs),
(187,211,o),
(191,244,o),
(198,291,cs),
(212,377,o),
(262,432,o),
(333,432,cs),
(400,432,o),
(429,389,o),
(429,316,cs),
(429,293,o),
(425,255,o),
(418,211,cs),
(405,128,o),
(359,77,o),
(282,77,cs)
);
}
);
width = 589;
}
);
note = thorn;
unicode = 254;
},
{
color = 4;
glyphname = q;
kernLeft = o;
kernRight = q;
layers = (
{
layerId = "4BBFD287-7A5F-4332-B846-65FFBCBF0D57";
shapes = (
{
closed = 1;
nodes = (
(427,-180,l),
(524,511,l),
(503,511,l),
(472,426,l),
(443,490,o),
(390,521,o),
(312,521,cs),
(138,521,o),
(65,335,o),
(65,186,cs),
(65,58,o),
(138,-10,o),
(237,-10,cs),
(309,-10,o),
(371,21,o),
(412,71,c),
(376,-180,l)
);
},
{
closed = 1;
nodes = (
(155,36,o),
(116,98,o),
(116,192,cs),
(116,223,o),
(120,258,o),
(128,296,cs),
(148,393,o),
(209,475,o),
(310,475,cs),
(405,475,o),
(443,414,o),
(443,318,cs),
(443,286,o),
(439,251,o),
(431,212,cs),
(412,115,o),
(350,36,o),
(253,36,cs)
);
}
);
width = 582;
},
{
layerId = "4FDE33F5-0064-4818-A7C2-FB87252213B5";
shapes = (
{
closed = 1;
nodes = (
(483,-180,l),
(580,511,l),
(510,511,l),
(425,443,l),
(394,498,o),
(344,520,o),
(276,520,cs),
(85,520,o),
(16,337,o),
(16,184,cs),
(16,53,o),
(84,-11,o),
(177,-11,cs),
(246,-11,o),
(294,28,o),
(318,52,c),
(285,-180,l)
);
},
{
closed = 1;
nodes = (
(233,114,o),
(211,135,o),
(211,170,cs),
(211,189,o),
(217,240,o),
(231,330,cs),
(238,374,o),
(265,399,o),
(302,399,cs),
(333,399,o),
(357,383,o),
(357,344,cs),
(357,330,o),
(346,251,o),
(336,184,cs),
(330,145,o),
(307,114,o),
(264,114,cs)
);
}
);
width = 599;
},
{
background = {
anchors = (
{
name = bottom;
pos = (263,0);
},
{
name = ogonek;
pos = (482,0);
},
{
name = top;
pos = (308,511);
}
);
shapes = (
{
closed = 1;
nodes = (
(283,-10,o),
(337,19,o),
(378,65,c),
(381,21,o),
(405,-10,o),
(468,-10,cs),
(503,-10,o),
(534,1,o),
(551,10,c),
(562,91,l),
(552,84,o),
(532,77,o),
(518,77,cs),
(503,77,o),
(493,84,o),
(493,102,cs),
(493,125,o),
(528,373,o),
(549,511,c),
(465,511,l),
(433,447,l),
(427,447,l),
(402,491,o),
(351,521,o),
(285,521,cs),
(146,521,o),
(44,389,o),
(44,190,cs),
(44,58,o),
(111,-10,o),
(217,-10,cs)
);
},
{
closed = 1;
nodes = (
(191,77,o),
(160,117,o),
(160,188,cs),
(160,205,o),
(161,223,o),
(169,281,cs),
(182,365,o),
(227,432,o),
(306,432,cs),
(373,432,o),
(402,389,o),
(402,318,cs),
(402,299,o),
(400,278,o),
(391,217,cs),
(377,131,o),
(327,77,o),
(257,77,cs)
);
}
);
};
layerId = "EDCD8328-1E0F-4D00-9253-D58387328EFF";
shapes = (
{
closed = 1;
nodes = (
(454,-180,l),
(551,511,l),
(507,511,l),
(455,431,l),
(424,491,o),
(371,521,o),
(297,521,cs),
(113,521,o),
(44,335,o),
(44,186,cs),
(44,57,o),
(115,-10,o),
(211,-10,cs),
(282,-10,o),
(338,25,o),
(370,62,c),
(336,-180,l)
);
},
{
closed = 1;
nodes = (
(191,77,o),
(160,117,o),
(160,188,cs),
(160,205,o),
(161,223,o),
(169,281,cs),
(182,365,o),
(227,432,o),
(306,432,cs),
(373,432,o),
(402,389,o),
(402,318,cs),
(402,299,o),
(400,278,o),
(391,217,cs),
(377,131,o),
(327,77,o),
(257,77,cs)
);
}
);
width = 588;
}
);
note = q;
unicode = 113;
},
{
color = 4;
glyphname = r;
kernLeft = n;
kernRight = r;
layers = (
{
anchors = (
{
name = bottom;
pos = (94,0);
},
{
name = top;
pos = (310,511);
}
);
background = {
anchors = (
{
name = bottom;
pos = (94,0);
},
{
name = top;
pos = (310,511);
}
);
shapes = (
{
closed = 1;
nodes = (
(113,0,l),
(158,324,ls),
(166,379,o),
(210,475,o),
(309,475,cs),
(393,475,o),
(417,418,o),
(417,368,cs),
(417,360,o),
(417,352,o),
(413,328,c),
(460,328,l),
(461,327,o),
(467,361,o),
(467,383,cs),
(467,459,o),
(423,521,o),
(325,521,cs),
(214,521,o),
(168,435,o),
(168,435,c),
(168,511,l),
(134,511,l),
(62,0,l)
);
}
);
};
layerId = "4BBFD287-7A5F-4332-B846-65FFBCBF0D57";
shapes = (
{
closed = 1;
nodes = (
(113,0,l),
(158,324,ls),
(166,379,o),
(210,475,o),
(309,475,cs),
(393,475,o),
(417,418,o),
(417,368,cs),
(417,360,o),
(417,352,o),
(413,328,c),
(460,328,l),
(461,327,o),
(467,361,o),
(467,383,cs),
(467,459,o),
(423,521,o),
(325,521,cs),
(214,521,o),
(168,435,o),
(168,435,c),
(168,511,l),
(134,511,l),
(62,0,l)
);
}
);
width = 479;
},
{
anchors = (
{
name = bottom;
pos = (105,0);
},
{
name = top;
pos = (293,511);
}
);
background = {
anchors = (
{
name = bottom;
pos = (105,0);
},
{
name = top;
pos = (293,511);
}
);
shapes = (
{
closed = 1;
nodes = (
(201,0,l),
(247,328,ls),
(251,356,o),
(269,378,o),
(297,378,cs),
(317,378,o),
(332,367,o),
(332,336,cs),
(332,328,o),
(331,316,o),
(329,304,c),
(491,304,l),
(500,334,o),
(508,373,o),
(508,410,cs),
(508,478,o),
(466,521,o),
(386,521,cs),
(305,521,o),
(247,452,o),
(239,437,c),
(228,511,l),
(80,511,l),
(8,0,l)
);
}
);
};
layerId = "4FDE33F5-0064-4818-A7C2-FB87252213B5";
shapes = (
{
closed = 1;
nodes = (
(201,0,l),
(247,328,ls),
(251,356,o),
(269,378,o),
(297,378,cs),
(317,378,o),
(332,367,o),
(332,336,cs),
(332,328,o),
(331,316,o),
(329,304,c),
(491,304,l),
(500,334,o),
(508,373,o),
(508,410,cs),
(508,478,o),
(466,521,o),
(386,521,cs),
(305,521,o),
(247,452,o),
(239,437,c),
(228,511,l),
(80,511,l),
(8,0,l)
);
}
);
width = 504;
},
{
anchors = (
{
name = bottom;
pos = (94,0);
},
{
name = top;
pos = (299,511);
}
);
background = {
anchors = (
{
name = bottom;
pos = (94,0);
},
{
name = top;
pos = (299,511);
}
);
shapes = (
{
closed = 1;
nodes = (
(153,0,l),
(197,310,ls),
(205,368,o),
(237,430,o),
(302,430,cs),
(357,430,o),
(376,389,o),
(376,355,cs),
(376,347,o),
(374,331,o),
(372,318,c),
(473,318,l),
(478,332,o),
(485,365,o),
(485,392,cs),
(485,467,o),
(442,521,o),
(359,521,cs),
(252,521,o),
(203,445,o),
(199,435,c),
(196,511,l),
(108,511,l),
(36,0,l)
);
}
);
};
layerId = "EDCD8328-1E0F-4D00-9253-D58387328EFF";
shapes = (
{
closed = 1;
nodes = (
(153,0,l),
(197,310,ls),
(205,368,o),
(237,430,o),
(302,430,cs),
(357,430,o),
(376,389,o),
(376,355,cs),
(376,347,o),
(374,331,o),
(372,318,c),
(473,318,l),
(478,332,o),
(485,365,o),
(485,392,cs),
(485,467,o),
(442,521,o),
(359,521,cs),
(252,521,o),
(203,445,o),
(199,435,c),
(196,511,l),
(108,511,l),
(36,0,l)
);
}
);
width = 489;
}
);
note = r;
unicode = 114;
},
{
color = 4;
glyphname = s;
kernLeft = s;
kernRight = s;
layers = (
{
anchors = (
{
name = bottom;
pos = (244,0);
},
{
name = top;
pos = (303,511);
}
);
background = {
anchors = (
{
name = bottom;
pos = (244,0);
},
{
name = top;
pos = (293,511);
}
);
shapes = (
{
closed = 1;
nodes = (
(240,-10,ls),
(352,-10,o),
(459,32,o),
(459,155,cs),
(459,332,o),
(144,248,o),
(144,376,cs),
(144,393,o),
(152,475,o),
(296,475,cs),
(412,475,o),
(429,424,o),
(429,395,cs),
(429,382,o),
(427,374,o),
(426,369,c),
(476,369,l),
(478,375,o),
(480,388,o),
(480,399,cs),
(480,455,o),
(432,521,o),
(306,521,cs),
(301,521,ls),
(161,521,o),
(92,452,o),
(92,371,cs),
(92,193,o),
(407,288,o),
(407,149,cs),
(407,84,o),
(347,36,o),
(247,36,cs),
(152,36,o),
(95,68,o),
(95,128,cs),
(95,137,o),
(96,148,o),
(99,157,c),
(49,157,l),
(45,144,o),
(43,131,o),
(43,118,cs),
(43,66,o),
(84,-10,o),
(236,-10,cs)
);
}
);
};
layerId = "4BBFD287-7A5F-4332-B846-65FFBCBF0D57";
shapes = (
{
closed = 1;
nodes = (
(240,-10,ls),
(352,-10,o),
(459,32,o),
(459,155,cs),
(459,332,o),
(144,248,o),
(144,376,cs),
(144,393,o),
(152,475,o),
(296,475,cs),
(412,475,o),
(429,424,o),
(429,395,cs),
(429,382,o),
(427,374,o),
(426,369,c),
(476,369,l),
(478,375,o),
(480,388,o),
(480,399,cs),
(480,455,o),
(432,521,o),
(306,521,cs),
(301,521,ls),
(161,521,o),
(92,452,o),
(92,371,cs),
(92,193,o),
(407,288,o),
(407,149,cs),
(407,84,o),
(347,36,o),
(247,36,cs),
(152,36,o),
(95,68,o),
(95,128,cs),
(95,137,o),
(96,148,o),
(99,157,c),
(49,157,l),
(45,144,o),
(43,131,o),
(43,118,cs),
(43,66,o),
(84,-10,o),
(236,-10,cs)
);
}
);
width = 536;
},
{
anchors = (
{
name = bottom;
pos = (242,0);
},
{
name = top;
pos = (299,511);
}
);
background = {
anchors = (
{
name = bottom;
pos = (237,0);
},
{
name = top;
pos = (299,511);
}
);
shapes = (
{
closed = 1;
nodes = (
(238,-10,ls),
(438,-10,o),
(516,83,o),
(516,179,cs),
(516,373,o),
(217,306,o),
(217,371,cs),
(217,403,o),
(281,403,o),
(300,403,cs),
(340,403,o),
(363,389,o),
(364,367,cs),
(364,365,o),
(364,361,o),
(363,358,c),
(528,358,l),
(532,369,o),
(535,380,o),
(535,397,cs),
(535,482,o),
(418,521,o),
(313,521,cs),
(305,521,ls),
(184,521,o),
(44,475,o),
(44,332,cs),
(44,147,o),
(340,212,o),
(340,145,cs),
(340,112,o),
(264,111,o),
(245,111,cs),
(213,111,o),
(166,120,o),
(166,156,cs),
(166,160,o),
(166,162,o),
(167,167,c),
(5,167,l),
(2,155,o),
(1,140,o),
(1,127,cs),
(1,32,o),
(85,-10,o),
(228,-10,cs)
);
}
);
};
layerId = "4FDE33F5-0064-4818-A7C2-FB87252213B5";
shapes = (
{
closed = 1;
nodes = (
(238,-10,ls),
(438,-10,o),
(516,83,o),
(516,179,cs),
(516,373,o),
(217,306,o),
(217,371,cs),
(217,403,o),
(281,403,o),
(300,403,cs),
(340,403,o),
(363,389,o),
(364,367,cs),
(364,365,o),
(364,361,o),
(363,358,c),
(528,358,l),
(532,369,o),
(535,380,o),
(535,397,cs),
(535,482,o),
(418,521,o),
(313,521,cs),
(305,521,ls),
(184,521,o),
(44,475,o),
(44,332,cs),
(44,147,o),
(340,212,o),
(340,145,cs),
(340,112,o),
(264,111,o),
(245,111,cs),
(213,111,o),
(166,120,o),
(166,156,cs),
(166,160,o),
(166,162,o),
(167,167,c),
(5,167,l),
(2,155,o),
(1,140,o),
(1,127,cs),
(1,32,o),
(85,-10,o),
(228,-10,cs)
);
}
);
width = 559;
},
{
anchors = (
{
name = bottom;
pos = (233,0);
},
{
name = top;
pos = (298,511);
}
);
background = {
anchors = (
{
name = bottom;
pos = (228,0);
},
{
name = top;
pos = (298,511);
}
);
shapes = (
{
closed = 1;
nodes = (
(227,-10,ls),
(354,-10,o),
(479,31,o),
(479,172,cs),
(479,337,o),
(175,283,o),
(175,371,cs),
(175,400,o),
(207,434,o),
(289,434,cs),
(353,434,o),
(386,412,o),
(386,378,cs),
(386,374,o),
(385,368,o),
(384,363,c),
(493,363,l),
(495,370,o),
(498,382,o),
(498,398,cs),
(498,469,o),
(418,521,o),
(312,521,cs),
(298,521,ls),
(160,521,o),
(63,463,o),
(63,350,cs),
(63,176,o),
(366,245,o),
(366,147,cs),
(366,97,o),
(302,77,o),
(242,77,cs),
(183,77,o),
(130,94,o),
(130,141,cs),
(130,147,o),
(131,151,o),
(132,161,c),
(22,161,l),
(21,154,o),
(18,139,o),
(18,122,cs),
(18,48,o),
(79,-10,o),
(204,-10,cs)
);
}
);
};
layerId = "EDCD8328-1E0F-4D00-9253-D58387328EFF";
shapes = (
{
closed = 1;
nodes = (
(227,-10,ls),
(354,-10,o),
(479,31,o),
(479,172,cs),
(479,337,o),
(175,283,o),
(175,371,cs),
(175,400,o),
(207,434,o),
(289,434,cs),
(353,434,o),
(386,412,o),
(386,378,cs),
(386,374,o),
(385,368,o),
(384,363,c),
(493,363,l),
(495,370,o),
(498,382,o),
(498,398,cs),
(498,469,o),
(418,521,o),
(312,521,cs),
(298,521,ls),
(160,521,o),
(63,463,o),
(63,350,cs),
(63,176,o),
(366,245,o),
(366,147,cs),
(366,97,o),
(302,77,o),
(242,77,cs),
(183,77,o),
(130,94,o),
(130,141,cs),
(130,147,o),
(131,151,o),
(132,161,c),
(22,161,l),
(21,154,o),
(18,139,o),
(18,122,cs),
(18,48,o),
(79,-10,o),
(204,-10,cs)
);
}
);
width = 537;
}
);
note = s;
unicode = 115;
},
{
color = 4;
glyphname = germandbls;
kernLeft = germandbls;
kernRight = germandbls;
layers = (
{
layerId = "4BBFD287-7A5F-4332-B846-65FFBCBF0D57";
shapes = (
{
closed = 1;
nodes = (
(125,-66,l),
(206,514,ls),
(220,614,o),
(284,682,o),
(384,682,cs),
(464,682,o),
(516,636,o),
(516,562,cs),
(516,476,o),
(437,407,o),
(343,407,cs),
(262,407,l),
(256,361,l),
(348,361,ls),
(431,361,o),
(491,303,o),
(491,215,cs),
(491,112,o),
(414,46,o),
(309,46,cs),
(211,46,l),
(205,0,l),
(303,0,ls),
(438,0,o),
(543,89,o),
(543,220,cs),
(543,301,o),
(504,361,o),
(444,385,c),
(443,388,l),
(513,414,o),
(568,492,o),
(568,568,cs),
(568,665,o),
(495,728,o),
(390,728,cs),
(264,728,o),
(173,643,o),
(155,511,c),
(99,511,l),
(92,465,l),
(148,465,l),
(74,-66,l)
);
}
);
width = 614;
},
{
layerId = "4FDE33F5-0064-4818-A7C2-FB87252213B5";
shapes = (
{
closed = 1;
nodes = (
(235,-66,l),
(316,511,ls),
(321,550,o),
(353,579,o),
(389,579,cs),
(421,579,o),
(444,554,o),
(444,521,cs),
(444,477,o),
(406,443,o),
(369,443,cs),
(342,443,l),
(325,321,l),
(353,321,ls),
(394,321,o),
(423,290,o),
(423,247,cs),
(423,195,o),
(377,148,o),
(329,148,cs),
(301,148,l),
(280,0,l),
(343,0,ls),
(507,0,o),
(618,98,o),
(618,242,cs),
(618,309,o),
(581,367,o),
(521,390,c),
(521,395,l),
(593,422,o),
(638,496,o),
(638,569,cs),
(638,686,o),
(518,728,o),
(410,728,cs),
(283,728,o),
(145,663,o),
(118,511,c),
(56,511,l),
(36,369,l),
(98,369,l),
(37,-66,l)
);
}
);
width = 652;
},
{
layerId = "EDCD8328-1E0F-4D00-9253-D58387328EFF";
shapes = (
{
closed = 1;
nodes = (
(160,-66,l),
(242,519,ls),
(252,591,o),
(304,641,o),
(375,641,cs),
(431,641,o),
(467,608,o),
(467,553,cs),
(467,482,o),
(407,425,o),
(341,425,cs),
(284,425,l),
(273,339,l),
(335,339,ls),
(399,339,o),
(444,296,o),
(444,237,cs),
(444,148,o),
(372,87,o),
(300,87,cs),
(237,87,l),
(224,0,l),
(303,0,ls),
(446,0,o),
(562,96,o),
(562,237,cs),
(562,304,o),
(524,365,o),
(464,387,c),
(463,392,l),
(534,419,o),
(585,489,o),
(585,572,cs),
(585,674,o),
(486,728,o),
(379,728,cs),
(245,728,o),
(145,647,o),
(123,511,c),
(65,511,l),
(52,424,l),
(111,424,l),
(42,-66,l)
);
}
);
width = 618;
}
);
note = germandbls;
unicode = 223;
},
{
color = 4;
glyphname = longs;
kernLeft = f;
kernRight = longs;
layers = (
{
layerId = "4BBFD287-7A5F-4332-B846-65FFBCBF0D57";
shapes = (
{
closed = 1;
nodes = (
(71,-186,o),
(112,-152,o),
(123,-75,c),
(220,615,ls),
(228,674,o),
(258,682,o),
(286,682,cs),
(301,682,o),
(331,673,o),
(346,666,c),
(352,711,l),
(337,721,o),
(312,728,o),
(287,728,cs),
(228,728,o),
(180,694,o),
(169,617,cs),
(154,511,l),
(98,511,l),
(92,465,l),
(148,465,l),
(72,-73,ls),
(64,-132,o),
(34,-140,o),
(6,-140,cs),
(-9,-140,o),
(-39,-131,o),
(-54,-124,c),
(-60,-169,l),
(-45,-179,o),
(-20,-186,o),
(5,-186,cs)
);
}
);
width = 340;
},
{
layerId = "4FDE33F5-0064-4818-A7C2-FB87252213B5";
shapes = (
{
closed = 1;
nodes = (
(143,-187,o),
(228,-136,o),
(243,-26,c),
(323,544,ls),
(328,579,o),
(340,606,o),
(388,606,cs),
(407,606,o),
(432,601,o),
(449,596,c),
(464,706,l),
(433,722,o),
(368,728,o),
(334,728,cs),
(229,728,o),
(144,689,o),
(129,577,cs),
(120,511,l),
(56,511,l),
(36,369,l),
(100,369,l),
(49,4,ls),
(42,-36,o),
(26,-65,o),
(-18,-65,cs),
(-35,-65,o),
(-62,-60,o),
(-78,-53,c),
(-94,-165,l),
(-62,-181,o),
(1,-187,o),
(37,-187,cs)
);
}
);
width = 418;
},
{
layerId = "EDCD8328-1E0F-4D00-9253-D58387328EFF";
shapes = (
{
closed = 1;
nodes = (
(85,-184,o),
(147,-140,o),
(162,-32,c),
(248,575,ls),
(256,629,o),
(277,643,o),
(314,643,cs),
(330,643,o),
(359,636,o),
(374,630,c),
(385,708,l),
(362,721,o),
(319,728,o),
(290,728,cs),
(205,728,o),
(146,688,o),
(132,589,cs),
(121,511,l),
(61,511,l),
(50,424,l),
(109,424,l),
(43,-34,ls),
(35,-88,o),
(8,-99,o),
(-23,-99,cs),
(-38,-99,o),
(-68,-93,o),
(-83,-86,c),
(-93,-165,l),
(-72,-177,o),
(-32,-184,o),
(-2,-184,cs)
);
}
);
width = 351;
}
);
unicode = 383;
},
{
color = 4;
glyphname = t;
kernLeft = t;
kernRight = t;
layers = (
{
anchors = (
{
name = bottom;
pos = (165,0);
},
{
name = center;
pos = (138,278);
},
{
name = topright;
pos = (94,511);
}
);
background = {
anchors = (
{
name = bottom;
pos = (165,0);
},
{
name = center;
pos = (138,278);
},
{
name = topright;
pos = (94,511);
}
);
shapes = (
{
closed = 1;
nodes = (
(198,-10,o),
(225,-3,o),
(244,7,c),
(250,52,l),
(233,45,o),
(201,36,o),
(186,36,cs),
(161,36,o),
(136,42,o),
(136,79,cs),
(136,97,o),
(160,263,o),
(189,465,c),
(308,465,l),
(315,511,l),
(196,511,l),
(219,674,l),
(186,674,l),
(145,511,l),
(89,511,l),
(82,465,l),
(138,465,l),
(109,260,o),
(85,93,o),
(85,71,cs),
(85,17,o),
(121,-10,o),
(173,-10,cs)
);
}
);
};
layerId = "4BBFD287-7A5F-4332-B846-65FFBCBF0D57";
shapes = (
{
closed = 1;
nodes = (
(198,-10,o),
(225,-3,o),
(244,7,c),
(250,52,l),
(233,45,o),
(201,36,o),
(186,36,cs),
(161,36,o),
(136,42,o),
(136,79,cs),
(136,97,o),
(160,263,o),
(189,465,c),
(308,465,l),
(315,511,l),
(196,511,l),
(219,674,l),
(186,674,l),
(145,511,l),
(89,511,l),
(82,465,l),
(138,465,l),
(109,260,o),
(85,93,o),
(85,71,cs),
(85,17,o),
(121,-10,o),
(173,-10,cs)
);
}
);
width = 344;
},
{
anchors = (
{
name = bottom;
pos = (202,0);
},
{
name = center;
pos = (172,278);
},
{
name = topright;
pos = (78,511);
}
);
background = {
anchors = (
{
name = bottom;
pos = (202,0);
},
{
name = center;
pos = (172,278);
},
{
name = topright;
pos = (78,511);
}
);
shapes = (
{
closed = 1;
nodes = (
(253,-11,o),
(322,-2,o),
(356,11,c),
(372,123,l),
(355,116,o),
(324,111,o),
(309,111,cs),
(280,111,o),
(259,117,o),
(259,154,cs),
(259,169,o),
(271,251,o),
(288,369,c),
(408,369,l),
(428,511,l),
(308,511,l),
(342,674,l),
(203,674,l),
(110,511,l),
(54,511,l),
(34,369,l),
(90,369,l),
(69,227,o),
(54,126,o),
(54,96,cs),
(54,17,o),
(120,-11,o),
(219,-11,cs)
);
}
);
};
layerId = "4FDE33F5-0064-4818-A7C2-FB87252213B5";
shapes = (
{
closed = 1;
nodes = (
(253,-11,o),
(322,-2,o),
(356,11,c),
(372,123,l),
(355,116,o),
(324,111,o),
(309,111,cs),
(280,111,o),
(259,117,o),
(259,154,cs),
(259,169,o),
(271,251,o),
(288,369,c),
(408,369,l),
(428,511,l),
(308,511,l),
(342,674,l),
(203,674,l),
(110,511,l),
(54,511,l),
(34,369,l),
(90,369,l),
(69,227,o),
(54,126,o),
(54,96,cs),
(54,17,o),
(120,-11,o),
(219,-11,cs)
);
}
);
width = 419;
},
{
anchors = (
{
name = bottom;
pos = (169,0);
},
{
name = center;
pos = (141,278);
},
{
name = topright;
pos = (92,511);
}
);
background = {
anchors = (
{
name = bottom;
pos = (169,0);
},
{
name = center;
pos = (141,278);
},
{
name = topright;
pos = (92,511);
}
);
shapes = (
{
closed = 1;
nodes = (
(214,-10,o),
(258,-3,o),
(283,8,c),
(294,90,l),
(277,83,o),
(245,75,o),
(230,75,cs),
(206,75,o),
(181,81,o),
(181,121,cs),
(181,141,o),
(199,264,o),
(223,424,c),
(342,424,l),
(354,511,l),
(235,511,l),
(266,674,l),
(179,674,l),
(117,511,l),
(61,511,l),
(49,424,l),
(105,424,l),
(84,278,o),
(61,123,o),
(61,89,cs),
(61,16,o),
(109,-10,o),
(183,-10,cs)
);
}
);
};
layerId = "EDCD8328-1E0F-4D00-9253-D58387328EFF";
shapes = (
{
closed = 1;
nodes = (
(214,-10,o),
(258,-3,o),
(283,8,c),
(294,90,l),
(277,83,o),
(245,75,o),
(230,75,cs),
(206,75,o),
(181,81,o),
(181,121,cs),
(181,141,o),
(199,264,o),
(223,424,c),
(342,424,l),
(354,511,l),
(235,511,l),
(266,674,l),
(179,674,l),
(117,511,l),
(61,511,l),
(49,424,l),
(105,424,l),
(84,278,o),
(61,123,o),
(61,89,cs),
(61,16,o),
(109,-10,o),
(183,-10,cs)
);
}
);
width = 356;
}
);
note = t;
unicode = 116;
},
{
color = 4;
glyphname = tbar;
kernLeft = t;
kernRight = t;
layers = (
{
layerId = "4BBFD287-7A5F-4332-B846-65FFBCBF0D57";
shapes = (
{
closed = 1;
nodes = (
(198,-10,o),
(225,-3,o),
(244,7,c),
(250,52,l),
(233,45,o),
(201,36,o),
(186,36,cs),
(161,36,o),
(136,42,o),
(136,79,cs),
(136,97,o),
(160,263,o),
(189,465,c),
(308,465,l),
(315,511,l),
(196,511,l),
(219,674,l),
(186,674,l),
(145,511,l),
(89,511,l),
(82,465,l),
(138,465,l),
(109,260,o),
(85,93,o),
(85,71,cs),
(85,17,o),
(121,-10,o),
(173,-10,cs)
);
},
{
closed = 1;
nodes = (
(280,257,l),
(286,299,l),
(63,299,l),
(57,257,l)
);
}
);
width = 344;
},
{
layerId = "4FDE33F5-0064-4818-A7C2-FB87252213B5";
shapes = (
{
closed = 1;
nodes = (
(253,-11,o),
(322,-2,o),
(356,11,c),
(372,123,l),
(355,116,o),
(324,111,o),
(309,111,cs),
(280,111,o),
(259,117,o),
(259,154,cs),
(259,169,o),
(271,251,o),
(288,369,c),
(408,369,l),
(428,511,l),
(308,511,l),
(342,674,l),
(203,674,l),
(110,511,l),
(54,511,l),
(34,369,l),
(90,369,l),
(69,227,o),
(54,126,o),
(54,96,cs),
(54,17,o),
(120,-11,o),
(219,-11,cs)
);
},
{
closed = 1;
nodes = (
(383,195,l),
(401,321,l),
(27,321,l),
(9,195,l)
);
}
);
width = 419;
},
{
layerId = "EDCD8328-1E0F-4D00-9253-D58387328EFF";
shapes = (
{
closed = 1;
nodes = (
(214,-10,o),
(258,-3,o),
(283,8,c),
(294,90,l),
(277,83,o),
(245,75,o),
(230,75,cs),
(206,75,o),
(181,81,o),
(181,121,cs),
(181,141,o),
(199,264,o),
(223,424,c),
(342,424,l),
(354,511,l),
(235,511,l),
(266,674,l),
(179,674,l),
(117,511,l),
(61,511,l),
(49,424,l),
(105,424,l),
(84,278,o),
(61,123,o),
(61,89,cs),
(61,16,o),
(109,-10,o),
(183,-10,cs)
);
},
{
closed = 1;
nodes = (
(317,229,l),
(330,329,l),
(36,329,l),
(22,229,l)
);
}
);
width = 356;
}
);
unicode = 359;
},
{
color = 4;
glyphname = u;
kernLeft = u;
kernRight = u;
layers = (
{
anchors = (
{
name = bottom;
pos = (268,0);
},
{
name = center;
pos = (294,285);
},
{
name = ogonek;
pos = (482,0);
},
{
name = top;
pos = (322,511);
},
{
name = topright;
pos = (393,554);
}
);
background = {
anchors = (
{
name = bottom;
pos = (263,0);
},
{
name = center;
pos = (294,285);
},
{
name = ogonek;
pos = (482,0);
},
{
name = top;
pos = (323,511);
},
{
name = topright;
pos = (393,554);
}
);
shapes = (
{
closed = 1;
nodes = (
(308,-10,o),
(375,22,o),
(418,76,c),
(411,24,o),
(427,-10,o),
(474,-10,cs),
(497,-10,o),
(518,-3,o),
(537,9,c),
(543,52,l),
(526,43,o),
(505,36,o),
(490,36,cs),
(477,36,o),
(467,43,o),
(467,61,cs),
(467,73,o),
(530,511,o),
(530,511,cs),
(479,511,l),
(435,197,ls),
(422,105,o),
(345,36,o),
(255,36,cs),
(177,36,o),
(131,68,o),
(131,157,cs),
(131,197,o),
(153,342,o),
(178,511,c),
(127,511,l),
(99,316,o),
(78,190,o),
(78,142,cs),
(78,37,o),
(146,-10,o),
(241,-10,cs)
);
}
);
};
layerId = "4BBFD287-7A5F-4332-B846-65FFBCBF0D57";
shapes = (
{
closed = 1;
nodes = (
(308,-10,o),
(375,22,o),
(418,76,c),
(411,24,o),
(427,-10,o),
(474,-10,cs),
(497,-10,o),
(518,-3,o),
(537,9,c),
(543,52,l),
(526,43,o),
(505,36,o),
(490,36,cs),
(477,36,o),
(467,43,o),
(467,61,cs),
(467,73,o),
(530,511,o),
(530,511,cs),
(479,511,l),
(435,197,ls),
(422,105,o),
(345,36,o),
(255,36,cs),
(177,36,o),
(131,68,o),
(131,157,cs),
(131,197,o),
(153,342,o),
(178,511,c),
(127,511,l),
(99,316,o),
(78,190,o),
(78,142,cs),
(78,37,o),
(146,-10,o),
(241,-10,cs)
);
}
);
width = 617;
},
{
anchors = (
{
name = bottom;
pos = (281,0);
},
{
name = center;
pos = (298,302);
},
{
name = ogonek;
pos = (473,0);
},
{
name = top;
pos = (321,511);
},
{
name = topright;
pos = (342,542);
}
);
background = {
anchors = (
{
name = bottom;
pos = (271,0);
},
{
name = center;
pos = (298,302);
},
{
name = ogonek;
pos = (473,0);
},
{
name = top;
pos = (331,511);
},
{
name = topright;
pos = (342,542);
}
);
shapes = (
{
closed = 1;
nodes = (
(264,-10,o),
(317,48,o),
(335,71,c),
(346,20,o),
(382,-10,o),
(471,-10,cs),
(521,-10,o),
(554,0,o),
(575,13,c),
(590,120,l),
(576,114,o),
(566,111,o),
(554,111,cs),
(541,111,o),
(527,120,o),
(527,140,cs),
(527,158,o),
(553,336,o),
(579,511,c),
(381,511,l),
(336,191,ls),
(331,158,o),
(310,131,o),
(275,131,cs),
(246,131,o),
(229,145,o),
(229,171,cs),
(229,200,o),
(250,342,o),
(275,511,c),
(77,511,l),
(49,324,o),
(24,156,o),
(24,119,cs),
(24,46,o),
(72,-10,o),
(168,-10,cs)
);
}
);
};
layerId = "4FDE33F5-0064-4818-A7C2-FB87252213B5";
shapes = (
{
closed = 1;
nodes = (
(264,-10,o),
(317,48,o),
(335,71,c),
(346,20,o),
(382,-10,o),
(471,-10,cs),
(521,-10,o),
(554,0,o),
(575,13,c),
(590,120,l),
(576,114,o),
(566,111,o),
(554,111,cs),
(541,111,o),
(527,120,o),
(527,140,cs),
(527,158,o),
(553,336,o),
(579,511,c),
(381,511,l),
(336,191,ls),
(331,158,o),
(310,131,o),
(275,131,cs),
(246,131,o),
(229,145,o),
(229,171,cs),
(229,200,o),
(250,342,o),
(275,511,c),
(77,511,l),
(49,324,o),
(24,156,o),
(24,119,cs),
(24,46,o),
(72,-10,o),
(168,-10,cs)
);
}
);
width = 627;
},
{
anchors = (
{
name = bottom;
pos = (269,0);
},
{
name = center;
pos = (293,293);
},
{
name = ogonek;
pos = (485,0);
},
{
name = top;
pos = (324,511);
},
{
name = topright;
pos = (358,545);
}
);
background = {
anchors = (
{
name = bottom;
pos = (264,0);
},
{
name = center;
pos = (293,293);
},
{
name = ogonek;
pos = (485,0);
},
{
name = top;
pos = (324,511);
},
{
name = topright;
pos = (358,545);
}
);
shapes = (
{
closed = 1;
nodes = (
(284,-10,o),
(344,29,o),
(381,69,c),
(383,19,o),
(408,-10,o),
(471,-10,cs),
(514,-10,o),
(544,4,o),
(555,10,c),
(565,89,l),
(556,84,o),
(535,77,o),
(520,77,cs),
(508,77,o),
(495,84,o),
(495,102,cs),
(495,126,o),
(510,217,o),
(553,511,c),
(435,511,l),
(393,211,ls),
(383,142,o),
(327,79,o),
(256,79,cs),
(207,79,o),
(180,101,o),
(180,159,cs),
(180,199,o),
(191,277,o),
(223,511,c),
(105,511,l),
(77,317,o),
(58,188,o),
(58,131,cs),
(58,33,o),
(121,-10,o),
(212,-10,cs)
);
}
);
};
layerId = "EDCD8328-1E0F-4D00-9253-D58387328EFF";
shapes = (
{
closed = 1;
nodes = (
(284,-10,o),
(344,29,o),
(381,69,c),
(383,19,o),
(408,-10,o),
(471,-10,cs),
(514,-10,o),
(544,4,o),
(555,10,c),
(565,89,l),
(556,84,o),
(535,77,o),
(520,77,cs),
(508,77,o),
(495,84,o),
(495,102,cs),
(495,126,o),
(510,217,o),
(553,511,c),
(435,511,l),
(393,211,ls),
(383,142,o),
(327,79,o),
(256,79,cs),
(207,79,o),
(180,101,o),
(180,159,cs),
(180,199,o),
(191,277,o),
(223,511,c),
(105,511,l),
(77,317,o),
(58,188,o),
(58,131,cs),
(58,33,o),
(121,-10,o),
(212,-10,cs)
);
}
);
width = 615;
}
);
note = u;
unicode = 117;
},
{
color = 3;
glyphname = ubar;
layers = (
{
layerId = "4BBFD287-7A5F-4332-B846-65FFBCBF0D57";
shapes = (
{
ref = u;
},
{
closed = 1;
nodes = (
(34,264,l),
(550,264,l),
(556,308,l),
(40,308,l)
);
}
);
width = 617;
},
{
layerId = "EDCD8328-1E0F-4D00-9253-D58387328EFF";
shapes = (
{
ref = u;
},
{
closed = 1;
nodes = (
(5,247,l),
(587,247,l),
(600,341,l),
(18,341,l)
);
}
);
width = 615;
},
{
layerId = "4FDE33F5-0064-4818-A7C2-FB87252213B5";
shapes = (
{
ref = u;
},
{
closed = 1;
nodes = (
(-11,239,l),
(598,239,l),
(616,367,l),
(7,367,l)
);
}
);
width = 627;
}
);
unicode = 649;
},
{
color = 4;
glyphname = uhorntilde;
kernLeft = u;
kernRight = u;
layers = (
{
layerId = "4BBFD287-7A5F-4332-B846-65FFBCBF0D57";
shapes = (
{
closed = 1;
nodes = (
(308,-10,o),
(375,22,o),
(418,76,c),
(411,24,o),
(427,-10,o),
(474,-10,cs),
(497,-10,o),
(518,-3,o),
(537,9,c),
(543,52,l),
(526,43,o),
(505,36,o),
(490,36,cs),
(477,36,o),
(467,43,o),
(467,61,cs),
(467,73,o),
(530,511,o),
(530,511,cs),
(479,511,l),
(435,197,ls),
(422,105,o),
(345,36,o),
(255,36,cs),
(177,36,o),
(131,68,o),
(131,157,cs),
(131,197,o),
(153,342,o),
(178,511,c),
(127,511,l),
(99,316,o),
(78,190,o),
(78,142,cs),
(78,37,o),
(146,-10,o),
(241,-10,cs)
);
},
{
closed = 1;
nodes = (
(195,634,l),
(205,657,o),
(224,666,o),
(257,666,cs),
(311,666,o),
(355,634,o),
(419,634,cs),
(498,634,o),
(527,684,o),
(532,716,c),
(495,716,l),
(485,693,o),
(466,684,o),
(433,684,cs),
(379,684,o),
(335,716,o),
(271,716,cs),
(193,716,o),
(163,666,o),
(158,634,c)
);
},
{
closed = 1;
nodes = (
(582,490,o),
(640,561,o),
(654,660,c),
(598,660,l),
(586,575,o),
(546,521,o),
(479,511,c),
(474,473,l)
);
}
);
width = 617;
},
{
layerId = "4FDE33F5-0064-4818-A7C2-FB87252213B5";
shapes = (
{
closed = 1;
nodes = (
(264,-10,o),
(317,48,o),
(335,71,c),
(346,20,o),
(382,-10,o),
(471,-10,cs),
(521,-10,o),
(554,0,o),
(575,13,c),
(590,120,l),
(576,114,o),
(566,111,o),
(554,111,cs),
(541,111,o),
(527,120,o),
(527,140,cs),
(527,158,o),
(553,336,o),
(579,511,c),
(381,511,l),
(336,191,ls),
(331,158,o),
(310,131,o),
(275,131,cs),
(246,131,o),
(229,145,o),
(229,171,cs),
(229,200,o),
(250,342,o),
(275,511,c),
(77,511,l),
(49,324,o),
(24,156,o),
(24,119,cs),
(24,46,o),
(72,-10,o),
(168,-10,cs)
);
},
{
closed = 1;
nodes = (
(213,576,l),
(223,599,o),
(244,616,o),
(269,616,cs),
(334,610,o),
(334,576,o),
(396,576,cs),
(473,576,o),
(546,647,o),
(556,719,c),
(475,719,l),
(465,696,o),
(444,679,o),
(419,679,cs),
(366,679,o),
(356,719,o),
(292,719,cs),
(215,719,o),
(142,648,o),
(132,576,c)
);
},
{
closed = 1;
nodes = (
(574,423,o),
(694,530,o),
(711,650,c),
(557,650,l),
(545,565,o),
(525,521,o),
(458,511,c),
(434,413,l)
);
}
);
width = 627;
},
{
layerId = "EDCD8328-1E0F-4D00-9253-D58387328EFF";
shapes = (
{
closed = 1;
nodes = (
(284,-10,o),
(344,29,o),
(381,69,c),
(383,19,o),
(408,-10,o),
(471,-10,cs),
(514,-10,o),
(544,4,o),
(555,10,c),
(565,89,l),
(556,84,o),
(535,77,o),
(520,77,cs),
(508,77,o),
(495,84,o),
(495,102,cs),
(495,126,o),
(510,217,o),
(553,511,c),
(435,511,l),
(392,202,ls),
(381,133,o),
(318,79,o),
(257,79,cs),
(208,79,o),
(175,101,o),
(175,159,cs),
(175,184,o),
(189,285,o),
(223,511,c),
(105,511,l),
(77,320,o),
(53,160,o),
(53,128,cs),
(53,32,o),
(121,-10,o),
(212,-10,cs)
);
},
{
closed = 1;
nodes = (
(195,604,l),
(205,627,o),
(224,640,o),
(253,640,cs),
(308,640,o),
(353,604,o),
(418,604,cs),
(490,604,o),
(544,658,o),
(552,717,c),
(495,717,l),
(485,694,o),
(464,681,o),
(436,681,cs),
(389,681,o),
(333,717,o),
(271,717,cs),
(197,717,o),
(145,659,o),
(137,604,c)
);
},
{
closed = 1;
nodes = (
(565,452,o),
(656,549,o),
(670,649,c),
(564,649,l),
(552,564,o),
(523,521,o),
(456,511,c),
(446,440,l)
);
}
);
width = 615;
}
);
unicode = 7919;
},
{
color = 4;
glyphname = v;
kernLeft = v;
kernRight = v;
layers = (
{
layerId = "4BBFD287-7A5F-4332-B846-65FFBCBF0D57";
shapes = (
{
closed = 1;
nodes = (
(243,0,l),
(521,511,l),
(471,511,l),
(235,74,l),
(231,74,l),
(118,511,l),
(63,511,l),
(198,0,l)
);
}
);
width = 512;
},
{
background = {
shapes = (
{
closed = 1;
nodes = (
(350,0,l),
(588,511,l),
(395,511,l),
(279,219,l),
(272,219,l),
(238,511,l),
(27,511,l),
(121,0,l)
);
}
);
};
layerId = "4FDE33F5-0064-4818-A7C2-FB87252213B5";
shapes = (
{
closed = 1;
nodes = (
(350,0,l),
(588,511,l),
(395,511,l),
(276,209,l),
(269,209,l),
(233,511,l),
(27,511,l),
(121,0,l)
);
}
);
width = 558;
},
{
background = {
shapes = (
{
closed = 1;
nodes = (
(288,0,l),
(546,511,l),
(431,511,l),
(249,143,l),
(245,143,l),
(167,511,l),
(42,511,l),
(158,0,l)
);
}
);
};
layerId = "EDCD8328-1E0F-4D00-9253-D58387328EFF";
shapes = (
{
closed = 1;
nodes = (
(288,0,l),
(546,511,l),
(431,511,l),
(244,132,l),
(240,132,l),
(160,511,l),
(42,511,l),
(158,0,l)
);
}
);
width = 523;
}
);
note = v;
unicode = 118;
},
{
color = 4;
glyphname = w;
kernLeft = v;
kernRight = v;
layers = (
{
anchors = (
{
name = top;
pos = (443,511);
}
);
layerId = "4BBFD287-7A5F-4332-B846-65FFBCBF0D57";
shapes = (
{
closed = 1;
nodes = (
(213,0,l),
(429,446,l),
(433,446,l),
(525,0,l),
(565,0,l),
(814,511,l),
(765,511,l),
(562,93,l),
(558,93,l),
(472,511,l),
(413,511,l),
(210,93,l),
(206,93,l),
(120,511,l),
(67,511,l),
(173,0,l)
);
}
);
width = 809;
},
{
anchors = (
{
name = top;
pos = (457,511);
}
);
background = {
shapes = (
{
closed = 1;
nodes = (
(335,0,l),
(413,213,l),
(421,213,l),
(440,0,l),
(664,0,l),
(881,511,l),
(689,511,l),
(596,253,l),
(588,253,l),
(564,511,l),
(364,511,l),
(267,253,l),
(260,253,l),
(239,511,l),
(33,511,l),
(107,0,l)
);
}
);
};
layerId = "4FDE33F5-0064-4818-A7C2-FB87252213B5";
shapes = (
{
closed = 1;
nodes = (
(335,0,l),
(413,213,l),
(421,213,l),
(440,0,l),
(664,0,l),
(881,511,l),
(689,511,l),
(593,243,l),
(585,243,l),
(559,511,l),
(364,511,l),
(264,243,l),
(257,243,l),
(234,511,l),
(33,511,l),
(107,0,l)
);
}
);
width = 855;
},
{
anchors = (
{
name = top;
pos = (438,511);
}
);
background = {
shapes = (
{
closed = 1;
nodes = (
(265,0,l),
(410,324,l),
(415,324,l),
(472,0,l),
(599,0,l),
(832,511,l),
(717,511,l),
(563,164,l),
(558,164,l),
(501,511,l),
(384,511,l),
(229,164,l),
(224,164,l),
(167,511,l),
(46,511,l),
(137,0,l)
);
}
);
};
layerId = "EDCD8328-1E0F-4D00-9253-D58387328EFF";
shapes = (
{
closed = 1;
nodes = (
(265,0,l),
(410,324,l),
(415,324,l),
(472,0,l),
(599,0,l),
(832,511,l),
(717,511,l),
(561,159,l),
(556,159,l),
(501,511,l),
(384,511,l),
(227,159,l),
(222,159,l),
(164,511,l),
(46,511,l),
(137,0,l)
);
}
);
width = 814;
}
);
note = w;
unicode = 119;
},
{
color = 4;
glyphname = x;
kernLeft = x;
kernRight = x;
layers = (
{
layerId = "4BBFD287-7A5F-4332-B846-65FFBCBF0D57";
shapes = (
{
closed = 1;
nodes = (
(54,0,l),
(243,221,l),
(247,221,l),
(371,0,l),
(434,0,l),
(280,262,l),
(496,511,l),
(438,511,l),
(262,303,l),
(258,303,l),
(139,511,l),
(75,511,l),
(222,262,l),
(-3,0,l)
);
}
);
width = 517;
},
{
layerId = "4FDE33F5-0064-4818-A7C2-FB87252213B5";
shapes = (
{
closed = 1;
nodes = (
(164,0,l),
(261,143,l),
(265,143,l),
(321,0,l),
(548,0,l),
(418,265,l),
(608,511,l),
(395,511,l),
(317,393,l),
(313,393,l),
(267,511,l),
(40,511,l),
(159,270,l),
(-48,0,l)
);
}
);
width = 583;
},
{
layerId = "EDCD8328-1E0F-4D00-9253-D58387328EFF";
shapes = (
{
closed = 1;
nodes = (
(102,0,l),
(246,176,l),
(250,176,l),
(344,0,l),
(483,0,l),
(337,265,l),
(544,511,l),
(416,511,l),
(284,350,l),
(280,350,l),
(195,511,l),
(57,511,l),
(194,261,l),
(-26,0,l)
);
}
);
width = 534;
}
);
note = x;
unicode = 120;
},
